<style>

  @import url("https://use.typekit.net/xah5shv.css");

  .map_location_text {
    font-family: century-gothic;
    font-size: 22px;
    fill: none;
  }

  .map_locations:hover {
    scale: 1.5;
    fill: #434462;
  }

  
  
  :has(#map_location_1) :is(#map_location_text_1) {
    fill: white;
  }

  :has(#map_location_2) :is(#map_location_text_2) {
    fill: white;
  }

  :has(#map_location_3) :is(#map_location_text_3) {
    fill: white;
  }

  :has(#map_location_4) :is(#map_location_text_4) {
    fill: white;
  }

  :has(#map_location_5) :is(#map_location_text_5) {
    fill: white;
  }

  :has(#map_location_6) :is(#map_location_text_6) {
    fill: white;
  }

  :has(#map_location_7) :is(#map_location_text_7) {
    fill: white;
  }
  
</style>





<?xml version="1.0" encoding="UTF-8"?>
<svg
  xmlns="http://www.w3.org/2000/svg"
  viewBox="0 0 821.51 816.57">
  
  <defs>
    <style>
      .cls-1,.cls-2,.cls-3{stroke-width:0px;}.cls-1,.cls-4{fill:#010101;}.cls-2{fill:#231f20;}.cls-4{stroke:#010101;stroke-miterlimit:10;}.cls-3{fill:#fff;}
    </style>
  </defs>

  
  <g id="Layer_1">
    <path class="cls-2" d="M821.51,51.18c-17.44-10.93-38.42-16.93-59.04-15.47-20.64,2.02-40.52,8.2-60.42,13.79-33.29,8.9-66.73,18.26-100.89,23.23-10.29,1.32-20.69,2.24-31.08,1.76-5.08-.1-10.29-1.34-15.28-.59-3.24.95-6.13,2.83-9.27,4.26-1.65.76-3.65,1.26-5.47.8-3.73-.89-6.32-3.63-8.99-5.57-7.97-5.66-20.25-7.99-28.61-9.42-7.88,1.68-15.83,2.8-23.86,3.29-8.06.4-16.29.31-24.07-2.19-19.06-6.63-34.34-20.56-51.6-30.46-6.98-3.38-15.15-4.19-22.87-4.75-5.91-.43-11.94-.29-17.87-.19-26.91.23-203.03.15-233.69.33,0,0-.31,0-.31,0,0,0-.26-.12-.26-.12-4.61-2.25-9.09-5.22-11.08-10.17-1.65-4.63-.19-9.43-2.3-13.68-1.29-2.41-4.56-2.65-7.05-2.59-6.37-.04-12.68-.41-18.93-.4-1.56,0-3.11.05-4.63.15-.75.07-1.5.13-2.19.26-.71.1-1.34.32-1.68.49-.21.11-.58.63-.87,1.24-.95,2.16-1.61,4.36-2.7,6.58-1.78,4.06-5.74,7.23-10.22,7.68-8.71.83-17.52.72-26.23.87-12.65.09-25.29.04-37.93-.08,0,0,1.69-1.63,1.69-1.63-.1,22.99-1.25,46.26.41,69.16,0,0,.05.28.05.28,0,.04.02.11.02.12.03.01-.02,0,0,.04,0,0,.15.2.15.2,3.75,4.37,8.76,7.73,13.35,11.24,0,0-1.38-.29-1.38-.29.75-.14,1.28-.18,1.9-.23,4.09-.2,8.21.76,11.92,2.42,6.22,2.93,11.61,6.86,16.53,11.55,1.98,1.96,4.05,4.24,5.42,6.79.55.89,1.5,3.77,1.88,4.84,0,0,2.18,6.17,2.18,6.17.03-.08,17.61,49.98,17.34,49.19,2.07,4.27,4.2,8.55,6.41,12.75,2.07,4.11,4.55,8.28,7.45,11.86,5.78,7.61,11.67,15.13,17.13,23.11,1.38,2.1,2.89,4.22,3.79,6.59,3.02,11.64,4.32,23.84,5.76,35.78.51,4.66.17,9.75.39,14.45.28,6.1.16,12.27,1.61,18.14,1.15,2.94,2.73,5.75,4.23,8.54,2.14,3.78,4.68,8.28,7.75,11.14.24.21.37.25.59.42,0,0,.21.12.21.12,3.87,2.16,7.45,4.73,11.08,7.23,5.37,3.87,10.93,7.62,15.77,12.22,8.09,7.16,15.27,13.15,14.63,25,0,6.61-2.46,12.98-2.72,19.45,0,0-.09,3.57-.09,3.57-.53,16.25-.68,41.2-1.66,57.41-.55,10.64-1.25,21.36-.8,31.99.02.59.08,1.14.14,1.68,0,0,.09.82.09.82.03.27.1.43.14.66.04.36.29.99.5,1.54,0,0,.62,1.68.62,1.68,2.54,6.34,4.8,13.3,9.15,18.48,5.11,4.71,13,7.13,12.65,15.69-.44,13.79-2.34,27.59-3.98,41.28-.04.3-.09.64-.07.76-.04.59.13,1.24.31,1.88,1.56,4.06,4.59,7.68,7.79,10.63,1.39,1.33,3.08,2.02,4.38,3.64,1.63,1.6,1.43,4.94,1.13,6.65-.33,2.37-.59,4.7-.87,7.09-1.24,11.81-2.85,23.65-3.41,35.48.03,3.61-1.2,6.34,1.21,8.64,2.6,2.04,6,3.18,8.98,4.89,2.91,1.67,6.24,3.53,7.42,7.01.1.41.26.81.27,1.23.04.41.08.9.07,1.14.02,5.86.03,12.01.16,17.87.42,9.39-.11,18.84,2.64,27.94,2.66,9.02,6.05,17.96,9.75,26.68,1.85,4.21,3.68,8.58,6.23,12.34,11.57,11.36,27.9,29.56,39.49,40.95,5.63,5.3,10.16,11.18,15.04,17.03-.14-.16-.08-.08-.09-.1.19.11.42.12.83.05.71-.11,1.63-.57,2.47-1.16,3.56-2.61,6.52-6.48,9.26-10.03,3.75-5.16,7.39-10.49,9.64-16.44.57-1.74.63-4,1.98-5.59,4.59-5.23,12.56-4.1,18.6-3.84,4.95.48,10.81-.75,15.04,2.79,2.02,1.91,2.92,4.65,3.7,7.2,2.14,7.05,1.92,14.39,2.35,21.62.57,5.85,3.27,11.28,8.59,13.64,0,0,.82.39.82.39,0,0,1.64.79,1.64.79,10.4,5.46,21.65,9.23,33.42,9.83,8.36.43,20.06.08,28.55.2,0,0,28.66.01,28.66.01,0,0-.44.05-.44.05,2.13-.68,4.5-1.8,6.36-3.19,4.1-2.89,6.82-6.9,8.85-11.51,2.29-5.71,5.42-9.92,11.35-11.88,7.79-2.66,15.96-3.28,24.11-2.01,0,0-2.11,1.73-2.11,1.73,0-1.33,1.13-437.72,1.13-438.94,0,0,1.32.02,1.32.02,0,0,51.21.74,51.21.74,0,0-1.25,1.22-1.25,1.22,0,0,3.79-262.7,3.79-262.7v-.76s.77,0,.77,0c30.58,0,61.27,1.16,91.79-.86,6.08-.59,12.14-1.44,18.18-2.43,12-2.15,24.18-4.19,35.62-8.46,2.54-.91,5.03-2.15,7.74-2.49,3.92-.33,6.1,4.09,6.53,7.44.48,3.09.29,6.18.57,9.19.26,3.56,1.52,5.61,5.18,5.58,6.06.07,11.78-3.06,16.8-6.23,5.02-3.45,9.97-7.15,15.21-10.31,7.81-4.85,15.83-9.42,24.32-12.98,14.4-5.2,29.37-8.72,44.08-12.94h0ZM821.51,51.18c-14.67,4.31-29.62,7.93-43.97,13.21-8.45,3.6-16.42,8.22-24.18,13.1-5.25,3.21-10.09,6.89-15.14,10.4-5.13,3.28-10.85,6.45-17.14,6.42-4.26.14-5.51-2.6-5.86-6.18-.3-3.09-.12-6.16-.6-9.14-.25-1.48-.65-2.93-1.47-4.16-.94-1.62-2.39-2.84-4.25-2.6-2.63.35-5.02,1.57-7.51,2.47-11.51,4.35-23.7,6.45-35.75,8.67-6.05,1.02-12.13,1.89-18.24,2.52-30.58,2.18-61.29,1.16-91.92,1.3,2.55-4.75-3.06,262.98-2.08,261.95,0,0-.02,1.23-.02,1.23h-1.23s-51.21-.61-51.21-.61c0,0,1.32-1.3,1.32-1.3l-.2,437.62s0,2.1,0,2.1c0,0-2.11-.37-2.11-.37-7.89-1.27-22.34-.54-27.97,5.57-3.2,4.03-4.28,9.34-7.6,13.46-3.42,4.55-8.23,8.05-13.73,9.64,0,0-.24,0-.24,0,0,0-28.66.01-28.66.01-27.04-.13-40.06,2.13-65.17-11.11-7.13-2.92-10.81-9.59-11.53-16.94-.49-7-.18-14.23-2.25-21-.62-1.91-1.22-4.04-2.63-5.48-1.16-1.1-3.31-1.45-5.58-1.58-2.28-.13-4.7-.12-7.13-.24-4.51-.13-9.25-.84-13.33.86-.9.39-1.63.91-2.1,1.53-.24.31-.42.65-.54,1.03-.13.41-.16.67-.32,1.5-.56,2.72-1.65,4.78-2.83,7.15-3.47,6.52-7.67,12.45-12.47,18.01-1.61,1.83-3.35,3.69-5.55,5.22-1.77,1.19-4.33,2.5-6.76,1.54-.65-.3-.94-.42-1.51-1.03,0,0-.58-.71-.58-.71-5.19-6.32-10.73-13.05-16.7-18.43-10.42-10.61-26.46-28.13-37.06-38.48-3.13-4.15-4.94-8.95-7.07-13.6-3.77-8.87-7.18-17.83-9.94-27.13-1.47-4.57-2.07-9.72-2.29-14.54-.65-10.98-.62-22.02-.75-32.99-.54-2.6-3.47-3.94-5.66-5.26-6.07-3.36-13.49-4.85-12.5-13.6.75-15.61,2.69-31.01,4.55-46.48.16-1.15.27-2.27.11-2.86-.43-1.28-1.63-1.84-2.78-2.71-3.55-2.75-6.4-6.13-8.75-9.98-.99-1.76-1.94-3.66-2.17-5.77-.31-.44.91-8.5.97-9.33.57-4.73,1.11-9.47,1.61-14.21.62-6.99,1.63-13.99,1.41-20.99-.77-5.34-7.08-7.24-10.72-10.73-4.72-4.72-6.98-11.3-9.44-17.17-.79-2.21-1.89-4.66-2.51-6.92-.34-1.26-.42-2.67-.5-3.94-.46-10.85.27-21.65.83-32.46.99-16.12,1.16-41.02,1.7-57.19,0,0,.09-3.59.09-3.59.19-6.66,2.7-12.92,2.74-19.52,0-.86,0-2.56-.07-3.41-.52-8-7.66-13.66-13.36-18.77-4.67-4.45-10.1-8.11-15.35-11.9-3.49-2.41-6.96-4.9-10.65-6.98,0,0-.18-.1-.18-.1l-.27-.16c-.33-.22-.75-.45-.99-.69,0,0-.8-.71-.8-.71-3.23-3.38-5.56-7.49-7.84-11.51-1.71-3.3-3.72-6.53-4.77-10.14-1.25-6.01-1.27-12.2-1.5-18.23-.18-3.51-.04-7.27-.11-10.79-.31-5.8-1.23-11.73-2-17.54-.85-5.88-1.72-11.75-2.94-17.53-.48-3.42-2.28-6.25-4.21-9.03-6.57-9.89-14.56-19.06-21.23-28.97-3.65-6.27-6.79-12.73-9.96-19.23-.09-.15-17.39-49.43-17.46-49.61,0,0-2.17-6.18-2.17-6.18,0,0-1.09-3.06-1.09-3.06-.18-.41-.31-.83-.57-1.25-1.21-2.23-2.92-4.09-4.77-5.94-4.52-4.35-9.88-8.23-15.5-10.88-3.89-1.72-8.27-2.69-12.46-1.84,0,0-.59-.44-.59-.44-4.92-3.8-10.14-7.23-14.16-12.1,0,0-.25-.36-.25-.36-.09-.17-.18-.41-.26-.61-.11-.27-.19-.67-.24-.95C-.16,79.95.14,71.52,0,63.1c-.02-15.41.18-30.8.5-46.2,13.17.17,26.36.27,39.52.21,8.62-.12,17.27,0,25.84-.76,5.48-.47,7.97-5.39,9.58-10.18.83-1.68,1.04-3.5,2.95-4.8,3.25-1.61,6.74-1.21,10.16-1.37,6.39,0,12.69.4,18.96.45,3.65-.09,7.68.65,9.62,4.11,1.71,3.14,1.54,6.6,1.8,9.89-.18,6.38,4.88,10.27,10.14,12.78,0,0-.57-.12-.57-.12,31.71-.13,205.79.42,233.63.33,5.98-.07,12.08-.21,18.06.25,8.08.63,16.28,1.41,23.73,5.06,17.23,9.9,32.3,23.78,51.2,30.51,7.48,2.45,15.55,2.55,23.38,2.2,7.97-.45,15.94-1.54,23.75-3.17,3.51.49,6.96,1.16,10.39,1.99,6.76,1.71,13.57,3.76,19.35,7.86,2.77,1.93,5.09,4.61,8.38,5.35,1.55.41,3.12-.05,4.57-.68,3.14-1.38,6.09-3.37,9.55-4.3,1.81-.33,3.62-.35,5.36-.2,5.2.44,10.26.97,15.45.98,12.04.1,24.04-1.4,35.93-3.27,37.16-6.54,74.21-16.69,110.58-26.77,13.34-3.5,26.89-6.67,40.64-7.92,20.69-1.34,41.65,4.81,59.07,15.85h0Z"/>
  </g>


  
  <g id="Layer_2">
    <g class="map_locations" id="map_location_1">
      <path class="cls-1" d="M462.37,329.57c-.28,0-.69-.4-.69-.4-11.89-13.54-10.32-20.2-10.32-20.2,0,0,3.44,10.88,11.01,10.91"/>
      <path class="cls-1" d="M462.37,329.57c.28,0,.69-.4.69-.4,11.89-13.54,10.32-20.2,10.32-20.2,0,0-3.44,10.88-11.01,10.91"/>
      <ellipse class="cls-4" cx="357.29" cy="306.31" rx="11.01" ry="10.91"/>
    </g>
      <ellipse class="cls-3" cx="357.29" cy="306.31" rx="6.51" ry="6.44"/>
      <text class="map_location_text" id="location_text_1" x="5" y="985">N/a'an ku sê Lodge</text>

    <g class="map_locations" id="map_location_2">
      <path class="cls-1" d="M357.29,326.91c-.28,0-.69-.4-.69-.4-11.89-13.54-10.32-20.2-10.32-20.2,0,0,3.44,10.88,11.01,10.91"/>
      <path class="cls-1" d="M357.29,326.91c.28,0,.69-.4.69-.4,11.89-13.54,10.32-20.2,10.32-20.2,0,0-3.44,10.88-11.01,10.91"/>
      <ellipse class="cls-4" cx="276.15" cy="463.26" rx="11.01" ry="10.91"/>
    </g>
      <ellipse class="cls-3" cx="276.15" cy="463.26" rx="6.51" ry="6.44"/>
      <text class="map_location_text" id="location_text_2" x="5" y="985">Neuras Wine & Wildlife Estate</text>

    <g class="map_locations" id="map_location_3">
      <path class="cls-1" d="M276.15,483.87c-.28,0-.69-.4-.69-.4-11.89-13.54-10.32-20.2-10.32-20.2,0,0,3.44,10.88,11.01,10.91"/>
      <path class="cls-1" d="M276.15,483.87c.28,0,.69-.4.69-.4,11.89-13.54,10.32-20.2,10.32-20.2,0,0-3.44,10.88-11.01,10.91"/>
      <ellipse class="cls-4" cx="262.84" cy="557.71" rx="11.01" ry="10.91"/>
    </g>
      <ellipse class="cls-3" cx="262.84" cy="557.71" rx="6.51" ry="6.44"/>
      <text class="map_location_text" id="location_text_3" x="5" y="985">Kanaan Desert Retreat</text>

    <g class="map_locations" id="map_location_4">
      <path class="cls-1" d="M262.84,578.31c-.28,0-.69-.4-.69-.4-11.89-13.54-10.32-20.2-10.32-20.2,0,0,3.44,10.88,11.01,10.91"/>
      <path class="cls-1" d="M262.84,578.31c.28,0,.69-.4.69-.4,11.89-13.54,10.32-20.2,10.32-20.2,0,0-3.44,10.88-11.01,10.91"/>
      <ellipse class="cls-4" cx="332.01" cy="334.24" rx="11.01" ry="10.91"/>
    </g>
      <ellipse class="cls-3" cx="332.01" cy="334.24" rx="6.51" ry="6.44"/>
      <text class="map_location_text" id="location_text_4" x="5" y="985">N/a'an ku sê @ Utopia</text>

    <g class="map_locations" id="map_location_5">
      <path class="cls-1" d="M332.01,354.84c-.28,0-.69-.4-.69-.4-11.89-13.54-10.32-20.2-10.32-20.2,0,0,3.44,10.88,11.01,10.91"/>
      <path class="cls-1" d="M332.01,354.84c.28,0,.69-.4.69-.4,11.89-13.54,10.32-20.2,10.32-20.2,0,0-3.44,10.88-11.01,10.91"/>
      <ellipse class="cls-4" cx="377.9" cy="319.61" rx="11.01" ry="10.91"/>
    </g>
      <ellipse class="cls-3" cx="377.9" cy="319.61" rx="6.51" ry="6.44"/>
      <text class="map_location_text" id="location_text_5" x="5" y="985">N/a'an ku sê Bush Camp</text>

    <g class="map_locations" id="map_location_6">
      <path class="cls-1" d="M377.9,340.21c-.28,0-.69-.4-.69-.4-11.89-13.54-10.32-20.2-10.32-20.2,0,0,3.44,10.88,11.01,10.91"/>
      <path class="cls-1" d="M377.9,340.21c.28,0,.69-.4.69-.4,11.89-13.54,10.32-20.2,10.32-20.2,0,0-3.44,10.88-11.01,10.91"/>
      <ellipse class="cls-4" cx="264.17" cy="233.81" rx="11.01" ry="10.91"/>
    </g>
      <ellipse class="cls-3" cx="264.17" cy="233.81" rx="6.51" ry="6.44"/>
      <text class="map_location_text" id="location_text_6" x="5" y="985">TimBila Nature Reserve</text>

    <g class="map_locations" id="map_location_7">
      <path class="cls-1" d="M264.17,254.42c-.28,0-.69-.4-.69-.4-11.89-13.54-10.32-20.2-10.32-20.2,0,0,3.44,10.88,11.01,10.91"/>
      <path class="cls-1" d="M264.17,254.42c.28,0,.69-.4.69-.4,11.89-13.54,10.32-20.2,10.32-20.2,0,0-3.44,10.88-11.01,10.91"/>
      <ellipse class="cls-4" cx="462.37" cy="308.97" rx="11.01" ry="10.91"/>
    </g>
      <ellipse class="cls-3" cx="462.37" cy="308.97" rx="6.51" ry="6.44"/>
      <text class="map_location_text" id="location_text_7" x="5" y="985">Harnas Guest Farm</text>
  </g>

</svg>
