<?xml version="1.0" standalone="no"?>
<!DOCTYPE svg PUBLIC "-//W3C//DTD SVG 20010904//EN"
 "http://www.w3.org/TR/2001/REC-SVG-20010904/DTD/svg10.dtd">
<svg version="1.0" xmlns="http://www.w3.org/2000/svg"
 width="100%" height="" viewBox="0 0 2058.000000 1972.000000"
 preserveAspectRatio="xMidYMid meet">

<g transform="translate(0.000000,1972.000000) scale(0.100000,-0.100000)" fill="#000000" stroke="none">

  <path
        class="nan_element_1"
        d="M9705 19473 c-2156 -139 -4147 -974 -5774 -2421 -292 -259 -794 -774 -774 -792 4 -5 786 -627 1737 -1383 l1729 -1376 136 128 c223 211 393 351 601 497 132 92 306 204 317 204 6 -1 523 -1061 541 -1110 2 -4 -43 -38 -98 -76 -246 -165 -570 -457 -772 -696 -258 -304 -475 -661 -629 -1033 -52 -126 -61 -140 -81 -137 -30 3 -1182 263 -1187 267 -13 13 143 404 248 620 90 185 169 329 273 494 32 52 55 98 51 102 -4 4 -786 627 -1738 1383 l-1730 1377 -23 -28 c-36 -45 -253 -368 -337 -503 -209 -334 -466 -820 -630 -1190 -738 -1666 -978 -3508 -699 -5345 15 -93 29 -173 33 -177 6 -7 4315 983 4326 994 3 3 1 38 -5 79 -41 312 -41 856 1 1174 6 44 12 81 14 83 3 3 1208 -267 1211 -271 0 -1 -3 -38 -7 -82 -13 -142 -10 -546 6 -703 28 -265 80 -529 156 -777 70 -229 223 -576 344 -780 25 -43 44 -82 43 -86 -2 -5 -219 -182 -483 -394 -467 -375 -480 -385 -495 -364 -54 75 -195 322 -275 479 -102 202 -176 373 -250 577 -43 120 -50 132 -69 127 -11 -2 -983 -227 -2160 -499 -1176 -271 -2140 -496 -2142 -498 -3 -2 18 -78 45 -168 646 -2130 2003 -3954 3863 -5197 177 -118 505 -318 648 -395 l85 -46 956 2006 957 2006 -117 74 c-162 104 -292 198 -461 334 -156 125 -473 416 -468 429 2 5 220 182 485 395 l483 387 86 -81 c471 -446 1121 -789 1777 -935 307 -69 546 -96 857 -96 247 0 389 11 620 50 759 124 1456 462 2009 973 l94 87 66 -52 c435 -341 871 -685 889 -703 l24 -22 -149 -141 c-256 -243 -478 -420 -754 -601 l-145 -96 970 -1990 c533 -1094 971 -1992 973 -1995 9 -11 382 210 648 385 1052 692 1926 1549 2645 2593 408 593 774 1290 1042 1985 107 278 291 848 277 860 -6 6 -4301 957 -4320 957 -10 0 -25 -27 -44 -82 -81 -240 -231 -576 -357 -803 -87 -155 -189 -316 -199 -313 -10 4 -969 759 -969 763 0 2 37 70 83 152 346 623 517 1365 478 2071 -7 113 -10 206 -9 207 6 6 1201 285 1205 281 9 -9 34 -277 43 -473 10 -224 0 -552 -23 -755 -9 -73 -9 -109 -2 -111 30 -12 4325 -960 4329 -956 8 8 66 434 86 634 32 322 40 470 47 825 25 1410 -260 2799 -838 4085 -246 548 -617 1189 -970 1674 -17 23 -19 21 -1730 -1364 -943 -763 -1720 -1393 -1728 -1401 -12 -11 -3 -30 56 -126 130 -209 216 -368 303 -558 93 -202 218 -525 208 -535 -6 -7 -1200 -287 -1204 -283 -2 2 -23 53 -47 113 -265 658 -706 1230 -1277 1659 -74 56 -156 115 -182 131 -27 17 -48 35 -48 40 0 12 509 1096 521 1110 11 11 32 0 209 -118 256 -169 480 -348 712 -568 86 -81 142 -128 150 -123 8 5 3384 2736 3437 2780 17 15 -543 577 -793 797 -1618 1423 -3585 2241 -5734 2383 l-102 7 2 -2224 3 -2223 145 -18 c205 -25 408 -63 607 -114 169 -42 480 -139 496 -154 13 -11 -517 -1126 -534 -1122 -8 2 -68 19 -134 38 -726 210 -1523 203 -2238 -20 l-78 -24 -28 61 c-16 34 -137 286 -270 561 -132 274 -241 500 -241 502 0 7 349 117 490 153 240 62 522 113 753 136 l67 7 0 2219 0 2219 -47 -2 c-27 -1 -70 -3 -98 -5z m1970 -1428 c198 -29 211 -33 246 -72 28 -33 31 -41 27 -85 -6 -56 -33 -92 -84 -108 -26 -9 -62 -7 -168 9 -74 12 -139 21 -144 21 -5 0 -15 -40 -21 -90 l-13 -90 -34 0 c-42 0 -42 -7 -9 215 36 240 32 227 63 221 15 -3 77 -12 137 -21z m-2411 -57 c3 -17 5 -32 4 -33 -2 -1 -75 -14 -163 -29 -88 -15 -161 -29 -164 -31 -2 -2 0 -25 4 -51 6 -46 7 -46 38 -40 84 17 170 27 183 22 10 -4 14 -16 12 -33 -3 -27 -6 -28 -107 -45 -57 -9 -104 -18 -106 -20 -1 -2 2 -31 7 -65 10 -59 12 -62 37 -57 127 22 325 53 327 51 3 -4 14 -67 11 -67 -1 0 -96 -16 -211 -35 -116 -19 -212 -33 -214 -31 -5 6 -75 427 -71 431 5 5 347 62 380 64 22 1 28 -4 33 -31z m2984 -53 c3 -3 122 -456 122 -468 0 -9 -50 2 -66 14 -6 5 -16 33 -23 62 l-12 54 -102 23 c-56 12 -106 24 -112 26 -6 3 -28 -18 -50 -46 -33 -42 -43 -48 -65 -43 -14 3 -29 9 -33 13 -5 4 60 91 145 194 126 153 157 184 173 179 11 -3 21 -7 23 -8z m-3587 -50 c24 -9 53 -22 64 -31 19 -14 19 -15 -6 -40 -24 -24 -27 -24 -55 -9 -76 39 -175 27 -242 -31 -91 -77 -75 -206 31 -260 79 -42 208 -3 263 78 31 45 31 45 63 32 l32 -13 -20 -40 c-75 -145 -308 -194 -427 -88 -51 44 -74 95 -74 166 0 75 12 106 58 154 81 84 209 118 313 82z m4024 -50 c63 -17 136 -58 175 -100 23 -24 23 -25 5 -45 -25 -27 -30 -26 -82 19 -88 78 -223 95 -223 29 0 -35 28 -56 111 -83 52 -18 92 -39 121 -64 40 -36 43 -42 43 -89 0 -64 -25 -100 -89 -126 -41 -18 -53 -19 -102 -8 -80 16 -156 54 -209 103 l-46 42 28 23 28 22 41 -38 c54 -50 114 -80 172 -87 59 -6 102 22 102 67 0 38 -30 65 -99 90 -147 54 -187 87 -177 149 7 48 36 83 77 98 45 16 55 16 124 -2z m-4490 -265 c36 -107 65 -200 65 -207 0 -28 -53 -8 -210 81 -91 52 -166 91 -168 87 -1 -3 18 -66 42 -139 l45 -133 -25 -9 c-14 -6 -31 -10 -37 -10 -10 0 -147 385 -147 412 0 33 75 -1 347 -159 l42 -24 -44 132 c-25 73 -45 139 -45 145 0 15 52 35 63 25 4 -4 36 -95 72 -201z m5010 89 c35 -13 77 -40 113 -74 57 -53 57 -53 38 -74 -11 -12 -23 -21 -28 -21 -4 0 -26 18 -48 40 -53 53 -109 80 -165 80 -39 0 -47 -4 -57 -25 -16 -35 0 -50 109 -102 133 -63 174 -124 139 -206 -29 -70 -111 -98 -204 -72 -72 21 -113 46 -180 109 l-54 51 28 21 27 22 48 -48 c57 -57 127 -93 184 -94 51 -1 85 24 85 64 0 36 -29 60 -130 109 -47 23 -95 53 -107 67 -43 48 -20 139 41 164 37 15 104 11 161 -11z m-5548 -79 c13 -36 27 -27 -159 -105 -76 -32 -138 -61 -138 -65 0 -4 8 -26 18 -48 l18 -40 99 43 c55 23 103 41 107 39 3 -2 11 -17 16 -33 l10 -28 -103 -43 -103 -43 24 -56 c14 -30 26 -57 28 -59 2 -2 73 26 158 62 85 36 159 66 165 66 8 0 33 -41 33 -55 0 -8 -385 -165 -395 -161 -10 3 -159 348 -167 385 -2 10 54 39 177 92 99 43 185 78 190 78 6 1 16 -13 22 -29z m5912 -81 c17 -6 31 -12 31 -14 0 -1 -32 -74 -71 -161 -39 -88 -79 -178 -90 -202 l-19 -43 -30 16 c-16 8 -30 19 -30 23 0 8 171 392 175 392 1 0 16 -5 34 -11z m372 -171 c181 -83 226 -284 89 -401 -56 -47 -125 -64 -200 -48 -229 49 -323 281 -172 424 66 63 180 73 283 25z m-6968 -211 c42 -83 81 -158 85 -165 7 -10 41 4 144 57 74 39 139 71 145 71 14 0 36 -51 26 -60 -12 -12 -329 -170 -339 -170 -8 0 -204 370 -204 384 0 5 50 35 60 35 3 1 40 -68 83 -152z m7344 -9 c5 -7 24 -98 42 -203 18 -104 34 -191 36 -193 3 -4 22 25 114 171 24 37 48 67 54 67 18 -1 50 -27 46 -38 -7 -19 -224 -361 -229 -361 -23 -1 -35 37 -65 209 -19 106 -36 194 -38 197 -3 2 -38 -49 -78 -113 -41 -65 -79 -119 -85 -121 -6 -2 -21 5 -33 15 l-23 18 107 169 c116 185 124 195 135 195 4 0 12 -6 17 -12z m-7746 -233 c50 -85 95 -155 100 -155 5 0 69 36 142 79 l132 79 17 -26 c14 -21 15 -29 5 -38 -18 -16 -315 -194 -324 -194 -4 0 -58 85 -119 188 l-112 187 27 17 c14 9 29 17 33 17 4 1 49 -69 99 -154z m-242 26 l21 -28 -140 -98 -139 -97 26 -39 c14 -21 29 -39 34 -39 5 0 47 27 94 61 l85 61 20 -23 c11 -13 19 -27 20 -30 0 -3 -40 -34 -90 -69 -56 -39 -87 -67 -82 -74 42 -67 66 -95 76 -89 6 4 70 49 143 100 72 51 135 93 139 93 10 0 33 -33 34 -47 0 -9 -262 -201 -336 -245 -8 -5 -54 51 -139 173 -98 140 -125 184 -114 190 8 4 84 58 169 118 85 61 156 110 157 111 1 0 11 -13 22 -29z m8561 -186 c1 -32 -75 -475 -81 -475 -5 0 -19 10 -33 23 -24 21 -24 24 -14 80 5 32 9 60 7 61 -27 23 -175 126 -181 126 -5 0 -31 -11 -59 -25 l-50 -26 -29 21 c-17 12 -30 23 -30 26 0 2 98 53 217 113 179 89 221 106 235 97 10 -6 18 -15 18 -21z m352 -272 l158 -134 -16 -25 c-9 -13 -18 -24 -21 -24 -2 0 -34 25 -69 55 -36 30 -68 55 -72 55 -4 0 -61 -63 -126 -140 l-119 -141 -23 22 c-13 12 -24 25 -24 28 0 3 52 67 115 141 63 74 115 138 115 142 0 3 -15 18 -32 33 -103 86 -100 82 -82 110 9 14 21 22 28 18 6 -4 82 -67 168 -140z m-9333 98 c10 -7 11 -16 4 -37 -8 -24 -15 -29 -44 -30 -122 -2 -219 -91 -219 -200 0 -143 163 -202 284 -103 42 35 76 103 76 152 0 36 1 37 35 37 31 0 35 -3 36 -27 3 -75 -33 -156 -93 -207 -64 -55 -118 -76 -197 -76 -61 0 -74 4 -117 33 -69 46 -108 122 -101 198 10 118 100 221 227 260 35 10 92 10 109 0z m-455 -441 c4 -63 11 -117 17 -121 6 -3 45 -9 88 -13 114 -10 175 -18 180 -22 3 -3 -8 -18 -25 -34 -29 -29 -30 -29 -99 -20 -38 5 -88 9 -109 10 l-39 0 7 -108 7 -108 -30 -28 -30 -29 -5 24 c-3 13 -8 77 -11 141 l-7 117 -31 5 c-18 3 -79 10 -136 16 -58 6 -107 13 -110 16 -3 3 8 18 24 33 l31 27 108 -11 107 -11 -7 108 -7 109 29 30 29 30 6 -23 c3 -13 9 -75 13 -138z m10156 10 l145 -139 -25 -26 -24 -26 -116 116 c-63 63 -120 115 -126 115 -5 0 -24 -15 -42 -33 l-32 -33 80 -79 80 -79 -22 -23 -22 -23 -50 47 c-28 27 -65 61 -82 76 l-32 28 -45 -47 -45 -48 130 -125 130 -126 -24 -23 -24 -22 -152 146 c-84 80 -152 149 -152 154 0 10 290 310 299 310 3 -1 71 -64 151 -140z m-10599 -381 c-61 -68 -111 -126 -110 -129 0 -3 16 -18 36 -35 l36 -29 76 83 76 83 24 -26 24 -25 -74 -82 -74 -81 49 -45 49 -44 26 30 c110 128 207 231 217 231 6 0 19 -9 29 -20 17 -19 17 -21 -15 -57 -89 -102 -254 -283 -257 -283 -7 0 -318 283 -321 292 -2 4 58 76 134 159 l137 151 25 -25 25 -25 -112 -123z m-1241 -1535 c13 -34 15 -31 -27 -53 -90 -45 -160 -151 -134 -200 25 -45 71 -19 147 83 36 50 108 96 148 96 68 0 126 -63 126 -137 0 -82 -83 -198 -184 -257 -55 -32 -60 -32 -74 -1 -16 34 -17 32 23 51 51 24 130 97 149 139 24 49 17 93 -17 119 -27 20 -28 20 -63 1 -19 -10 -51 -40 -69 -66 -60 -80 -109 -119 -154 -119 -74 0 -123 70 -102 147 22 80 91 161 176 206 40 22 44 21 55 -9z m13688 -16 c3 -17 -224 -428 -237 -428 -3 0 -14 12 -23 27 -16 27 -16 30 13 81 l31 52 -23 38 c-13 20 -40 63 -62 96 l-40 59 -62 -6 c-60 -6 -64 -5 -80 19 -9 14 -14 29 -10 32 9 10 373 50 435 48 43 -1 55 -5 58 -18z m186 -297 l15 -29 -138 -76 c-76 -41 -144 -82 -151 -91 -31 -38 12 -159 78 -216 44 -39 52 -37 213 52 70 38 131 69 136 69 8 0 33 -42 33 -55 0 -2 -67 -40 -149 -84 -160 -88 -192 -95 -248 -62 -63 39 -143 185 -143 263 0 38 6 54 28 78 23 26 282 179 304 180 4 0 14 -13 22 -29z m-14139 -60 c14 -29 14 -30 -19 -50 -45 -28 -109 -98 -125 -139 -18 -44 -5 -86 28 -90 27 -4 53 17 94 78 81 121 144 156 220 122 128 -57 87 -255 -78 -373 -37 -27 -42 -34 -29 -43 12 -10 0 -38 -84 -194 -54 -101 -102 -184 -105 -185 -10 -3 -377 198 -377 206 0 8 147 287 176 334 12 20 17 21 39 11 14 -6 25 -16 25 -21 0 -6 -34 -73 -75 -150 -41 -76 -75 -142 -75 -146 0 -4 20 -17 45 -29 l45 -22 51 95 c28 52 56 95 62 95 7 0 20 -7 30 -14 17 -13 15 -20 -34 -110 -28 -54 -50 -98 -48 -100 6 -6 108 -56 113 -56 8 0 156 280 156 296 0 8 -4 23 -10 33 -7 15 -4 20 16 30 39 17 124 101 145 143 36 70 14 141 -45 141 -33 0 -66 -30 -117 -104 -54 -80 -92 -109 -141 -109 -31 0 -46 7 -70 30 -29 29 -30 34 -26 95 3 55 10 73 43 122 22 32 64 74 94 95 30 21 56 38 57 38 2 0 10 -13 19 -29z m14459 -556 c49 -107 87 -197 85 -199 -2 -2 -14 -9 -27 -15 -22 -12 -24 -9 -62 73 l-39 85 -171 -79 -171 -79 -14 32 c-10 24 -10 34 -2 38 7 4 80 37 162 74 83 38 154 71 158 75 4 4 -9 42 -29 85 -36 75 -37 78 -19 91 10 8 24 14 30 14 6 0 51 -88 99 -195z m-14644 -351 c33 -15 60 -29 60 -33 -1 -21 -36 -37 -204 -91 -104 -32 -191 -61 -193 -64 -2 -2 5 -7 17 -11 12 -4 72 -31 135 -60 l114 -54 -10 -30 c-6 -17 -13 -31 -15 -31 -5 0 -385 171 -392 176 -2 1 -1 11 2 21 4 13 53 33 196 78 104 32 190 61 190 65 0 3 -56 29 -123 59 -67 30 -126 58 -131 62 -5 5 -4 20 3 38 l13 29 139 -63 c77 -35 166 -76 199 -91z m14779 46 c11 -34 20 -27 -96 -71 l-52 -20 18 -47 c10 -26 33 -87 51 -137 19 -49 35 -92 37 -94 1 -2 35 8 75 23 40 14 76 26 80 26 3 0 11 -14 17 -30 9 -28 8 -32 -17 -41 -330 -127 -375 -142 -389 -123 -27 36 -16 48 70 78 45 16 86 33 91 37 9 8 -77 253 -95 273 -5 5 -45 -4 -96 -23 -82 -30 -88 -31 -100 -15 -29 40 -19 47 180 121 105 40 197 72 204 72 6 1 16 -13 22 -29z m-15240 -316 c2 -2 -21 -70 -52 -152 -32 -81 -57 -153 -57 -159 0 -11 87 -50 93 -42 2 2 20 47 39 99 34 90 37 95 63 93 15 -1 30 -4 32 -7 3 -2 -11 -48 -31 -101 -20 -52 -36 -100 -36 -105 0 -12 112 -53 120 -43 4 4 33 78 65 163 32 85 59 156 61 158 1 2 15 -3 32 -10 l30 -13 -75 -195 c-41 -107 -76 -196 -78 -198 -5 -5 -387 138 -399 148 -7 7 25 99 123 354 10 24 15 27 39 21 15 -4 29 -8 31 -11z m15486 -415 c56 -201 57 -209 10 -209 -17 0 -26 21 -64 158 -24 86 -45 159 -47 160 -1 2 -20 -1 -41 -8 -21 -6 -43 -13 -50 -15 -8 -3 -2 -34 18 -102 16 -54 29 -103 29 -109 0 -11 -50 -27 -58 -19 -2 2 -16 47 -32 100 -16 53 -31 99 -33 102 -3 2 -33 -3 -66 -13 -54 -15 -60 -19 -55 -38 3 -11 24 -88 48 -171 45 -155 45 -165 0 -165 -19 0 -27 21 -78 201 -32 110 -56 203 -53 205 6 6 411 121 415 119 1 -1 27 -89 57 -196z m-15626 -41 c205 -193 281 -272 276 -288 -4 -14 -52 -25 -246 -57 l-240 -40 6 26 c3 14 12 31 18 37 7 6 88 24 182 39 l169 29 -130 125 c-130 125 -131 126 -121 159 5 17 12 32 15 32 3 0 35 -28 71 -62z m15713 -323 c-3 -5 -57 -79 -119 -164 -63 -85 -112 -155 -111 -157 2 -1 66 10 143 26 77 15 143 26 147 24 8 -5 12 -64 5 -64 -2 0 -93 -18 -202 -40 -109 -22 -205 -40 -212 -40 -30 0 -7 43 106 195 65 88 117 161 116 163 -1 1 -67 -11 -146 -27 -79 -16 -144 -29 -145 -28 -1 1 -4 16 -7 34 l-6 31 72 16 c40 9 135 29 212 44 124 25 141 26 146 13 4 -9 4 -20 1 -26z m-15706 -145 c110 -28 200 -53 202 -54 3 -4 -19 -66 -24 -66 -2 0 -83 21 -179 46 -97 25 -178 45 -179 43 -2 -2 -12 -43 -23 -91 l-20 -87 86 -19 c47 -11 130 -30 183 -42 97 -21 98 -22 92 -48 -4 -15 -9 -30 -13 -33 -3 -4 -82 11 -176 32 -93 21 -176 36 -182 34 -7 -2 -13 -11 -13 -18 0 -8 -7 -46 -16 -84 -15 -68 -16 -69 -45 -65 -16 2 -29 8 -29 13 0 12 54 257 87 392 17 73 30 107 38 103 7 -2 102 -28 211 -56z m15799 -312 c4 -24 17 -121 29 -215 l22 -173 -23 0 c-13 0 -26 -1 -30 -2 -6 -2 -28 115 -32 168 -1 6 -63 2 -182 -14 -99 -13 -183 -22 -185 -20 -2 3 -6 18 -10 34 l-6 30 187 24 187 24 -5 40 c-3 23 -9 65 -13 94 l-7 52 31 0 c29 0 31 -3 37 -42z m-15699 -171 c-6 -31 -11 -35 -66 -52 -33 -10 -60 -21 -60 -24 0 -3 -7 -46 -15 -96 -21 -126 -21 -126 30 -160 38 -25 45 -35 45 -62 0 -17 -4 -34 -8 -37 -4 -2 -94 59 -200 136 -152 111 -192 145 -192 163 0 21 18 29 208 90 114 36 218 70 232 74 32 11 34 9 26 -32z m6276 -268 c79 -17 168 -62 216 -112 l44 -45 -45 -31 -45 -30 -38 36 c-67 63 -113 78 -239 78 -94 0 -116 -3 -151 -22 -104 -56 -154 -133 -154 -238 1 -103 55 -186 156 -236 42 -20 64 -24 149 -24 89 0 106 3 156 28 31 15 76 48 98 72 l42 46 44 -32 44 -32 -20 -28 c-70 -99 -219 -169 -358 -169 -179 0 -326 81 -393 218 -30 60 -33 75 -33 157 0 78 4 98 28 150 78 167 290 258 499 214z m1008 -18 c114 -44 200 -124 237 -223 9 -25 16 -76 16 -123 1 -67 -4 -90 -27 -142 -81 -178 -303 -270 -525 -218 -89 21 -153 59 -217 127 -127 138 -123 350 11 483 49 49 143 99 216 115 72 15 226 5 289 -19z m1016 -6 c49 -14 99 -56 123 -102 18 -35 13 -129 -9 -172 -23 -47 -73 -90 -111 -98 -16 -3 -29 -10 -29 -15 0 -6 41 -74 90 -152 50 -79 90 -146 90 -149 0 -4 -26 -7 -58 -7 l-58 0 -100 155 -99 155 -152 0 -153 0 0 -155 0 -155 -55 0 -55 0 0 355 0 355 263 0 c203 0 275 -3 313 -15z m994 -40 l0 -55 -270 0 -270 0 0 -85 0 -85 180 0 180 0 0 -50 0 -50 -180 0 -180 0 0 -110 0 -110 285 0 285 0 0 -55 0 -55 -342 2 -343 3 -3 353 -2 352 330 0 330 0 0 -55z m6463 13 c2 -18 0 -36 -4 -39 -5 -3 -82 -11 -172 -18 -89 -6 -183 -14 -209 -18 l-48 -6 0 37 c0 27 4 36 18 37 21 1 394 36 403 38 4 0 9 -14 12 -31z m-16009 -148 c123 -78 165 -110 166 -125 0 -18 -33 -33 -227 -107 -126 -47 -229 -85 -231 -83 -2 2 0 19 3 38 7 34 8 35 148 87 218 82 213 62 41 170 -82 52 -150 95 -152 96 -2 1 0 18 4 38 l6 37 38 -23 c21 -13 112 -70 204 -128z m15879 -31 c49 -13 110 -68 136 -122 43 -89 36 -215 -16 -295 -34 -52 -52 -59 -74 -31 -16 21 -15 24 14 65 33 47 45 121 33 189 -9 48 -68 112 -116 126 -174 52 -283 -193 -148 -334 35 -38 36 -40 21 -63 -19 -30 -24 -30 -61 1 -52 44 -82 118 -82 203 0 98 15 145 64 199 61 66 140 87 229 62z m-15880 -298 c43 -17 99 -74 123 -126 40 -85 30 -213 -22 -297 -76 -119 -257 -133 -349 -25 -110 128 -75 364 63 437 40 21 142 27 185 11z m15945 -307 c85 -6 92 -9 92 -28 0 -44 -5 -44 -225 -37 l-210 6 -3 33 -3 32 129 0 c71 0 170 -3 220 -6z m82 -181 c0 -21 -7 -114 -15 -208 -8 -93 -15 -176 -15 -182 0 -8 -13 -13 -31 -13 l-31 0 7 95 c7 86 6 95 -10 95 -35 0 -311 21 -332 26 -18 3 -23 11 -23 36 l0 31 98 -6 c53 -4 138 -10 188 -13 l92 -7 7 92 7 91 29 0 c27 0 29 -3 29 -37z m-15900 -87 c0 -17 -38 -60 -140 -160 -77 -74 -140 -137 -140 -138 0 -2 66 -3 147 -3 l148 0 3 -27 c3 -26 1 -26 -60 -32 -35 -3 -134 -8 -220 -11 -148 -6 -158 -5 -158 12 0 10 64 82 143 161 l142 144 -147 -5 -148 -4 0 33 c0 34 1 34 48 35 52 2 324 14 360 17 17 2 22 -3 22 -22z m9823 -182 c48 -12 168 -64 185 -79 6 -6 -50 -96 -57 -92 -116 64 -227 93 -322 84 -89 -8 -149 -57 -135 -112 12 -46 44 -56 198 -66 173 -10 235 -27 292 -79 128 -118 63 -313 -122 -366 -68 -20 -249 -14 -326 10 -70 22 -186 77 -186 88 0 14 51 90 58 86 112 -59 232 -97 309 -98 147 -1 245 88 202 183 -19 42 -63 59 -183 69 -166 13 -247 27 -281 46 -47 28 -75 77 -75 134 0 92 48 157 142 189 68 23 217 25 301 3z m-4378 -256 c72 -142 132 -258 135 -258 3 0 63 117 132 260 l126 260 61 0 c34 0 61 -2 61 -5 0 -3 -79 -163 -175 -355 -172 -343 -176 -350 -205 -350 -29 0 -33 7 -205 350 -96 192 -175 352 -175 355 0 3 26 5 58 3 l57 -3 130 -257z m1127 -88 c98 -190 177 -348 178 -352 0 -5 -26 -8 -58 -8 l-57 0 -48 90 -48 90 -183 0 -182 0 -44 -90 -44 -90 -58 0 c-32 0 -58 3 -58 7 0 9 340 676 353 691 5 7 24 12 41 10 29 -3 37 -16 208 -348z m398 45 l0 -305 260 0 260 0 0 -50 0 -50 -315 0 -315 0 0 355 0 355 55 0 55 0 0 -305z m2250 250 l0 -55 -275 0 -275 0 0 -85 0 -85 180 0 180 0 0 -55 0 -55 -180 0 -180 0 0 -110 0 -110 290 0 290 0 0 -50 0 -50 -345 0 -345 0 0 355 0 355 330 0 330 0 0 -55z m-1488 -212 c3 -292 8 -311 76 -341 56 -24 273 -23 325 2 65 32 67 43 67 336 l0 260 61 0 60 0 -3 -277 c-3 -275 -3 -278 -28 -323 -51 -91 -118 -115 -325 -115 -119 0 -161 4 -202 18 -61 21 -117 78 -132 134 -7 22 -11 146 -11 301 l0 262 54 0 55 0 3 -257z m8132 75 c-4 -24 -7 -43 -8 -44 -61 -41 -166 -117 -166 -120 0 -3 28 -39 63 -82 60 -73 63 -79 59 -120 -2 -24 -8 -42 -12 -40 -4 2 -47 51 -94 110 -93 116 -81 109 -224 129 l-84 12 6 30 c3 17 7 32 9 33 1 2 51 -4 109 -13 l107 -15 113 80 c62 45 116 81 121 81 4 1 4 -18 1 -41z m-15840 -74 c4 -10 -38 -64 -129 -166 -74 -83 -134 -153 -132 -154 2 -2 61 3 132 11 175 20 165 21 165 -18 l0 -33 -167 -18 c-93 -10 -189 -20 -215 -23 -45 -5 -48 -4 -48 16 0 15 47 75 130 169 71 80 128 147 126 149 -1 2 -63 -4 -137 -12 -74 -8 -140 -15 -146 -15 -8 0 -13 13 -13 34 l0 33 183 20 c232 26 243 27 251 7z m56 -467 l0 -33 -211 -33 c-116 -18 -212 -31 -214 -29 -1 2 -5 17 -8 34 l-6 32 147 22 c81 12 165 26 187 30 22 4 55 8 73 9 30 1 32 -1 32 -32z m94 -1389 c59 -18 136 -98 160 -168 24 -66 24 -160 2 -212 -20 -48 -34 -55 -58 -31 -19 19 -19 22 -2 72 25 77 7 158 -50 219 -52 58 -145 70 -208 27 -103 -70 -82 -261 38 -331 37 -22 44 -30 38 -48 -10 -34 -21 -40 -53 -26 -46 19 -101 78 -130 139 -35 75 -36 185 -3 248 51 97 160 142 266 111z m14730 -342 l68 -125 101 -34 c102 -34 102 -34 100 -66 0 -18 -4 -35 -6 -38 -3 -3 -54 11 -112 30 l-106 36 -126 -60 c-69 -32 -129 -59 -134 -59 -4 0 -1 20 7 44 14 41 19 45 109 87 l95 44 -51 90 c-49 88 -50 91 -38 132 6 24 15 43 18 43 4 0 37 -56 75 -124z m-14518 -171 c74 -43 131 -139 141 -238 20 -192 -163 -320 -327 -231 -114 62 -175 217 -139 349 14 52 92 128 145 143 57 16 129 7 180 -23z m14378 -237 c10 -37 7 -46 -14 -53 -37 -12 -83 -59 -106 -110 -40 -85 -27 -178 31 -223 94 -74 218 -29 265 96 24 63 23 110 -4 163 -9 18 -15 33 -14 34 2 1 14 9 28 18 13 9 27 17 31 17 4 0 17 -23 29 -52 40 -94 14 -219 -65 -306 -74 -82 -173 -104 -271 -58 -89 41 -130 120 -122 235 8 101 67 199 147 241 47 25 57 25 65 -2z m-14145 -224 c11 -25 6 -38 -62 -161 -70 -125 -74 -133 -53 -138 23 -5 267 -45 277 -45 7 0 31 -51 26 -56 -7 -8 -377 -184 -385 -184 -8 0 -32 43 -32 56 0 3 59 34 131 68 73 35 128 65 123 68 -5 3 -63 13 -129 23 -66 10 -123 20 -127 24 -4 3 22 58 57 121 35 62 63 115 61 117 -1 2 -60 -24 -130 -57 -70 -33 -129 -60 -131 -60 -3 0 -12 14 -20 30 l-16 31 193 94 c106 51 196 94 199 94 3 1 11 -11 18 -25z m14204 -454 c25 -22 -14 -40 -199 -90 l-195 -53 130 -69 131 -69 -15 -30 c-9 -16 -18 -29 -20 -29 -3 0 -91 43 -195 95 -182 91 -209 111 -177 132 6 4 98 31 202 59 l190 51 -132 67 c-73 36 -133 69 -133 72 0 3 7 18 16 35 l15 30 187 -97 c103 -53 191 -100 195 -104z m-13878 -176 c93 -163 105 -205 71 -257 -24 -36 -81 -60 -124 -53 -49 7 -83 44 -147 156 -85 148 -68 139 -159 86 -43 -25 -79 -46 -82 -46 -5 0 -36 61 -32 64 38 29 374 213 379 208 4 -4 46 -75 94 -158z m13303 -70 c12 -8 22 -19 22 -24 0 -5 -36 -68 -80 -139 -44 -72 -81 -135 -82 -141 -2 -5 16 -21 38 -35 l41 -25 58 95 57 95 29 -15 c16 -9 29 -18 29 -21 0 -3 -25 -46 -55 -95 -30 -49 -55 -91 -55 -93 0 -2 23 -19 52 -36 61 -38 43 -53 161 138 45 72 84 132 87 132 3 0 16 -9 29 -19 l24 -18 -103 -169 c-56 -93 -108 -175 -115 -183 -11 -11 -44 5 -197 99 -100 62 -184 114 -185 115 -4 2 212 354 217 355 3 0 16 -7 28 -16z m-13070 -306 c7 -7 12 -18 12 -24 0 -7 -52 -108 -116 -224 l-117 -212 -20 32 -20 32 28 57 27 58 -62 92 -61 92 -63 -6 c-62 -7 -63 -7 -85 24 -12 17 -19 31 -14 32 4 0 107 13 228 29 265 34 248 33 263 18z m12827 -94 l25 -16 -50 -72 c-28 -40 -50 -75 -50 -78 0 -4 67 -54 150 -113 l150 -106 -22 -30 c-12 -16 -23 -29 -25 -29 -1 0 -68 47 -149 105 -81 58 -150 105 -153 105 -3 0 -28 -32 -55 -70 -27 -39 -52 -70 -55 -70 -3 0 -16 8 -29 18 l-23 18 126 177 c69 97 128 177 131 177 2 0 16 -7 29 -16z m-12649 -165 c67 -41 143 -171 144 -246 0 -31 -2 -33 -34 -33 -32 0 -34 2 -39 45 -17 120 -129 228 -177 170 -16 -19 -6 -45 51 -133 78 -119 85 -169 33 -231 -70 -83 -191 -48 -274 79 -38 60 -76 171 -66 196 3 8 19 14 35 14 27 0 30 -4 36 -42 18 -106 103 -218 165 -218 17 0 39 9 51 21 29 29 20 68 -36 149 -49 73 -75 128 -75 161 0 11 15 36 34 55 28 28 42 34 76 34 26 0 56 -8 76 -21z m12389 -280 c4 -17 5 -31 3 -33 -1 -1 -23 -11 -47 -21 -95 -41 -168 -152 -128 -192 25 -25 62 -8 119 58 109 126 212 144 275 50 47 -69 22 -159 -70 -250 -60 -60 -167 -119 -178 -99 -24 46 -21 55 36 82 135 67 205 203 125 246 -33 17 -59 3 -145 -80 -44 -43 -91 -83 -104 -90 -35 -18 -86 -4 -115 31 -67 80 0 221 144 303 60 34 77 33 85 -5z m-12119 -65 c70 -33 158 -159 166 -239 3 -27 0 -30 -28 -33 -28 -3 -31 0 -47 51 -32 102 -121 188 -165 161 -35 -22 -26 -57 37 -140 73 -97 91 -151 68 -206 -19 -45 -69 -78 -116 -78 -99 0 -208 111 -252 258 -14 48 -6 62 37 62 17 0 23 -8 29 -37 23 -126 145 -242 210 -199 50 33 43 66 -35 171 -71 95 -84 127 -69 172 21 64 96 90 165 57z m11894 -405 c85 -77 156 -144 157 -147 1 -4 -8 -19 -20 -34 l-22 -27 -95 86 c-52 48 -126 115 -164 150 l-69 64 23 24 c13 14 26 25 29 25 4 0 76 -63 161 -141z m-11729 -76 c-85 -82 -158 -150 -163 -152 -13 -4 -49 30 -46 43 2 6 72 78 156 160 l153 149 27 -26 26 -27 -153 -147z m11478 -18 c1 -16 -9 -23 -42 -32 -108 -29 -209 -158 -150 -192 25 -14 58 3 121 60 96 88 165 109 229 69 61 -37 79 -110 44 -185 -25 -55 -108 -130 -184 -165 -70 -34 -92 -37 -101 -14 -13 34 -6 54 22 60 34 9 111 48 137 71 70 62 88 138 40 169 -22 14 -29 15 -58 3 -17 -7 -50 -30 -72 -50 -118 -107 -168 -122 -230 -68 -31 27 -35 37 -35 79 0 37 7 58 33 96 37 57 122 119 187 138 49 14 58 9 59 -39z m-11186 13 c66 -29 152 -123 172 -190 19 -65 19 -83 -1 -141 -16 -49 -84 -120 -130 -137 -42 -16 -135 -11 -181 10 -57 25 -137 102 -161 153 -65 140 -3 285 137 323 53 15 97 10 164 -18z m325 -290 c5 -7 13 -83 16 -168 4 -85 9 -174 13 -197 l5 -42 74 90 c41 50 83 103 95 117 l20 26 25 -25 25 -26 -133 -166 c-73 -92 -139 -165 -147 -164 -22 3 -28 42 -36 227 -4 94 -11 173 -15 175 -4 3 -45 -41 -91 -98 -45 -56 -85 -105 -88 -109 -4 -4 -19 3 -35 15 l-28 23 93 114 c190 235 187 232 207 208z m10596 -163 c170 -203 173 -197 -61 -166 -92 12 -183 24 -201 27 -33 5 -33 4 61 -108 l95 -113 -21 -22 c-11 -13 -25 -23 -31 -22 -6 0 -74 75 -150 166 -125 150 -137 167 -122 179 18 12 30 12 151 -6 33 -5 85 -12 115 -15 30 -4 76 -10 102 -14 43 -7 47 -6 35 8 -6 9 -50 60 -96 115 l-84 100 28 24 c15 13 31 20 36 15 5 -5 69 -80 143 -168z m-10124 -200 c10 -12 6 -62 -20 -247 -18 -128 -36 -236 -39 -240 -4 -4 -19 3 -34 15 -27 21 -28 23 -19 82 6 33 9 60 8 61 0 0 -40 28 -88 62 -47 34 -91 62 -97 62 -7 0 -34 -11 -61 -25 -48 -24 -51 -25 -75 -9 -14 9 -24 21 -23 26 4 10 407 226 424 227 6 1 17 -6 24 -14z m9611 -26 c95 -20 169 -115 169 -215 0 -140 -146 -274 -298 -274 -238 0 -308 292 -103 435 42 28 131 64 163 65 9 0 40 -5 69 -11z m-9297 -182 c99 -62 237 -144 306 -181 69 -38 149 -82 177 -98 l53 -29 -16 -30 -15 -30 -52 29 c-123 69 -248 134 -251 131 -2 -2 -13 -23 -25 -46 l-21 -42 95 -52 c52 -28 95 -53 95 -56 0 -4 -20 -45 -26 -52 -2 -2 -46 20 -99 49 -53 28 -98 50 -99 48 -15 -21 -56 -99 -56 -107 0 -5 68 -46 150 -91 83 -45 150 -87 150 -94 0 -7 -6 -21 -14 -31 -13 -18 -23 -14 -192 79 -99 54 -183 101 -187 105 -4 5 30 78 77 163 48 85 86 159 86 164 0 5 -32 29 -71 53 -59 37 -73 42 -83 30 -7 -8 -50 -75 -96 -149 -46 -74 -87 -139 -91 -143 -7 -9 -59 20 -59 33 0 4 43 77 96 161 83 130 94 154 81 163 -8 6 -43 28 -76 48 -58 36 -60 39 -49 63 6 14 16 25 21 25 5 0 91 -51 191 -113z m8809 -141 c42 -8 42 -7 23 -45 -14 -26 -18 -27 -69 -23 -179 15 -301 -179 -186 -294 102 -100 293 -25 324 129 5 23 10 27 40 27 29 0 35 -4 35 -21 0 -81 -74 -180 -168 -226 -47 -23 -70 -28 -127 -27 -79 0 -113 14 -162 66 -136 142 -34 377 180 417 44 8 48 8 110 -3z"/>

  <path
        class="nan_element_1"
        d="M11563 17938 c-5 -29 -8 -54 -7 -56 5 -8 262 -42 282 -37 58 14 43 99 -20 110 -75 12 -228 35 -237 35 -5 0 -13 -24 -18 -52z"/>

  <path
        class="nan_element_1"
        d="M12142 17765 l-53 -64 28 -7 c15 -3 44 -10 63 -15 70 -18 70 -18 48 71 -11 44 -23 80 -27 80 -3 0 -30 -29 -59 -65z"/>

  <path
        class="nan_element_1"
        d="M13740 17272 c-78 -39 -106 -150 -57 -223 29 -44 91 -85 149 -101 121 -31 234 77 199 192 -34 113 -188 184 -291 132z"/>

  <path
        class="nan_element_1"
        d="M14723 16602 l-71 -37 59 -43 c32 -24 63 -41 67 -38 5 3 12 25 16 48 4 24 9 58 12 76 4 17 2 32 -2 32 -5 -1 -41 -18 -81 -38z"/>

  <path
        class="nan_element_1"
        d="M17257 14120 c-32 -4 -60 -10 -62 -12 -5 -5 71 -128 79 -128 6 0 86 133 86 143 0 8 -22 7 -103 -3z"/>

  <path
        class="nan_element_1"
        d="M2550 11119 c-30 -10 -61 -21 -69 -24 -8 -3 11 -24 54 -56 37 -28 70 -47 75 -43 4 5 12 39 17 77 11 78 11 77 -77 46z"/>

  <path
        class="nan_element_1"
        d="M9795 10850 c-183 -72 -235 -289 -103 -422 64 -63 119 -82 238 -83 129 0 187 22 254 96 117 130 73 320 -93 401 -66 32 -224 37 -296 8z"/>

  <path
        class="nan_element_1"
        d="M10660 10760 l0 -90 214 0 c212 0 215 0 243 24 22 19 28 32 28 66 0 34 -6 47 -28 66 -28 24 -31 24 -243 24 l-214 0 0 -90z"/>

  <path
        class="nan_element_1"
        d="M2409 10357 c-156 -105 -82 -385 97 -364 137 15 202 214 108 327 -54 64 -142 80 -205 37z"/>

  <path
        class="nan_element_1"
        d="M8993 9386 c-35 -68 -63 -126 -63 -130 0 -3 59 -6 130 -6 72 0 130 3 130 6 0 9 -107 216 -122 237 -11 15 -20 3 -75 -107z"/>

  <path
        class="nan_element_1"
        d="M2889 6987 c-71 -47 -89 -148 -45 -243 32 -69 82 -106 149 -112 57 -4 101 18 140 69 56 76 18 225 -72 286 -47 32 -125 32 -172 0z"/>

  <path
        class="nan_element_1"
        d="M3472 6004 c-24 -14 -42 -29 -40 -33 2 -4 32 -58 68 -120 71 -123 95 -143 136 -116 15 10 24 25 24 42 0 25 -125 253 -138 253 -4 0 -26 -12 -50 -26z"/>

  <path
        class="nan_element_1"
        d="M3686 5509 c-32 -5 -60 -10 -62 -12 -2 -1 15 -31 38 -65 23 -35 45 -59 49 -55 9 9 79 133 79 139 0 5 -34 3 -104 -7z"/>

  <path
        class="nan_element_1"
        d="M4602 4430 c-107 -65 -93 -221 27 -304 57 -40 140 -47 189 -17 116 73 88 251 -50 322 -49 25 -123 25 -166 -1z"/>

  <path
        class="nan_element_1"
        d="M5440 3724 c-35 -18 -68 -38 -72 -42 -7 -7 99 -92 115 -92 6 0 30 160 25 165 -2 2 -32 -12 -68 -31z"/>

  <path
        class="nan_element_1"
        d="M15023 3720 c-72 -41 -108 -97 -108 -166 0 -59 20 -94 75 -131 90 -62 258 19 288 139 36 143 -117 237 -255 158z"/>

</g>
</svg>
