<svg xmlns="http://www.w3.org/2000/svg" width="100%" height="" viewBox="0 0 2058 1972" version="1.1">

 
  <path
      class=""
      d="M 1080.244 245.691 C 1080.110 367.896, 1080.338 468.091, 1080.750 468.346 C 1081.428 468.764, 1081.425 318.730, 1080.744 104 C 1080.603 59.725, 1080.378 123.486, 1080.244 245.691 M 1067.750 876.747 C 1075.037 876.918, 1086.963 876.918, 1094.250 876.747 C 1101.537 876.577, 1095.575 876.437, 1081 876.437 C 1066.425 876.437, 1060.463 876.577, 1067.750 876.747 M 1146.451 911 C 1146.451 930.525, 1146.585 938.513, 1146.748 928.750 C 1146.912 918.988, 1146.912 903.013, 1146.748 893.250 C 1146.585 883.488, 1146.451 891.475, 1146.451 911 M 1075.750 905.746 C 1081.388 905.924, 1090.612 905.924, 1096.250 905.746 C 1101.888 905.568, 1097.275 905.422, 1086 905.422 C 1074.725 905.422, 1070.112 905.568, 1075.750 905.746 M 1172.311 936.748 C 1180.457 936.916, 1193.507 936.916, 1201.311 936.747 C 1209.115 936.579, 1202.450 936.441, 1186.500 936.441 C 1170.550 936.442, 1164.165 936.580, 1172.311 936.748 M 642.389 978.500 C 642.390 985.650, 642.550 988.444, 642.742 984.708 C 642.935 980.973, 642.934 975.123, 642.739 971.708 C 642.545 968.294, 642.387 971.350, 642.389 978.500 M 257.500 999 C 250.917 1005.600, 245.756 1011, 246.031 1011 C 246.306 1011, 251.917 1005.600, 258.500 999 C 265.083 992.400, 270.244 987, 269.969 987 C 269.694 987, 264.083 992.400, 257.500 999 M 1101.436 1029.500 C 1101.436 1043.800, 1101.577 1049.511, 1101.748 1042.191 C 1101.919 1034.871, 1101.918 1023.171, 1101.747 1016.191 C 1101.575 1009.211, 1101.435 1015.200, 1101.436 1029.500 M 1146.199 1031.744 C 1150.984 1031.927, 1159.084 1031.928, 1164.199 1031.746 C 1169.315 1031.564, 1165.400 1031.414, 1155.500 1031.413 C 1145.600 1031.412, 1141.415 1031.561, 1146.199 1031.744 M 1146.199 1041.744 C 1150.984 1041.927, 1159.084 1041.928, 1164.199 1041.746 C 1169.315 1041.564, 1165.400 1041.414, 1155.500 1041.413 C 1145.600 1041.412, 1141.415 1041.561, 1146.199 1041.744 M 983.634 1426.713 L 984.325 1489.076 980.412 1488.527 C 978.261 1488.225, 970.875 1487.280, 964 1486.427 C 931.669 1482.415, 889.805 1472.453, 860.824 1461.876 C 856.378 1460.254, 852.639 1459.055, 852.514 1459.213 C 851.676 1460.277, 743.002 1688.961, 743.011 1689.642 C 743.028 1690.900, 775.318 1704.690, 799 1713.552 C 809.175 1717.360, 812 1720.287, 812 1727.023 C 812 1731.577, 811.591 1732.609, 808.600 1735.600 C 805.993 1738.207, 804.361 1739, 801.600 1739 C 797.261 1739, 797.185 1739.593, 799.925 1752 C 800.958 1756.675, 801.671 1760.639, 801.509 1760.809 C 801.348 1760.978, 799.705 1760.485, 797.858 1759.713 C 794.588 1758.344, 794.439 1758.022, 792.160 1747.355 L 789.819 1736.401 781.701 1733.451 C 777.236 1731.828, 773.284 1730.369, 772.919 1730.209 C 772.554 1730.049, 770.767 1733.935, 768.948 1738.845 L 765.640 1747.771 762.570 1746.737 C 760.882 1746.168, 759.373 1745.605, 759.218 1745.486 C 759.062 1745.366, 761.023 1739.696, 763.576 1732.884 C 766.128 1726.073, 769.048 1718.123, 770.065 1715.218 L 771.914 1709.937 766.333 1707.468 C 763.263 1706.111, 760.459 1705, 760.102 1705 C 759.744 1705, 756.140 1712.616, 752.092 1721.924 C 744.839 1738.600, 744.694 1738.834, 742.222 1737.894 C 740.841 1737.369, 739.374 1736.731, 738.961 1736.476 C 738.548 1736.221, 741.581 1728.328, 745.701 1718.935 C 749.821 1709.543, 753.036 1701.749, 752.846 1701.616 C 751.566 1700.718, 739.789 1695.886, 739.549 1696.160 C 738.606 1697.235, 662 1858.751, 662 1859.664 C 662 1862.091, 717.410 1882.579, 753.337 1893.435 C 820.882 1913.845, 887.891 1926.174, 964 1932.195 C 989.948 1934.247, 1078.988 1933.927, 1105 1931.687 C 1192.154 1924.182, 1264.101 1909.355, 1341.605 1882.927 C 1361.252 1876.228, 1405 1859.203, 1405 1858.256 C 1405 1857.673, 1211.100 1459.782, 1210.536 1459.208 C 1210.378 1459.047, 1202.205 1461.581, 1192.374 1464.839 C 1172.310 1471.489, 1148.886 1477.654, 1129.500 1481.387 C 1115.332 1484.116, 1091.157 1487.723, 1084 1488.176 L 1079.500 1488.461 1079.242 1426.410 L 1078.985 1364.359 1072.242 1365.362 C 1063.539 1366.656, 998.584 1366.641, 989.721 1365.343 L 982.943 1364.351 983.634 1426.713 M 1295.220 1698.102 C 1290.805 1699.500, 1287.613 1701.363, 1284.470 1704.374 C 1280.406 1708.269, 1280 1709.088, 1280 1713.406 C 1280 1717.320, 1280.513 1718.667, 1282.923 1721.077 C 1286.748 1724.902, 1290.891 1724.881, 1301.952 1720.980 C 1311.705 1717.541, 1316.002 1717.239, 1318.345 1719.829 C 1325.040 1727.227, 1312.503 1737, 1296.318 1737 L 1290 1737 1290 1739.955 C 1290 1742.497, 1290.454 1742.994, 1293.250 1743.516 C 1301.713 1745.097, 1318.505 1739.754, 1323.415 1733.918 C 1328.562 1727.802, 1328.549 1719.267, 1323.387 1714.482 C 1318.696 1710.135, 1312.860 1710.350, 1298.611 1715.394 C 1291.070 1718.064, 1287.714 1717.711, 1287.187 1714.193 C 1286.307 1708.311, 1293.581 1703.889, 1305.500 1703.058 L 1313.500 1702.500 1313.813 1699.250 L 1314.127 1696 1307.813 1696.056 C 1304.341 1696.087, 1298.674 1697.008, 1295.220 1698.102 M 1259.972 1712.359 C 1253.145 1713.829, 1245.890 1717.969, 1244.021 1721.460 C 1242.696 1723.937, 1242.556 1723.978, 1241.558 1722.184 C 1240.545 1720.363, 1239.674 1720.523, 1221.259 1725.891 C 1210.676 1728.976, 1202.013 1731.970, 1202.009 1732.544 C 1201.997 1733.913, 1213.003 1771.165, 1213.849 1772.621 C 1214.296 1773.391, 1220.859 1771.851, 1234.822 1767.701 C 1252.551 1762.431, 1255.083 1761.427, 1254.666 1759.830 C 1254.237 1758.191, 1254.888 1758, 1260.912 1758 C 1281.151 1758, 1294.731 1744.800, 1286.720 1732.912 C 1282.288 1726.336, 1277.149 1725.564, 1264 1729.500 C 1252.114 1733.058, 1249 1732.619, 1249 1727.389 C 1249 1722.083, 1260.112 1717.347, 1270.533 1718.211 C 1276.118 1718.674, 1277 1718.107, 1277 1714.054 C 1277 1712.692, 1275.907 1712.122, 1272.360 1711.636 C 1266.785 1710.872, 1266.907 1710.865, 1259.972 1712.359 M 776.693 1717.750 C 775.756 1720.362, 774.992 1722.805, 774.995 1723.178 C 775 1723.858, 780.565 1726.125, 793.358 1730.658 C 799.710 1732.909, 800.392 1732.973, 802.608 1731.521 C 805.812 1729.422, 805.872 1724.618, 802.720 1722.552 C 801.039 1721.451, 779.662 1713, 778.556 1713 C 778.468 1713, 777.629 1715.138, 776.693 1717.750 M 815.540 1721.225 C 811.269 1734.322, 807 1750.851, 807 1754.298 C 807 1757.219, 807.683 1759.599, 809.004 1761.278 C 812.863 1766.184, 826.043 1770.966, 835.765 1770.988 C 840.341 1770.998, 841.478 1770.575, 844.465 1767.750 C 847.423 1764.951, 848.531 1762.398, 852.450 1749.347 C 854.952 1741.013, 857 1733.744, 857 1733.195 C 857 1731.994, 851.216 1729.825, 850.641 1730.810 C 850.419 1731.189, 848.549 1737.350, 846.487 1744.500 C 842.104 1759.691, 840.735 1762.708, 837.568 1764.151 C 832.703 1766.368, 816.905 1761.080, 814.837 1756.542 C 813.483 1753.570, 814.022 1750.804, 819.376 1733.249 C 821.263 1727.061, 822.513 1721.836, 822.153 1721.638 C 819.796 1720.335, 815.910 1720.093, 815.540 1721.225 M 1230.500 1730.025 C 1225.550 1731.585, 1218.941 1733.590, 1215.814 1734.483 L 1210.127 1736.105 1211.495 1740.651 C 1212.248 1743.151, 1213.077 1745.410, 1213.337 1745.671 C 1213.598 1745.931, 1218.429 1744.763, 1224.074 1743.074 C 1229.719 1741.385, 1234.482 1740.148, 1234.658 1740.325 C 1234.835 1740.501, 1235.241 1741.963, 1235.562 1743.573 C 1236.142 1746.487, 1236.109 1746.510, 1227.822 1748.873 C 1213.975 1752.822, 1214.936 1752.016, 1216.706 1758.190 C 1217.543 1761.111, 1218.586 1763.887, 1219.025 1764.361 C 1219.463 1764.834, 1226.460 1763.282, 1234.573 1760.911 C 1248.003 1756.985, 1249.418 1756.353, 1250.361 1753.856 C 1251.371 1751.180, 1251.547 1751.126, 1257.506 1751.683 C 1272.392 1753.073, 1286.256 1743.478, 1280.189 1735.985 C 1277.781 1733.011, 1274.105 1732.990, 1264.352 1735.895 C 1260.465 1737.053, 1255.010 1738, 1252.231 1738 C 1247.816 1738, 1246.851 1737.611, 1244.589 1734.923 C 1243.165 1733.231, 1242 1730.756, 1242 1729.423 C 1242 1726.472, 1241.737 1726.485, 1230.500 1730.025 M 1193.749 1733.689 C 1192.396 1734.043, 1192.154 1734.754, 1192.683 1736.823 C 1194.934 1745.624, 1198.685 1762.552, 1198.447 1762.834 C 1198.292 1763.017, 1190.721 1757.962, 1181.622 1751.600 C 1166.157 1740.787, 1161.907 1738.781, 1162.044 1742.357 C 1162.067 1742.986, 1164.216 1752.500, 1166.817 1763.500 C 1171.467 1783.158, 1171.590 1783.494, 1174.024 1783.164 C 1175.386 1782.978, 1176.862 1782.482, 1177.304 1782.059 C 1177.747 1781.637, 1176.734 1775.343, 1175.054 1768.074 C 1173.374 1760.804, 1172 1754.455, 1172 1753.966 C 1172 1753.476, 1179.452 1758.256, 1188.560 1764.586 C 1199.848 1772.433, 1205.689 1775.916, 1206.907 1775.530 C 1208.746 1774.946, 1208.547 1773.866, 1199.490 1735.250 C 1198.975 1733.056, 1197.602 1732.683, 1193.749 1733.689 M 861.500 1736.097 C 857.707 1738.304, 856.045 1741.356, 856.022 1746.161 C 856.003 1750.140, 856.445 1751.197, 859.041 1753.381 C 860.743 1754.813, 866.395 1757.270, 871.879 1758.963 C 877.269 1760.626, 882.425 1762.812, 883.339 1763.822 C 885.614 1766.336, 885.424 1770.527, 882.931 1772.850 C 877.574 1777.841, 867.477 1775.827, 856.731 1767.625 L 852.196 1764.163 849.993 1766.507 C 848.782 1767.797, 848.062 1769.291, 848.393 1769.828 C 849.750 1772.022, 860.009 1777.982, 865.772 1779.923 C 880.837 1784.998, 892 1780.276, 892 1768.830 C 892 1760.371, 887.859 1756.773, 873.564 1752.812 C 866.003 1750.718, 863 1748.757, 863 1745.916 C 863 1742.920, 865.859 1741, 870.321 1741.001 C 875.064 1741.002, 885.424 1745.509, 888.419 1748.875 C 890.334 1751.026, 890.343 1751.027, 892.447 1749.050 C 894.389 1747.225, 895.090 1747.156, 901.278 1748.182 C 904.975 1748.794, 908 1749.792, 907.999 1750.398 C 907.999 1751.004, 906.649 1759.150, 905 1768.500 C 903.351 1777.850, 902.001 1785.838, 902.001 1786.250 C 902 1786.662, 903.518 1787, 905.373 1787 L 908.746 1787 910.404 1777.750 C 911.315 1772.662, 912.778 1764.514, 913.654 1759.642 L 915.247 1750.784 919.336 1751.438 C 921.585 1751.797, 923.531 1752.198, 923.662 1752.328 C 923.792 1752.458, 925.834 1761.325, 928.199 1772.032 C 932.394 1791.018, 932.565 1791.508, 935.120 1791.804 C 937.332 1792.060, 937.979 1791.515, 939.273 1788.304 C 941.559 1782.635, 952.270 1760.936, 952.613 1761.280 C 952.776 1761.443, 954.578 1769.097, 956.617 1778.288 C 960.245 1794.647, 960.378 1795, 962.912 1794.996 C 965.235 1794.993, 966.012 1793.867, 970.500 1784.002 L 975.500 1773.011 976.154 1777.255 C 977.581 1786.517, 982.037 1792.460, 990.243 1796.044 C 996.728 1798.877, 1009.384 1799.195, 1015.129 1796.670 C 1022.432 1793.459, 1027.384 1787.693, 1029.015 1780.500 C 1029.498 1778.370, 1029.922 1780.473, 1030.476 1787.750 L 1031.258 1798 1034.649 1798 L 1038.040 1798 1037.373 1788.500 L 1036.705 1779 1039.602 1778.993 C 1041.196 1778.989, 1045.428 1778.709, 1049.006 1778.371 L 1055.512 1777.756 1062.285 1787.378 C 1068.630 1796.391, 1069.278 1797, 1072.529 1797 C 1074.438 1797, 1076 1796.758, 1076 1796.462 C 1076 1796.166, 1073.342 1791.970, 1070.093 1787.139 L 1064.187 1778.354 1067.671 1776.478 C 1072.362 1773.952, 1074.339 1769.882, 1073.767 1763.930 L 1073.312 1759.191 1078.740 1758.513 C 1081.726 1758.140, 1084.341 1758.008, 1084.553 1758.219 C 1084.910 1758.577, 1088 1790.217, 1088 1793.516 C 1088 1794.545, 1089.073 1795, 1091.500 1795 C 1093.640 1795, 1094.995 1794.514, 1094.988 1793.750 C 1094.982 1793.063, 1094.308 1785.300, 1093.492 1776.500 C 1092.676 1767.700, 1092.006 1759.767, 1092.004 1758.870 C 1092.001 1757.588, 1093.334 1757.138, 1098.250 1756.760 C 1101.688 1756.496, 1104.698 1756.452, 1104.941 1756.664 C 1105.183 1756.875, 1106.552 1765.025, 1107.982 1774.774 C 1110.444 1791.562, 1110.703 1792.517, 1112.864 1792.829 C 1117.505 1793.499, 1117.781 1792.834, 1116.391 1784.344 C 1114.246 1771.252, 1112.897 1772.687, 1129.687 1770.209 C 1137.765 1769.016, 1144.505 1768.172, 1144.665 1768.331 C 1144.824 1768.491, 1145.568 1772.759, 1146.316 1777.816 C 1147.065 1782.873, 1147.943 1787.276, 1148.267 1787.601 C 1148.592 1787.925, 1150.163 1787.903, 1151.760 1787.553 L 1154.663 1786.915 1151.549 1765.708 L 1148.434 1744.500 1145.467 1744.500 C 1142.664 1744.500, 1142.503 1744.721, 1142.548 1748.500 C 1142.574 1750.700, 1142.799 1754.525, 1143.048 1757 L 1143.500 1761.500 1129.050 1763.717 C 1121.103 1764.936, 1114.380 1765.714, 1114.111 1765.444 C 1113.842 1765.175, 1113.129 1761.477, 1112.527 1757.227 L 1111.434 1749.500 1108.467 1749.717 C 1106.835 1749.836, 1095.442 1750.849, 1083.148 1751.967 C 1070.854 1753.085, 1054.353 1754, 1046.480 1754 C 1038.606 1754, 1031.564 1754.229, 1030.832 1754.508 C 1029.836 1754.889, 1029.547 1757.348, 1029.687 1764.258 C 1029.817 1770.692, 1029.627 1772.508, 1029.060 1770.236 C 1027.762 1765.028, 1023.408 1759.324, 1018.565 1756.485 C 1009.327 1751.072, 994.239 1751.339, 986.114 1757.062 C 982.784 1759.407, 981.909 1759.711, 982.478 1758.325 C 984.497 1753.406, 984.373 1752.999, 980.867 1753.034 C 977.517 1753.067, 977.468 1753.138, 971.110 1767.034 C 967.596 1774.715, 964.411 1781, 964.033 1781 C 963.655 1781, 961.840 1774.025, 960 1765.500 L 956.654 1750 953.577 1750.005 C 950.599 1750.009, 950.276 1750.481, 943.544 1764.636 C 939.718 1772.680, 936.442 1778.827, 936.265 1778.294 C 936.087 1777.762, 934.860 1772.218, 933.538 1765.974 C 931.400 1755.880, 931.303 1754.499, 932.662 1753.505 C 933.526 1752.873, 934.040 1751.326, 933.845 1749.944 C 933.511 1747.578, 932.826 1747.383, 912.500 1743.847 C 900.950 1741.838, 891.368 1740.547, 891.207 1740.977 C 891.045 1741.408, 888.362 1740.379, 885.244 1738.690 C 880.530 1736.137, 878.219 1735.561, 871.537 1735.276 C 866.617 1735.067, 862.724 1735.385, 861.500 1736.097 M 1152.419 1742.584 C 1151.691 1742.900, 1152.595 1749.671, 1155.179 1763.277 C 1157.292 1774.400, 1159.200 1783.991, 1159.418 1784.590 C 1159.640 1785.200, 1161.179 1785.481, 1162.907 1785.227 C 1166.795 1784.656, 1166.815 1785.297, 1162.172 1761.500 C 1158.580 1743.088, 1158.388 1742.494, 1155.982 1742.307 C 1154.617 1742.201, 1153.013 1742.326, 1152.419 1742.584 M 994.500 1760.202 C 992.850 1760.776, 990.046 1762.620, 988.269 1764.301 C 976.898 1775.052, 985.903 1791.956, 1003 1791.956 C 1020.046 1791.956, 1028.626 1775.692, 1017.467 1764.533 C 1012.323 1759.389, 1002.279 1757.495, 994.500 1760.202 M 1039.250 1760.706 C 1037.246 1761.092, 1037 1761.733, 1037 1766.570 L 1037 1772 1048.435 1772 C 1063.231 1772, 1066.947 1770.659, 1066.985 1765.307 C 1067.013 1761.187, 1063.542 1759.987, 1052.027 1760.136 C 1046.237 1760.211, 1040.487 1760.467, 1039.250 1760.706" stroke="none" fill="#e8a733" fill-rule="evenodd"/>
  
  <path
      class=""
      d="M 967.500 24.674 C 935.969 27.334, 924.578 28.464, 908.500 30.531 C 714.756 55.433, 535.218 138.328, 389 270.391 C 360.760 295.897, 313.864 344.295, 315.682 346.057 C 316.132 346.493, 394.295 408.731, 489.378 484.364 L 662.256 621.878 676.878 608.183 C 705.375 581.493, 738.336 556.070, 763.193 541.608 L 767.885 538.877 769.604 542.189 C 770.549 544.010, 782.501 568.654, 796.165 596.953 C 809.828 625.253, 821.405 648.805, 821.891 649.291 C 822.404 649.804, 826.921 647.673, 832.638 644.219 C 851.498 632.828, 882.484 618.313, 901.250 612.079 C 904.962 610.846, 908 609.727, 908 609.592 C 908 609.457, 895.850 584.207, 881 553.482 C 866.150 522.756, 854 497.504, 854 497.367 C 854 496.733, 888.955 485.771, 901 482.629 C 924.716 476.442, 950.909 471.714, 979.250 468.507 L 985 467.856 985 245.928 L 985 24 978.250 24.168 C 974.538 24.261, 969.700 24.488, 967.500 24.674 M 903.500 173.194 C 893.600 174.837, 885.369 176.309, 885.209 176.465 C 884.839 176.826, 891.705 219.038, 892.217 219.550 C 892.427 219.760, 901.801 218.378, 913.049 216.479 C 924.297 214.580, 933.846 213.020, 934.269 213.013 C 934.939 213.002, 934.307 208.568, 933.398 206.905 C 933.130 206.413, 913.610 209.193, 901.361 211.466 L 898.222 212.049 897.129 205.840 C 896.527 202.426, 896.201 199.466, 896.404 199.263 C 896.607 199.060, 901.437 198.117, 907.137 197.168 C 916.005 195.691, 917.537 195.157, 917.756 193.471 C 918.349 188.902, 916.954 188.535, 905.951 190.362 C 900.328 191.296, 895.564 191.897, 895.365 191.698 C 895.165 191.499, 894.617 189.272, 894.145 186.749 L 893.289 182.163 898.894 181.178 C 901.977 180.637, 909.591 179.384, 915.813 178.393 C 926.332 176.719, 927.088 176.449, 926.577 174.546 C 926.275 173.421, 926.021 171.938, 926.014 171.250 C 925.995 169.583, 924.467 169.715, 903.500 173.194 M 849.718 183.092 C 837.213 186.036, 828.979 195.433, 829.022 206.710 C 829.074 220.334, 838.489 229.343, 852.611 229.280 C 864.231 229.229, 874.633 223.560, 879.072 214.860 L 881.074 210.935 877.879 209.591 C 874.695 208.252, 874.673 208.264, 871.592 212.874 C 867.642 218.784, 860.966 222.286, 853.650 222.286 C 837.452 222.286, 830.176 204.853, 842.111 194.637 C 848.839 188.878, 860.474 187.466, 866.845 191.636 C 869.019 193.059, 869.365 193.006, 871.593 190.912 C 873.850 188.793, 873.895 188.542, 872.335 186.817 C 868.830 182.945, 857.952 181.153, 849.718 183.092 M 807.750 195.689 C 806.788 195.941, 806 196.695, 806 197.365 C 806 198.035, 807.997 204.536, 810.437 211.812 C 812.877 219.087, 814.565 224.862, 814.187 224.644 C 785.870 208.321, 778.099 204.568, 776.313 206.354 C 775.559 207.108, 789.404 247.195, 790.578 247.657 C 791.170 247.891, 792.833 247.634, 794.273 247.086 L 796.891 246.091 792.438 232.816 C 789.990 225.515, 788.102 219.248, 788.243 218.888 C 788.384 218.528, 795.925 222.442, 805 227.586 C 820.695 236.481, 826 238.544, 826 235.751 C 826 235.063, 823.038 225.613, 819.417 214.751 C 812.607 194.320, 812.660 194.406, 807.750 195.689 M 744.500 218.936 C 732.154 224.249, 726.593 227.125, 726.797 228.091 C 727.288 230.423, 742.124 265.431, 743.022 266.377 C 743.698 267.090, 777.543 253.755, 781.914 251.053 C 782.830 250.487, 782.825 249.710, 781.891 247.659 C 781.224 246.197, 780.280 245, 779.792 245 C 779.304 245, 771.899 247.949, 763.338 251.552 C 754.776 255.156, 747.613 257.946, 747.419 257.753 C 747.226 257.559, 745.951 254.876, 744.586 251.791 L 742.106 246.182 751.646 242.341 C 756.894 240.228, 761.429 237.909, 761.725 237.186 C 762.021 236.464, 761.778 234.808, 761.185 233.507 L 760.108 231.142 749.848 235.469 L 739.588 239.797 737.794 235.789 C 736.807 233.585, 736 231.430, 736 231.001 C 736 230.571, 740.612 228.294, 746.250 225.940 C 768.694 216.570, 767.043 217.575, 765.724 214.080 C 765.085 212.386, 764.098 211.043, 763.531 211.095 C 762.964 211.147, 754.400 214.676, 744.500 218.936 M 685.750 246.572 C 684.237 247.393, 683 248.310, 683 248.610 C 683 249.151, 701.972 286.077, 702.701 286.957 C 703.128 287.471, 736.932 270.875, 737.598 269.825 C 738.241 268.809, 735.827 264, 734.674 264 C 734.121 264, 727.606 267.189, 720.197 271.087 C 709.723 276.597, 706.535 277.876, 705.869 276.837 C 705.398 276.102, 701.522 268.642, 697.256 260.261 C 692.990 251.879, 689.275 245.035, 689 245.051 C 688.725 245.067, 687.263 245.751, 685.750 246.572 M 644.118 270.876 C 642.808 271.884, 641.908 273.154, 642.118 273.700 C 643.134 276.338, 663.589 309.953, 664.192 309.975 C 665.046 310.006, 695.029 292.147, 696.726 290.597 C 697.687 289.718, 697.577 288.904, 696.214 286.826 L 694.475 284.175 681.487 292.054 C 674.344 296.387, 667.992 299.948, 667.370 299.966 C 666.749 299.985, 662.082 293.025, 657 284.500 C 651.918 275.975, 647.476 269.010, 647.130 269.022 C 646.783 269.034, 645.428 269.869, 644.118 270.876 M 615 290.128 C 606.475 296.181, 598.887 301.488, 598.137 301.920 C 597.113 302.511, 599.933 307.217, 609.500 320.882 C 618.116 333.190, 622.592 338.780, 623.362 338.195 C 623.988 337.720, 631.813 332.251, 640.750 326.042 C 649.688 319.833, 656.986 314.246, 656.968 313.627 C 656.932 312.330, 654.569 309, 653.686 309 C 653.360 309, 646.679 313.504, 638.840 319.008 L 624.588 329.016 622.374 326.258 C 621.156 324.741, 619.442 322.294, 618.565 320.819 L 616.969 318.139 625.945 311.929 C 635.235 305.502, 635.161 305.631, 632.145 301.122 C 631.417 300.033, 629.411 301.031, 622.600 305.872 C 617.858 309.242, 613.592 312, 613.122 312 C 612.651 312, 611.106 310.247, 609.688 308.104 L 607.109 304.208 621.032 294.477 L 634.956 284.746 632.910 281.873 C 631.784 280.293, 630.782 279.027, 630.682 279.061 C 630.582 279.094, 623.525 284.075, 615 290.128 M 580.500 317.938 C 572.425 319.913, 563.738 326.775, 559.779 334.306 C 556.412 340.711, 556.635 350.029, 560.305 356.272 C 564.174 362.854, 569.627 366.273, 577.118 366.815 C 584.816 367.372, 590.533 365.705, 596.567 361.144 C 603.398 355.982, 607.274 349.355, 607.812 341.923 L 608.240 336 604.620 336 C 601.107 336, 600.999 336.111, 600.978 339.750 C 600.913 350.925, 589.890 360.820, 578.704 359.746 C 570.375 358.945, 564.833 352.853, 564.833 344.495 C 564.833 339.155, 568.466 332.228, 572.938 329.044 C 576.964 326.177, 583.850 323.874, 587.373 324.216 C 589.818 324.453, 590.462 324.027, 591.273 321.634 C 592.007 319.468, 591.909 318.557, 590.872 317.900 C 589.266 316.883, 584.748 316.899, 580.500 317.938 M 540.600 348.896 L 537.735 351.886 538.461 363.086 C 539.092 372.825, 538.991 374.211, 537.687 373.710 C 536.862 373.393, 531.853 372.816, 526.556 372.427 C 517.377 371.754, 516.811 371.829, 514.463 374.035 C 513.108 375.307, 512 376.662, 512 377.045 C 512 377.428, 517.063 378.270, 523.250 378.916 C 541.721 380.845, 539.706 379.217, 540.453 392.809 C 540.806 399.239, 541.323 405.574, 541.601 406.886 L 542.106 409.272 545.059 406.443 L 548.012 403.614 547.356 392.807 L 546.699 382 550.600 382.033 C 552.745 382.051, 557.650 382.473, 561.500 382.971 C 568.269 383.848, 568.591 383.791, 571.250 381.252 C 572.763 379.807, 574 378.316, 574 377.938 C 574 377.559, 568.175 376.673, 561.054 375.967 C 553.934 375.262, 547.648 374.401, 547.085 374.053 C 546.522 373.704, 545.750 368.263, 545.371 361.960 C 544.991 355.657, 544.407 349.466, 544.073 348.203 L 543.465 345.906 540.600 348.896 M 493.566 396.927 C 486.016 405.225, 479.987 412.388, 480.169 412.846 C 480.351 413.303, 487.675 420.127, 496.443 428.010 L 512.387 442.343 516.443 437.786 C 518.675 435.280, 525.170 427.989, 530.878 421.585 C 540.987 410.243, 541.210 409.889, 539.473 407.970 C 538.492 406.887, 537.187 406, 536.573 406 C 535.638 406, 525.932 416.329, 514.893 429.073 L 512.285 432.083 507.396 427.657 L 502.507 423.230 509.880 415.065 L 517.254 406.899 514.877 404.366 L 512.500 401.833 504.883 410.131 L 497.265 418.429 493.705 415.464 C 491.747 413.834, 490.112 412.259, 490.072 411.964 C 490.032 411.669, 495.010 405.890, 501.134 399.121 L 512.268 386.814 509.781 384.327 L 507.295 381.840 493.566 396.927 M 1075.250 886.746 C 1080.612 886.925, 1089.388 886.925, 1094.750 886.746 C 1100.112 886.566, 1095.725 886.419, 1085 886.419 C 1074.275 886.419, 1069.888 886.566, 1075.250 886.746 M 1157.422 887.344 C 1157.138 888.083, 1157.063 892.020, 1157.254 896.094 L 1157.603 903.500 1157.801 895.266 L 1158 887.032 1185.250 886.749 L 1212.500 886.466 1185.219 886.233 C 1163.140 886.044, 1157.839 886.256, 1157.422 887.344 M 1157.374 925.500 C 1157.376 931.550, 1157.541 933.896, 1157.740 930.713 C 1157.939 927.531, 1157.937 922.581, 1157.736 919.713 C 1157.535 916.846, 1157.372 919.450, 1157.374 925.500 M 1163.750 946.748 C 1173.237 946.913, 1188.763 946.913, 1198.250 946.748 C 1207.737 946.584, 1199.975 946.450, 1181 946.450 C 1162.025 946.450, 1154.263 946.584, 1163.750 946.748 M 1816.667 957.667 C 1815.735 958.598, 1815.831 963.778, 1816.791 964.371 C 1817.226 964.640, 1817.404 963.336, 1817.187 961.474 L 1816.791 958.088 1824.646 957.745 L 1832.500 957.402 1824.917 957.201 C 1820.746 957.091, 1817.033 957.300, 1816.667 957.667 M 518.382 978.500 C 518.384 985.100, 518.546 987.670, 518.741 984.211 C 518.937 980.752, 518.936 975.352, 518.738 972.211 C 518.540 969.070, 518.380 971.900, 518.382 978.500 M 1142.250 1003.748 C 1151.463 1003.913, 1166.537 1003.913, 1175.750 1003.748 C 1184.963 1003.583, 1177.425 1003.448, 1159 1003.448 C 1140.575 1003.448, 1133.037 1003.583, 1142.250 1003.748 M 1090.432 1028 C 1090.432 1041.475, 1090.574 1046.987, 1090.747 1040.250 C 1090.920 1033.513, 1090.920 1022.487, 1090.747 1015.750 C 1090.574 1009.013, 1090.432 1014.525, 1090.432 1028 M 1516.136 1144.271 C 1510.774 1160.669, 1500.247 1185.757, 1490.443 1205.500 C 1479.534 1227.472, 1462.091 1257.500, 1460.237 1257.500 C 1459.643 1257.500, 1437.741 1240.625, 1411.567 1220 C 1385.392 1199.375, 1363.573 1182.500, 1363.081 1182.500 C 1362.588 1182.500, 1359.380 1186.775, 1355.951 1192 C 1343.356 1211.195, 1331.162 1226.609, 1313.769 1245.320 C 1305.322 1254.408, 1303.935 1256.347, 1305.106 1257.431 C 1305.873 1258.141, 1326.975 1274.806, 1352 1294.466 C 1377.025 1314.125, 1398.316 1330.991, 1399.312 1331.945 C 1401.049 1333.608, 1400.613 1334.170, 1388.812 1345.483 C 1360.028 1373.077, 1336.170 1391.676, 1297.715 1416.500 C 1296.403 1417.347, 1310.966 1447.819, 1393.058 1616 C 1446.348 1725.175, 1490.129 1814.950, 1490.349 1815.500 C 1490.833 1816.709, 1500.426 1811.676, 1520.500 1799.682 C 1573.107 1768.251, 1623.069 1731.423, 1670.500 1689.113 C 1688.132 1673.385, 1726.683 1634.735, 1742.427 1617 C 1828.857 1519.647, 1890.878 1414.962, 1933.468 1294.545 C 1939.320 1277.999, 1952 1236.990, 1952 1234.608 C 1952 1233.861, 1950.763 1232.998, 1949.250 1232.690 C 1942.999 1231.415, 1521.378 1137.915, 1520 1137.497 C 1518.893 1137.162, 1517.881 1138.934, 1516.136 1144.271 M 1751.137 1241.372 C 1750.067 1245.621, 1750.176 1245.993, 1755.038 1254.622 L 1760.040 1263.500 1750.563 1267.898 C 1741.515 1272.098, 1741.020 1272.493, 1739.604 1276.648 C 1738.789 1279.042, 1738.346 1281, 1738.622 1281 C 1738.897 1281, 1744.955 1278.333, 1752.084 1275.074 L 1765.046 1269.148 1775.273 1272.592 C 1784.900 1275.834, 1785.576 1275.933, 1786.788 1274.275 C 1789.677 1270.325, 1788.029 1268.773, 1777.500 1265.525 L 1767.500 1262.440 1760.512 1249.720 C 1756.668 1242.724, 1753.234 1237, 1752.880 1237 C 1752.527 1237, 1751.742 1238.967, 1751.137 1241.372 M 1738.827 1290.895 C 1727.070 1298.351, 1721.646 1315.009, 1727.077 1326.982 C 1729.821 1333.032, 1731.620 1334.870, 1737.500 1337.632 C 1750.116 1343.558, 1763.784 1337.517, 1770.326 1323.122 C 1773.131 1316.952, 1773.259 1306.137, 1770.598 1300.225 C 1769.552 1297.901, 1768.524 1296, 1768.313 1296 C 1768.102 1296, 1766.708 1296.764, 1765.215 1297.697 C 1763.722 1298.631, 1762.386 1299.458, 1762.246 1299.535 C 1762.106 1299.612, 1762.781 1301.211, 1763.746 1303.088 C 1766.194 1307.849, 1765.957 1316.381, 1763.231 1321.624 C 1754.384 1338.645, 1731.967 1334.450, 1732.010 1315.782 C 1732.028 1307.865, 1738.656 1297.514, 1744.995 1295.502 C 1747.110 1294.830, 1747.351 1293.910, 1746.370 1290.250 C 1745.580 1287.303, 1744.321 1287.410, 1738.827 1290.895 M 1712.549 1340.905 C 1711.697 1342.552, 1711 1344.145, 1711 1344.443 C 1711 1344.742, 1716.963 1347.984, 1724.250 1351.648 L 1737.500 1358.311 1724.500 1361.712 C 1703.858 1367.111, 1697.537 1369.300, 1697.192 1371.168 C 1696.960 1372.431, 1701.500 1375.163, 1715.889 1382.418 C 1726.342 1387.688, 1735.131 1392, 1735.421 1392 C 1735.711 1392, 1736.631 1390.680, 1737.465 1389.067 L 1738.982 1386.135 1726.030 1379.325 C 1716.267 1374.192, 1713.532 1372.347, 1714.922 1371.833 C 1715.936 1371.458, 1724.673 1369.021, 1734.337 1366.417 C 1750.910 1361.952, 1754.732 1360.152, 1752.283 1357.967 C 1751.852 1357.583, 1743.085 1352.913, 1732.799 1347.589 L 1714.099 1337.909 1712.549 1340.905 M 1681.250 1397.981 C 1675.612 1407.280, 1671 1415.326, 1671 1415.862 C 1671 1416.398, 1679.160 1421.860, 1689.133 1428 C 1703.943 1437.118, 1707.487 1438.919, 1708.476 1437.832 C 1709.141 1437.099, 1714.330 1428.907, 1720.005 1419.627 L 1730.325 1402.754 1727.913 1400.899 C 1726.586 1399.879, 1725.275 1399.036, 1725 1399.025 C 1724.725 1399.014, 1720.489 1405.548, 1715.586 1413.545 C 1710.684 1421.542, 1706.321 1428.302, 1705.892 1428.567 C 1705.100 1429.056, 1695 1423.259, 1695 1422.316 C 1695 1422.035, 1697.475 1417.803, 1700.500 1412.913 C 1703.525 1408.023, 1706 1403.803, 1706 1403.536 C 1706 1403.270, 1704.702 1402.380, 1703.116 1401.560 L 1700.232 1400.069 1694.509 1409.527 L 1688.787 1418.986 1684.643 1416.483 C 1682.364 1415.106, 1680.647 1413.431, 1680.826 1412.761 C 1681.005 1412.092, 1684.718 1405.789, 1689.076 1398.756 C 1693.434 1391.722, 1697 1385.577, 1697 1385.099 C 1697 1384.355, 1692.604 1380.930, 1691.785 1381.037 C 1691.628 1381.058, 1686.888 1388.683, 1681.250 1397.981 M 1654.555 1438.719 L 1641.928 1456.437 1644.214 1458.196 C 1645.471 1459.164, 1646.764 1459.966, 1647.087 1459.978 C 1647.410 1459.990, 1649.845 1456.850, 1652.500 1453 C 1655.155 1449.150, 1657.648 1446, 1658.042 1446 C 1658.436 1446, 1665.439 1450.736, 1673.606 1456.525 L 1688.454 1467.050 1690.205 1464.775 C 1691.168 1463.524, 1691.957 1462.050, 1691.958 1461.500 C 1691.960 1460.950, 1685.278 1455.775, 1677.109 1450 L 1662.257 1439.500 1667.620 1431.860 L 1672.983 1424.219 1670.527 1422.610 C 1669.176 1421.724, 1667.870 1421, 1667.626 1421 C 1667.381 1421, 1661.499 1428.973, 1654.555 1438.719 M 1635.480 1466.898 C 1629.590 1470.277, 1622.443 1477.697, 1620.424 1482.528 C 1617.219 1490.199, 1619.464 1497.293, 1625.947 1499.978 C 1630.699 1501.946, 1633.668 1500.477, 1642.911 1491.586 C 1652.141 1482.706, 1654.716 1481.243, 1658.010 1483.005 C 1666.085 1487.327, 1658.831 1501.525, 1645.408 1507.671 C 1640.667 1509.841, 1640.012 1510.475, 1640.582 1512.341 C 1642.043 1517.124, 1642.317 1517.183, 1648.551 1514.052 C 1659.270 1508.669, 1667.646 1498.785, 1668.647 1490.337 C 1669.365 1484.273, 1667.383 1479.814, 1662.701 1476.960 C 1655.629 1472.647, 1648.257 1475.546, 1638.685 1486.404 C 1632.678 1493.219, 1629.559 1494.583, 1627.009 1491.511 C 1623.457 1487.231, 1631.237 1476.157, 1640.462 1472.363 C 1645.122 1470.447, 1645.756 1469.282, 1643.965 1465.934 C 1642.587 1463.361, 1641.415 1463.494, 1635.480 1466.898 M 1603.014 1502.485 L 1600.679 1504.971 1607.555 1511.235 C 1611.337 1514.681, 1618.497 1521.213, 1623.465 1525.750 C 1628.433 1530.287, 1632.949 1533.986, 1633.499 1533.969 C 1634.050 1533.951, 1635.322 1532.808, 1636.328 1531.428 L 1638.155 1528.918 1631.328 1522.631 C 1615.635 1508.180, 1606.465 1500.013, 1605.924 1500.007 C 1605.608 1500.003, 1604.298 1501.118, 1603.014 1502.485 M 1586.829 1521.352 C 1575.767 1526.775, 1569 1534.914, 1569 1542.796 C 1569 1546.471, 1569.563 1547.763, 1572.400 1550.600 C 1578.028 1556.228, 1581.935 1555.311, 1593.511 1545.649 C 1602.289 1538.322, 1605.093 1537.176, 1608.606 1539.477 C 1613.256 1542.525, 1611.411 1550.102, 1604.509 1556.305 C 1602.169 1558.407, 1591.082 1563.998, 1589.250 1563.999 C 1587.826 1564, 1587.596 1567.815, 1588.896 1569.867 C 1590.672 1572.669, 1602.721 1567.200, 1610.289 1560.157 C 1620.816 1550.360, 1621.864 1538.546, 1612.701 1532.960 C 1606.293 1529.052, 1599.785 1531.001, 1590 1539.760 C 1582.788 1546.217, 1580.565 1547.373, 1578 1546 C 1574.761 1544.267, 1575.422 1539.646, 1579.565 1535.060 C 1583.182 1531.056, 1591.906 1526, 1595.196 1526 C 1597.097 1526, 1597.359 1524.941, 1596.370 1521.250 C 1595.594 1518.356, 1592.883 1518.385, 1586.829 1521.352 M 1552.583 1552.352 L 1549.744 1554.616 1558.130 1564.558 C 1562.743 1570.026, 1567.056 1575.198, 1567.716 1576.051 C 1568.757 1577.399, 1566.727 1577.310, 1552.207 1575.375 C 1543.018 1574.150, 1534.076 1572.924, 1532.336 1572.651 C 1530.572 1572.374, 1528.406 1572.714, 1527.440 1573.420 C 1525.879 1574.562, 1527.061 1576.281, 1539.406 1590.817 C 1546.941 1599.688, 1553.578 1607.239, 1554.157 1607.597 C 1554.735 1607.954, 1556.261 1607.179, 1557.549 1605.873 L 1559.890 1603.500 1550.540 1592.500 C 1545.398 1586.450, 1541.296 1581.389, 1541.425 1581.253 C 1541.555 1581.117, 1550.542 1582.196, 1561.398 1583.650 C 1578.284 1585.912, 1581.333 1586.092, 1582.504 1584.897 C 1583.669 1583.709, 1581.824 1581.080, 1570.172 1567.319 C 1562.637 1558.420, 1556.235 1550.902, 1555.947 1550.613 C 1555.658 1550.325, 1554.144 1551.107, 1552.583 1552.352 M 1506.880 1590.380 C 1504.339 1591.065, 1499.986 1593.084, 1497.207 1594.867 C 1488.426 1600.502, 1484 1608.093, 1484 1617.518 C 1484 1638.427, 1508.874 1646.342, 1526.354 1630.994 C 1537.928 1620.832, 1539.036 1605.941, 1528.967 1595.872 C 1525.326 1592.231, 1523.214 1590.997, 1519.117 1590.118 C 1512.911 1588.787, 1512.779 1588.790, 1506.880 1590.380 M 1502.353 1599.971 C 1496.374 1603.400, 1493.450 1606.766, 1491.870 1612.039 C 1488.923 1621.875, 1496.511 1632, 1506.828 1632 C 1515.547 1632, 1525.010 1625.072, 1527.432 1616.916 C 1531.875 1601.955, 1516.733 1591.723, 1502.353 1599.971 M 1454.703 1623.391 C 1439.479 1629.026, 1431.273 1644.118, 1436.549 1656.782 C 1441.691 1669.127, 1456.025 1674.064, 1469.463 1668.119 C 1478.402 1664.165, 1486.964 1653.238, 1486.990 1645.750 C 1486.999 1643.290, 1486.643 1643, 1483.619 1643 C 1480.425 1643, 1480.172 1643.260, 1479.055 1647.695 C 1476.551 1657.640, 1464.055 1665.410, 1454.587 1662.910 C 1452.339 1662.316, 1449.029 1660.422, 1447.231 1658.701 C 1438.606 1650.443, 1441.924 1637.619, 1454.309 1631.344 C 1458.485 1629.227, 1460.374 1628.859, 1465.247 1629.211 C 1470.919 1629.622, 1471.192 1629.530, 1472.642 1626.726 C 1473.470 1625.124, 1473.859 1623.526, 1473.506 1623.173 C 1472.177 1621.843, 1458.455 1622.003, 1454.703 1623.391" stroke="none" fill="#a74e23" fill-rule="evenodd"/>
  
  <path
      class=""
      d="M 1633.392 554.608 C 1539.951 630.293, 1462.477 693.028, 1461.227 694.020 L 1458.955 695.823 1464.835 705.162 C 1484.412 736.254, 1503.136 775.019, 1515.126 809.285 C 1516.925 814.427, 1517.205 816.253, 1516.280 816.825 C 1515.609 817.241, 1488.609 823.799, 1456.280 831.398 C 1423.951 838.998, 1397.351 845.353, 1397.169 845.522 C 1396.987 845.690, 1398.720 851.604, 1401.019 858.664 C 1408.458 881.504, 1413.926 906.264, 1417.502 933.296 C 1418.014 937.166, 1418.461 937.996, 1419.818 937.596 C 1420.743 937.323, 1447.760 930.940, 1479.855 923.412 C 1523.628 913.144, 1538.400 910.029, 1538.968 910.948 C 1539.984 912.592, 1541.749 930.501, 1543.116 953.038 C 1544.389 974.025, 1543.734 1002.928, 1541.440 1026.991 C 1540.589 1035.920, 1540.132 1043.465, 1540.425 1043.758 C 1541.272 1044.606, 1972.329 1140.005, 1972.869 1139.464 C 1973.626 1138.707, 1976.710 1118.669, 1979.471 1096.568 C 1994.016 980.135, 1986.635 859.389, 1957.967 744.785 C 1930.149 633.581, 1880.351 524.574, 1814.736 431.250 C 1809.225 423.413, 1804.394 417, 1804 417 C 1803.606 417, 1726.832 478.924, 1633.392 554.608 M 245.690 433.804 C 144.325 580.416, 87.910 744.498, 76.978 924.500 C 74.771 960.843, 75.711 1022.782, 79.058 1061.500 C 81.279 1087.198, 88.356 1140.999, 89.859 1143.616 C 90.298 1144.381, 155.609 1129.685, 297.500 1096.892 C 411.350 1070.580, 508.566 1048.125, 513.537 1046.992 L 522.573 1044.933 521.345 1033.717 C 517.770 1001.078, 517.532 967.931, 520.614 932 C 522.297 912.389, 522.556 911, 524.538 911 C 525.309 911, 551.941 916.872, 583.720 924.049 C 615.499 931.226, 642.146 937.188, 642.937 937.299 C 644.037 937.453, 644.687 935.040, 645.711 927 C 648.513 905.001, 656.809 869.641, 663.484 851.250 C 664.731 847.813, 665.461 845, 665.105 845 C 663.283 845, 545.718 818.051, 545.176 817.509 C 543.868 816.202, 555.247 786.248, 565.694 763.500 C 573.625 746.229, 584.796 725.488, 595.049 709 C 599.324 702.125, 602.750 696.454, 602.661 696.397 C 602.535 696.316, 373.808 514.465, 274.330 435.354 L 255.159 420.108 245.690 433.804 M 370.462 551.921 C 367.710 553.493, 363.522 556.880, 361.154 559.449 C 351.051 570.409, 350.337 582.085, 359.503 586.434 C 364.694 588.898, 368.238 587.739, 373.796 581.762 C 386.942 567.624, 386.676 567.845, 390.155 568.182 C 394.905 568.642, 396.813 572.343, 395.155 577.877 C 393.646 582.915, 385.945 590.880, 379.628 593.938 L 375.095 596.132 376.703 599.504 L 378.311 602.876 383.288 600.354 C 393.871 594.991, 402.993 583.313, 403.311 574.722 C 403.631 566.050, 398.314 559.996, 390.382 560.004 C 385.367 560.009, 381.342 562.528, 375.893 569.074 C 366.182 580.740, 364.268 581.856, 361.441 577.500 C 360.374 575.856, 360.383 574.813, 361.493 571.637 C 363.223 566.683, 367.164 562.548, 373.698 558.827 C 378.688 555.986, 378.851 555.760, 377.758 553.184 C 375.960 548.944, 375.741 548.906, 370.462 551.921 M 1718.500 553.644 C 1706.950 554.968, 1696.906 556.264, 1696.179 556.522 C 1695.184 556.876, 1695.407 557.762, 1697.084 560.118 C 1699.272 563.191, 1699.416 563.234, 1705.490 562.611 L 1711.669 561.978 1717.709 571.368 L 1723.750 580.757 1720.710 586.243 L 1717.671 591.730 1719.948 594.927 C 1722.705 598.799, 1721.091 600.847, 1735.846 574.747 C 1745.713 557.294, 1746.868 554.762, 1745.766 552.997 C 1744.273 550.606, 1745.169 550.585, 1718.500 553.644 M 1727.347 560.230 L 1719.195 561.181 1723.287 567.600 C 1725.538 571.131, 1727.684 573.678, 1728.056 573.260 C 1728.942 572.264, 1736.273 558.958, 1735.836 559.139 C 1735.651 559.216, 1731.831 559.707, 1727.347 560.230 M 1747.550 588.354 C 1739.234 592.971, 1731.691 597.874, 1730.550 599.403 C 1725.775 605.802, 1730.891 622.036, 1740.462 630.859 C 1744.368 634.459, 1745.555 635, 1749.541 635 C 1753.406 635, 1756.463 633.712, 1768.990 626.808 L 1783.852 618.615 1782.299 615.558 C 1781.445 613.876, 1780.626 612.360, 1780.479 612.190 C 1780.333 612.019, 1773.954 615.282, 1766.305 619.440 C 1751.229 627.635, 1747.729 628.477, 1744.245 624.750 C 1740.996 621.274, 1736 611.118, 1736 607.987 C 1736 604.306, 1739.247 601.636, 1752.207 594.664 C 1766.909 586.754, 1766.593 587.047, 1764.592 583.178 C 1763.688 581.430, 1762.848 580.012, 1762.724 580.027 C 1762.601 580.042, 1755.773 583.789, 1747.550 588.354 M 345 588.734 C 336.408 594.334, 328.003 606.504, 328.001 613.349 C 327.999 619.752, 333.695 626, 339.533 626 C 342.966 626, 347.797 621.882, 353.481 614.110 C 361.448 603.219, 365.113 601.583, 369.219 607.090 C 373.763 613.182, 366.484 624.994, 353.555 632.507 C 352.074 633.368, 351.998 633.902, 353.033 636.174 C 354.148 638.621, 353.627 639.978, 346.503 653.167 C 342.245 661.050, 338.636 667.642, 338.482 667.816 C 338.328 667.989, 335.706 666.723, 332.656 665.001 L 327.109 661.871 330.698 655.185 C 332.671 651.508, 334.897 647.503, 335.643 646.285 C 337.592 643.105, 337.358 642.236, 334.098 640.551 L 331.197 639.050 327.161 646.775 C 320.818 658.918, 321.158 658.632, 316.123 656.063 L 311.884 653.900 315.302 647.700 C 317.182 644.290, 320.824 637.599, 323.396 632.832 L 328.072 624.164 325.814 622.582 C 324.571 621.712, 323.079 621, 322.497 621 C 321.523 621, 301.495 656.940, 302.192 657.437 C 303.590 658.434, 340.475 677.994, 340.921 677.975 C 341.698 677.942, 361 641.557, 361 640.125 C 361 639.506, 360.495 639, 359.878 639 C 359.261 639, 361.926 636.066, 365.799 632.480 C 374.279 624.629, 378.007 617.921, 377.985 610.554 C 377.967 604.306, 376.482 601.247, 371.985 598.192 C 369.256 596.337, 367.579 595.924, 364.256 596.288 C 358.596 596.908, 354.383 600.310, 348.482 609.026 C 345.804 612.983, 342.588 616.686, 341.336 617.257 C 336.317 619.544, 334.232 612.793, 337.853 605.984 C 339.600 602.701, 348.233 594.756, 351.088 593.804 C 352.163 593.446, 352.161 592.802, 351.076 590.184 C 349.598 586.616, 348.612 586.380, 345 588.734 M 1783.799 626.546 L 1781.097 628.013 1784.917 636.319 L 1788.737 644.626 1772.618 651.980 C 1763.753 656.025, 1756.166 659.616, 1755.758 659.959 C 1754.969 660.623, 1757.028 667, 1758.032 667 C 1758.358 667, 1765.905 663.625, 1774.803 659.500 C 1783.700 655.375, 1791.235 652, 1791.547 652 C 1791.859 652, 1793.702 655.487, 1795.644 659.750 C 1797.585 664.013, 1799.286 667.615, 1799.425 667.755 C 1799.973 668.310, 1806.071 665.725, 1805.795 665.054 C 1803.193 658.723, 1787.364 625.036, 1787 625.055 C 1786.725 625.069, 1785.284 625.740, 1783.799 626.546 M 297.631 665.788 C 297.317 666.296, 296.624 667.860, 296.090 669.263 C 295.138 671.768, 295.350 671.917, 308.053 677.657 C 315.165 680.871, 320.988 683.740, 320.992 684.034 C 320.997 684.328, 312.788 687.153, 302.750 690.314 C 285.896 695.620, 280.751 698.151, 282.753 700.153 C 283.171 700.571, 291.610 704.584, 301.507 709.069 C 320.159 717.524, 322.260 718.605, 317.919 717.516 C 315.394 716.882, 315.217 717.202, 309.034 733.489 C 303.866 747.104, 302.434 749.989, 301.113 749.449 C 300.226 749.085, 297.572 748.114, 295.216 747.289 C 290.362 745.589, 290.367 746.459, 295.134 734.023 C 296.710 729.910, 298 726.017, 298 725.371 C 298 724.724, 296.632 723.719, 294.961 723.136 C 292.152 722.157, 291.842 722.282, 290.872 724.788 C 289.913 727.265, 286.926 735.225, 284.895 740.716 C 284.084 742.910, 284.029 742.915, 279.538 741.250 C 277.042 740.325, 275 739.314, 275 739.003 C 275 738.692, 277.475 731.981, 280.500 724.090 C 283.525 716.199, 286 709.170, 286 708.469 C 286 707.769, 284.632 706.719, 282.961 706.136 C 280.151 705.157, 279.843 705.281, 278.884 707.788 C 273.199 722.645, 266.073 741.769, 265.818 742.852 C 265.602 743.769, 270.479 746.089, 281 750.073 C 289.525 753.302, 298.819 756.824, 301.654 757.901 L 306.809 759.859 314.059 740.679 C 318.046 730.131, 321.336 720.712, 321.369 719.750 C 321.402 718.788, 321.710 718, 322.054 718 C 322.717 718, 325 713.446, 325 712.123 C 325 711.693, 319.163 708.701, 312.029 705.475 C 304.895 702.249, 299.191 699.476, 299.354 699.313 C 299.517 699.150, 307.923 696.377, 318.034 693.151 C 335.590 687.549, 339.832 685.362, 337.478 683.128 C 336.739 682.427, 306.716 668.423, 299.351 665.344 C 298.719 665.080, 297.945 665.279, 297.631 665.788 M 1787.500 679.772 C 1776.500 683.936, 1767.361 687.441, 1767.191 687.563 C 1767.022 687.684, 1767.547 689.372, 1768.358 691.314 L 1769.833 694.844 1779.040 691.379 C 1784.104 689.473, 1788.401 688.067, 1788.588 688.255 C 1789.227 688.894, 1799.033 715.300, 1798.740 715.593 C 1798.580 715.754, 1794.686 717.272, 1790.088 718.967 C 1785.490 720.663, 1781.366 722.274, 1780.922 722.548 C 1779.670 723.322, 1782.735 729.538, 1784.200 729.197 C 1785.832 728.816, 1823.374 714.835, 1823.850 714.431 C 1824.042 714.268, 1823.677 712.550, 1823.038 710.615 L 1821.877 707.096 1813.908 710.034 L 1805.940 712.972 1804.890 710.236 C 1798.915 694.672, 1795.969 685.649, 1796.663 685.043 C 1797.123 684.640, 1800.425 683.265, 1804 681.988 C 1807.575 680.710, 1810.657 679.546, 1810.850 679.400 C 1811.441 678.951, 1808.889 671.993, 1808.172 672.101 C 1807.803 672.157, 1798.500 675.609, 1787.500 679.772 M 1810.500 734.088 C 1801.150 736.804, 1791.878 739.470, 1789.896 740.012 L 1786.293 740.998 1791.042 757.749 C 1793.654 766.962, 1796.306 776.416, 1796.936 778.759 C 1797.998 782.707, 1798.279 782.971, 1800.791 782.380 C 1802.281 782.029, 1803.835 781.442, 1804.244 781.076 C 1804.654 780.711, 1802.966 773.365, 1800.494 764.754 C 1798.022 756.142, 1796 748.453, 1796 747.667 C 1796 746.813, 1797.761 745.794, 1800.371 745.137 C 1802.775 744.531, 1805.408 743.781, 1806.221 743.469 C 1807.365 743.030, 1808.321 745.116, 1810.452 752.701 C 1811.966 758.090, 1813.575 762.895, 1814.029 763.377 C 1815.381 764.814, 1820.002 763.148, 1819.979 761.231 C 1819.967 760.279, 1818.842 755.698, 1817.479 751.051 C 1816.116 746.405, 1815 742.286, 1815 741.899 C 1815 741.061, 1820.621 739, 1822.907 739 C 1824.135 739, 1825.558 742.798, 1828.925 755.066 C 1833.317 771.068, 1833.345 771.130, 1835.917 770.496 C 1837.338 770.145, 1838.906 769.461, 1839.403 768.976 C 1840.444 767.959, 1829.836 729.737, 1828.414 729.380 C 1827.911 729.254, 1819.850 731.373, 1810.500 734.088 M 263.126 749.763 L 261.924 753.500 274.657 765.721 C 281.661 772.443, 287.190 778.108, 286.945 778.311 C 286.700 778.513, 279.077 779.897, 270.004 781.386 C 260.931 782.874, 253.230 784.409, 252.890 784.796 C 252.551 785.183, 251.785 786.962, 251.189 788.750 C 250.367 791.212, 250.395 791.997, 251.302 791.989 C 253.725 791.968, 298.102 784.055, 299.035 783.478 C 301.611 781.887, 298.750 778.235, 283.750 763.962 C 262.698 743.931, 264.584 745.229, 263.126 749.763 M 1820.500 785.357 L 1800.500 789.557 1800.655 792.850 C 1800.741 794.662, 1801.038 796.372, 1801.317 796.650 C 1801.596 796.929, 1807.753 795.961, 1815 794.500 C 1822.247 793.039, 1828.415 792.081, 1828.706 792.373 C 1828.997 792.664, 1824.233 799.665, 1818.118 807.930 C 1810.693 817.965, 1807 823.817, 1807 825.546 C 1807 827.538, 1807.404 828.018, 1808.750 827.629 C 1809.713 827.351, 1818.825 825.493, 1829 823.500 C 1853.138 818.773, 1851.257 819.461, 1850.444 815.663 C 1850.071 813.924, 1849.603 812.322, 1849.404 812.104 C 1849.204 811.886, 1842.913 812.930, 1835.424 814.424 C 1827.935 815.919, 1821.638 816.971, 1821.431 816.764 C 1821.223 816.556, 1826.252 809.337, 1832.605 800.721 C 1843.665 785.723, 1845.574 781.781, 1841.989 781.340 C 1841.170 781.240, 1831.500 783.047, 1820.500 785.357 M 248.616 799.250 C 246.622 806.110, 239 840.835, 239 843.061 C 239 844.909, 243.777 846.699, 244.990 845.305 C 245.376 844.862, 246.453 840.920, 247.384 836.544 C 248.316 832.169, 249.173 828.522, 249.289 828.441 C 249.405 828.360, 257.513 830.077, 267.307 832.257 C 277.100 834.437, 285.355 835.978, 285.651 835.682 C 285.947 835.386, 286.259 833.672, 286.345 831.874 L 286.500 828.604 269 824.694 C 259.375 822.544, 251.349 820.644, 251.164 820.473 C 250.813 820.148, 253.976 805.001, 254.639 803.831 C 254.847 803.463, 262.551 805.145, 271.759 807.568 C 280.966 809.991, 289.231 811.979, 290.125 811.986 C 291.686 811.999, 293.667 806.334, 292.507 805.174 C 292.025 804.692, 252.245 794.042, 250.821 794.014 C 250.447 794.006, 249.455 796.362, 248.616 799.250 M 1847.443 826.681 C 1845.448 827.076, 1845.419 827.362, 1846.501 836.007 L 1847.617 844.925 1845.058 845.441 C 1843.651 845.725, 1836.875 846.657, 1830 847.513 C 1810.078 849.991, 1811 849.698, 1811 853.552 C 1811 855.384, 1811.338 857.074, 1811.750 857.308 C 1812.162 857.543, 1820.150 856.683, 1829.500 855.396 C 1838.850 854.110, 1846.999 853.045, 1847.608 853.029 C 1848.251 853.012, 1849.233 856.781, 1849.946 862 C 1851.065 870.187, 1851.371 870.999, 1853.338 870.985 C 1858.127 870.951, 1858.164 870.590, 1855.494 849.939 C 1852.075 823.501, 1852.807 825.616, 1847.443 826.681 M 259.101 851.331 C 239.792 857.575, 236.581 858.900, 235.829 860.932 C 235.350 862.229, 235.079 863.398, 235.229 863.529 C 235.378 863.660, 244.496 870.377, 255.492 878.457 L 275.484 893.146 276.286 889.323 C 277.141 885.242, 276.859 884.827, 269.595 879.500 L 266.868 877.500 268.696 866.619 L 270.524 855.739 276.496 853.619 C 282.109 851.627, 282.504 851.275, 283.076 847.750 C 283.470 845.323, 283.300 844.016, 282.593 844.044 C 281.992 844.068, 271.420 847.347, 259.101 851.331 M 255.175 860.355 C 251.697 861.564, 248.856 862.916, 248.863 863.360 C 248.870 863.804, 251.491 866.126, 254.687 868.520 C 260.475 872.854, 260.503 872.863, 261.148 870.493 C 262.420 865.826, 263.173 858.001, 262.344 858.078 C 261.880 858.121, 258.654 859.145, 255.175 860.355 M 1833 878.890 L 1814.500 880.500 1814.186 883.757 C 1813.963 886.072, 1814.353 887.198, 1815.535 887.652 C 1816.992 888.211, 1833.636 887.171, 1852.750 885.327 L 1859 884.724 1859 880.862 C 1859 876.280, 1861.125 876.441, 1833 878.890 M 232 883.842 L 232 887.684 246.944 897.065 C 255.163 902.224, 261.801 906.505, 261.694 906.579 C 261.587 906.652, 254.525 909.333, 246 912.536 C 237.475 915.739, 229.938 918.784, 229.250 919.302 C 228.126 920.150, 227.392 927, 228.425 927 C 229.069 927, 273.110 910.225, 273.484 909.837 C 273.663 909.652, 273.965 908.647, 274.155 907.604 C 274.428 906.102, 270.342 903.042, 254.500 892.884 C 243.500 885.831, 233.938 880.047, 233.250 880.030 C 232.462 880.011, 232 881.419, 232 883.842 M 1828.204 899.075 C 1817.739 904.385, 1812.546 919.046, 1816.415 932.355 C 1817.663 936.648, 1819.343 939.400, 1823.088 943.286 L 1828.094 948.479 1830.157 945.221 L 1832.220 941.962 1828.224 937.628 C 1819.843 928.535, 1821.067 912.846, 1830.618 906.931 C 1834.728 904.385, 1842.456 904.371, 1846.605 906.901 C 1855.747 912.476, 1857.707 928.252, 1850.344 937.003 C 1847.897 939.911, 1847.887 940, 1849.646 942.977 C 1850.628 944.640, 1851.751 946, 1852.143 946 C 1852.534 946, 1854.234 944.327, 1855.919 942.282 C 1865.705 930.410, 1863.279 909.009, 1851.187 900.550 C 1847.537 897.996, 1845.770 897.483, 1839.687 897.213 C 1833.857 896.955, 1831.689 897.306, 1828.204 899.075 M 241.684 927.389 C 235.358 929.744, 232.039 933.081, 228.343 940.803 C 226.096 945.497, 225.848 947.104, 226.178 954.803 C 226.592 964.469, 228.339 969.186, 233.367 974.213 C 237.533 978.379, 242.427 980.286, 249 980.303 C 268.784 980.353, 279.808 954.369, 267.681 936.273 C 262.123 927.979, 250.640 924.055, 241.684 927.389 M 243.500 935.363 C 236.581 938.577, 233 945.027, 233 954.276 C 233 970.243, 249.366 978.507, 259.724 967.769 C 263.795 963.549, 265.005 960.190, 264.978 953.185 C 264.937 942.548, 259.310 935.147, 250.659 934.352 C 248.371 934.141, 245.150 934.596, 243.500 935.363 M 1816.448 958.275 C 1816.115 959.144, 1815.990 960.900, 1816.171 962.177 C 1816.483 964.381, 1817.014 964.533, 1826.500 965.133 C 1832 965.480, 1842.013 965.818, 1848.750 965.883 L 1861 966 1861 962 L 1861 958 1851.157 958 C 1845.743 958, 1835.856 957.706, 1829.184 957.348 C 1818.661 956.782, 1816.974 956.905, 1816.448 958.275 M 1853.625 976.125 C 1853.281 977.844, 1852.993 981.331, 1852.985 983.875 C 1852.976 986.419, 1852.625 989.043, 1852.203 989.706 C 1851.607 990.644, 1847.557 990.593, 1833.968 989.476 C 1824.361 988.687, 1816.212 988.032, 1815.859 988.021 C 1815.047 987.994, 1814.193 995.001, 1814.951 995.469 C 1815.260 995.661, 1822.711 996.334, 1831.507 996.966 C 1853.697 998.560, 1851.947 997.875, 1851.389 1004.751 C 1851.132 1007.913, 1850.748 1011.936, 1850.534 1013.692 C 1850.178 1016.613, 1850.402 1016.910, 1853.172 1017.192 L 1856.200 1017.500 1851.850 1020.535 C 1849.457 1022.204, 1844.125 1025.875, 1840 1028.691 L 1832.500 1033.812 1823.500 1032.428 C 1810.088 1030.364, 1810 1030.378, 1810 1034.433 C 1810 1038.437, 1809.894 1038.390, 1822.666 1040.061 L 1831.833 1041.261 1841.148 1052.881 L 1850.463 1064.500 1851.357 1059.656 C 1852.112 1055.562, 1851.960 1054.443, 1850.375 1052.423 C 1849.344 1051.108, 1846.385 1047.392, 1843.799 1044.164 L 1839.099 1038.295 1847.465 1032.553 C 1852.353 1029.198, 1856.054 1025.916, 1856.367 1024.656 C 1856.663 1023.470, 1857.600 1013.725, 1858.449 1003 C 1859.299 992.275, 1860.253 981.138, 1860.569 978.250 L 1861.144 973 1857.697 973 C 1854.636 973, 1854.180 973.350, 1853.625 976.125 M 242 983.710 C 226.378 984.093, 226 984.210, 226 988.673 L 226 992.308 241.250 991.655 L 256.500 991.002 242.208 1004.751 C 231.955 1014.614, 227.928 1019.136, 227.958 1020.750 C 227.998 1022.886, 228.391 1023, 235.750 1022.996 C 240.012 1022.994, 249.912 1022.699, 257.750 1022.341 L 272 1021.689 272 1017.761 L 272 1013.833 257.250 1014.519 L 242.500 1015.204 256.750 1000.840 C 264.587 992.939, 271 985.693, 271 984.737 C 271 983.204, 269.975 983.025, 262.250 983.214 C 257.438 983.331, 248.325 983.554, 242 983.710 M 249.608 1029.599 C 238.117 1030.893, 228.608 1032.075, 228.476 1032.226 C 228.345 1032.377, 228.460 1033.963, 228.732 1035.750 C 229.317 1039.590, 229.813 1039.640, 247.658 1037.671 L 258.816 1036.439 252.065 1043.970 C 248.353 1048.111, 242.301 1054.865, 238.618 1058.978 C 230.892 1067.604, 230.171 1070.698, 236 1070.202 C 244.353 1069.492, 276.416 1065.917, 276.665 1065.668 C 276.815 1065.518, 276.669 1063.737, 276.340 1061.711 C 275.838 1058.614, 275.404 1058.096, 273.621 1058.461 C 269.862 1059.230, 247.927 1061.261, 247.554 1060.874 C 247.356 1060.668, 253.019 1053.986, 260.137 1046.025 C 268.860 1036.270, 272.986 1030.916, 272.790 1029.603 C 272.631 1028.533, 272.050 1027.565, 271.500 1027.452 C 270.950 1027.340, 261.098 1028.306, 249.608 1029.599 M 255.294 1075.407 C 244.181 1077.151, 234.789 1078.877, 234.424 1079.243 C 234.059 1079.608, 234.047 1081.439, 234.399 1083.311 C 234.930 1086.143, 235.413 1086.652, 237.269 1086.338 C 238.496 1086.130, 248.246 1084.611, 258.935 1082.962 C 269.624 1081.313, 278.540 1079.793, 278.749 1079.584 C 279.597 1078.737, 277.695 1072.009, 276.639 1072.118 C 276.012 1072.183, 266.407 1073.663, 255.294 1075.407" stroke="none" fill="#61001d" fill-rule="evenodd"/>

  <path
      class=""
      d="M 1081 245.886 L 1081 467.909 1084.250 468.415 C 1086.037 468.693, 1093.125 469.641, 1100 470.520 C 1117.924 472.813, 1137.049 476.442, 1155.915 481.131 C 1174.565 485.766, 1205.589 495.527, 1206.535 497.056 C 1206.881 497.617, 1195.387 523.067, 1180.991 553.613 C 1166.596 584.159, 1154.972 609.297, 1155.159 609.476 C 1155.347 609.654, 1160 611.477, 1165.500 613.527 C 1188.889 622.246, 1209.908 632.289, 1230.562 644.614 C 1235.783 647.730, 1240.214 650.104, 1240.409 649.889 C 1240.604 649.675, 1252.588 624.411, 1267.039 593.747 L 1293.315 537.995 1297.907 540.651 C 1323.576 555.497, 1359.908 583.552, 1385.916 608.607 C 1397.907 620.160, 1399.202 621.134, 1400.776 619.782 C 1401.724 618.967, 1479.378 556.077, 1573.340 480.026 L 1744.180 341.751 1739.776 337.126 C 1737.353 334.581, 1728.681 325.394, 1720.504 316.709 C 1706.404 301.734, 1678.586 275.129, 1660 258.845 C 1535.246 149.539, 1382.136 73.997, 1219.509 41.514 C 1176.815 32.987, 1143.546 28.639, 1089.250 24.493 L 1081 23.863 1081 245.886 M 1147.647 184.750 C 1146.093 195.613, 1144.603 205.456, 1144.334 206.624 C 1143.923 208.413, 1144.427 208.857, 1147.525 209.439 C 1149.549 209.818, 1151.384 209.949, 1151.603 209.730 C 1151.823 209.511, 1152.516 205.544, 1153.144 200.916 C 1153.773 196.287, 1154.560 192.204, 1154.893 191.842 C 1155.227 191.480, 1160.900 192.036, 1167.500 193.077 C 1182.232 195.400, 1184.295 195.428, 1188.643 193.365 C 1192.871 191.359, 1195 187.477, 1195 181.772 C 1195 176.824, 1193.140 173.641, 1188.995 171.498 C 1186.630 170.274, 1156.436 165, 1151.799 165 C 1150.836 165, 1149.696 170.425, 1147.647 184.750 M 1156.577 178.130 C 1156.205 180.937, 1156.067 183.401, 1156.271 183.605 C 1156.476 183.809, 1162.354 184.807, 1169.335 185.823 C 1183.954 187.951, 1186.303 187.476, 1186.808 182.294 C 1187.218 178.094, 1185.688 177.373, 1172.329 175.478 C 1166.373 174.633, 1160.545 173.735, 1159.377 173.483 C 1157.492 173.077, 1157.178 173.598, 1156.577 178.130 M 1204.848 195.543 C 1196.407 205.742, 1189.368 214.463, 1189.206 214.924 C 1189.045 215.384, 1190.617 216.081, 1192.700 216.472 C 1196.305 217.148, 1196.684 216.955, 1200.583 212.461 L 1204.679 207.739 1215.506 210.120 L 1226.332 212.500 1227.916 218.464 C 1229.339 223.820, 1229.833 224.523, 1232.767 225.363 C 1234.564 225.878, 1236.324 226.009, 1236.679 225.655 C 1237.450 224.884, 1226.158 180.048, 1224.741 178.250 C 1222.375 175.249, 1219.774 177.511, 1204.848 195.543 M 1255.418 187.908 C 1251.437 189.635, 1248 194.856, 1248 199.176 C 1248 204.228, 1251.883 208.195, 1259.323 210.744 C 1266.557 213.223, 1274.218 217.217, 1275.341 219.095 C 1276.708 221.382, 1275.340 225.747, 1272.838 227.087 C 1267.301 230.050, 1255.924 226.540, 1248.072 219.446 L 1243.883 215.662 1241.192 218.404 L 1238.500 221.146 1243 225.105 C 1260.381 240.397, 1283.993 238.897, 1283.993 222.500 C 1283.993 214.750, 1279.330 210.414, 1266.102 205.863 C 1263.080 204.823, 1259.543 203.275, 1258.242 202.423 C 1255.142 200.392, 1255.635 196.932, 1259.271 195.195 C 1263.404 193.220, 1271.558 195.889, 1278.388 201.452 L 1283.790 205.852 1285.991 203.509 C 1288.514 200.823, 1288.097 199.581, 1283.338 195.609 C 1275.985 189.472, 1261.206 185.396, 1255.418 187.908 M 1215.342 194.750 C 1209.301 201.977, 1209.252 201.666, 1216.709 203.367 C 1220.407 204.211, 1223.570 204.763, 1223.738 204.596 C 1224.275 204.058, 1220.639 190, 1219.963 190 C 1219.606 190, 1217.526 192.137, 1215.342 194.750 M 1308.500 203.697 C 1301.246 205.202, 1297.801 208.820, 1297.636 215.106 C 1297.498 220.363, 1300.563 223.318, 1311.764 228.728 C 1323.807 234.544, 1326.584 238.416, 1322 243 C 1317.345 247.655, 1306.617 244.534, 1297.442 235.857 L 1291.915 230.630 1289.248 233.297 L 1286.581 235.964 1291.752 240.948 C 1308.332 256.929, 1330.188 256.507, 1331.757 240.177 C 1332.195 235.620, 1331.961 234.962, 1328.560 231.198 C 1326.125 228.503, 1321.760 225.633, 1315.592 222.672 C 1310.478 220.216, 1306.037 217.538, 1305.722 216.719 C 1305.408 215.900, 1305.817 214.278, 1306.632 213.115 C 1309.744 208.671, 1320.114 211.783, 1328.012 219.530 L 1332.523 223.955 1335.396 221.665 L 1338.268 219.375 1335.106 215.774 C 1328.585 208.347, 1315.255 202.296, 1308.500 203.697 M 1344.451 239.820 C 1339.626 250.644, 1335.502 259.833, 1335.286 260.241 C 1334.861 261.043, 1341.737 264.637, 1342.341 263.929 C 1342.994 263.164, 1360 224.767, 1360 224.057 C 1360 223.680, 1358.475 222.643, 1356.612 221.755 L 1353.224 220.139 1344.451 239.820 M 1370.204 238.128 C 1359.617 243.368, 1355.216 256.492, 1360.353 267.500 C 1364.904 277.252, 1375.267 283.957, 1386.984 284.730 C 1392.663 285.105, 1394.206 284.796, 1398.994 282.330 C 1406.916 278.249, 1410.323 272.973, 1410.830 264.001 C 1411.147 258.388, 1410.808 256.235, 1409.027 252.555 C 1402.611 239.302, 1382.746 231.920, 1370.204 238.128 M 1375.450 244.407 C 1371.839 245.980, 1367.252 251.149, 1366.378 254.631 C 1364.519 262.038, 1369.230 270.498, 1377.454 274.521 C 1382.161 276.824, 1383.948 277.172, 1389.150 276.796 C 1394.656 276.397, 1395.629 275.981, 1398.572 272.770 C 1400.377 270.800, 1402.300 267.571, 1402.846 265.594 C 1406.356 252.884, 1388.209 238.849, 1375.450 244.407 M 1417.908 276.733 C 1411.746 286.457, 1406.523 295.109, 1406.300 295.960 C 1406.059 296.881, 1407.091 298.214, 1408.849 299.252 L 1411.803 300.997 1419.540 288.748 C 1423.795 282.012, 1427.361 276.391, 1427.464 276.258 C 1427.567 276.125, 1429.148 284.675, 1430.978 295.258 C 1432.808 305.841, 1434.757 315.082, 1435.311 315.793 C 1435.864 316.504, 1436.932 316.954, 1437.684 316.793 C 1438.436 316.632, 1444.182 308.400, 1450.453 298.500 L 1461.854 280.500 1459.177 278.255 C 1457.705 277.020, 1456.230 276.008, 1455.901 276.005 C 1455.571 276.002, 1451.971 281.383, 1447.901 287.962 C 1443.830 294.541, 1440.242 299.941, 1439.927 299.962 C 1439.612 299.983, 1437.869 291.299, 1436.053 280.663 C 1431.521 254.108, 1432.159 254.246, 1417.908 276.733 M 1463.824 307.882 C 1452.452 313.722, 1443.067 318.950, 1442.969 319.500 C 1442.870 320.050, 1443.887 321.319, 1445.228 322.321 C 1447.617 324.104, 1447.781 324.086, 1453.246 321.405 L 1458.825 318.669 1467.941 325.456 C 1474.350 330.228, 1476.917 332.727, 1476.586 333.872 C 1476.326 334.767, 1475.829 337.527, 1475.480 340.005 C 1474.887 344.221, 1475.049 344.660, 1478.002 346.843 C 1479.737 348.126, 1481.306 349.024, 1481.488 348.838 C 1481.670 348.652, 1483.585 337.700, 1485.745 324.500 C 1489.251 303.074, 1489.512 300.312, 1488.181 298.750 C 1487.361 297.788, 1486.197 297.059, 1485.595 297.132 C 1484.993 297.205, 1475.196 302.042, 1463.824 307.882 M 1473.095 311.633 C 1469.022 313.497, 1465.928 315.261, 1466.219 315.552 C 1467.906 317.240, 1477.403 323.931, 1477.695 323.638 C 1478.092 323.242, 1480.955 308.602, 1480.679 308.384 C 1480.581 308.306, 1477.168 309.768, 1473.095 311.633 M 1504.174 315.315 L 1501.963 317.668 1508.232 323.010 C 1511.679 325.948, 1514.870 328.665, 1515.322 329.048 C 1515.774 329.431, 1511.029 335.764, 1504.777 343.122 C 1498.526 350.480, 1493.088 357.028, 1492.694 357.674 C 1492.265 358.376, 1493.243 359.749, 1495.129 361.092 C 1497.890 363.058, 1498.418 363.148, 1499.391 361.819 C 1500.001 360.984, 1505.361 354.594, 1511.301 347.617 L 1522.103 334.934 1528.769 340.467 C 1532.435 343.510, 1535.709 346, 1536.043 346 C 1536.378 346, 1537.633 344.956, 1538.832 343.679 L 1541.012 341.358 1524.477 327.429 C 1515.382 319.768, 1507.591 313.379, 1507.163 313.231 C 1506.735 313.083, 1505.390 314.021, 1504.174 315.315 M 1530.063 362.161 L 1514.697 378.151 1517.098 380.393 C 1518.419 381.626, 1525.475 388.431, 1532.779 395.516 L 1546.058 408.397 1548.684 405.770 L 1551.311 403.144 1538.405 390.657 L 1525.500 378.171 1529.968 373.575 L 1534.436 368.980 1541.990 376.490 C 1546.145 380.621, 1549.984 383.986, 1550.522 383.969 C 1551.060 383.951, 1552.354 382.766, 1553.397 381.335 L 1555.294 378.734 1547.397 371.463 L 1539.500 364.191 1542.960 360.581 L 1546.421 356.971 1552.960 363.241 C 1556.557 366.690, 1562.078 371.959, 1565.228 374.950 L 1570.957 380.389 1573.510 377.990 L 1576.064 375.592 1563.282 362.727 C 1556.252 355.651, 1549.359 349.031, 1547.965 348.016 L 1545.430 346.170 1530.063 362.161 M 332.500 1187.065 C 216.450 1213.926, 119.179 1236.399, 116.342 1237.004 L 111.183 1238.104 113.173 1245.302 C 117.290 1260.195, 134.036 1309.209, 141.256 1327.500 C 182.420 1431.780, 238.021 1522.851, 313.664 1609.894 C 330.286 1629.022, 380.348 1679.040, 400 1696.154 C 441.928 1732.669, 483.679 1763.600, 529 1791.724 C 545.300 1801.839, 573.438 1818, 574.749 1818 C 575.532 1818, 764.763 1422.487, 765.648 1419 C 765.905 1417.989, 761.711 1414.734, 752.785 1409.016 C 736.521 1398.597, 712.194 1380.450, 697.500 1367.775 C 684.574 1356.625, 662 1335.149, 662 1334.001 C 662 1333.407, 752.022 1260.581, 757.381 1256.840 C 757.901 1256.477, 753.805 1251.302, 748.279 1245.340 C 731.016 1226.714, 718.827 1211.359, 706.730 1193 C 702.925 1187.225, 699.646 1182.330, 699.444 1182.121 C 699.242 1181.913, 677.389 1199.152, 650.882 1220.429 C 610.249 1253.046, 602.474 1258.902, 601.327 1257.756 C 598.059 1254.487, 580.026 1222.815, 571.006 1204.500 C 561.739 1185.683, 550.992 1159.967, 546.036 1144.750 C 544.826 1141.037, 543.761 1138.051, 543.668 1138.112 C 543.576 1138.174, 448.550 1160.203, 332.500 1187.065 M 269.880 1216.794 C 262.265 1220.772, 258.645 1226.835, 258.173 1236.403 C 257.694 1246.116, 260.560 1253.837, 266.967 1260.095 C 269.554 1262.622, 273.113 1265.192, 274.875 1265.807 C 277.848 1266.843, 278.148 1266.741, 279.039 1264.397 C 280.472 1260.629, 280.219 1259.204, 277.995 1258.498 C 268.125 1255.366, 262.206 1239.181, 267.571 1229.995 C 270.891 1224.310, 275.553 1221.746, 281.678 1222.237 C 291.535 1223.028, 298.033 1231.138, 297.965 1242.566 C 297.945 1245.830, 297.286 1249.625, 296.500 1251 C 294.552 1254.408, 294.592 1254.573, 297.960 1256.971 L 300.919 1259.079 303.193 1254.789 C 304.989 1251.399, 305.458 1248.927, 305.427 1243 C 305.364 1230.808, 300.050 1221.197, 290.832 1216.603 C 283.642 1213.021, 276.987 1213.081, 269.880 1216.794 M 286.936 1265.750 C 277.399 1270.586, 273.024 1280.336, 275.172 1291.968 C 277.901 1306.743, 287.918 1316.410, 300.500 1316.410 C 307.566 1316.410, 313.116 1313.910, 317.739 1308.645 C 321.944 1303.856, 323.340 1298.990, 322.774 1291.092 C 321.265 1270, 303.428 1257.387, 286.936 1265.750 M 289.742 1273.224 C 279.502 1279.159, 279.853 1295.518, 290.420 1304.795 C 295.056 1308.866, 299.803 1309.729, 305.532 1307.541 C 315.803 1303.618, 318.537 1292.569, 312.180 1280.675 C 307.439 1271.807, 297.742 1268.587, 289.742 1273.224 M 310.500 1319.035 C 300.600 1323.919, 292.050 1328.087, 291.500 1328.296 C 290.904 1328.523, 291.204 1330.163, 292.242 1332.357 L 293.985 1336.036 300.214 1332.892 C 303.639 1331.163, 309.747 1328.242, 313.786 1326.401 L 321.129 1323.055 319.187 1326.277 C 313.733 1335.330, 308 1345.816, 308 1346.740 C 308 1347.313, 313.288 1348.567, 319.750 1349.525 C 326.212 1350.483, 332.081 1351.573, 332.792 1351.947 C 333.562 1352.352, 328.797 1355.111, 320.997 1358.775 L 307.909 1364.924 309.582 1368.212 C 310.502 1370.020, 311.353 1371.619, 311.474 1371.764 C 312.144 1372.568, 351 1352.882, 351 1351.739 C 351 1347.927, 348.443 1346.829, 334.103 1344.483 C 326.242 1343.196, 319.621 1341.954, 319.390 1341.723 C 319.158 1341.491, 322.187 1335.537, 326.121 1328.492 C 332.230 1317.552, 333.142 1315.305, 332.366 1313.101 C 331.867 1311.681, 330.793 1310.437, 329.979 1310.337 C 329.166 1310.237, 320.400 1314.151, 310.500 1319.035 M 335.633 1369.480 C 325.806 1375.211, 317.533 1380.133, 317.248 1380.418 C 316.408 1381.258, 319.140 1387.002, 320.371 1386.983 C 320.992 1386.974, 324.875 1384.992, 329 1382.578 L 336.500 1378.190 339.500 1383.085 C 341.150 1385.776, 344.431 1391.377, 346.791 1395.529 C 353.204 1406.813, 360.384 1409.911, 368.088 1404.720 C 372.474 1401.764, 374.184 1398.397, 373.640 1393.789 C 373.167 1389.793, 356.235 1359.074, 354.500 1359.065 C 353.950 1359.062, 345.460 1363.749, 335.633 1369.480 M 347.758 1371.720 L 343.085 1374.289 345.762 1378.895 C 357.821 1399.638, 357.908 1399.742, 362.330 1398.632 C 365.659 1397.796, 366.677 1394.202, 364.674 1390.358 C 363.855 1388.786, 360.765 1383.371, 357.808 1378.325 L 352.431 1369.150 347.758 1371.720 M 359.500 1414.936 C 337.302 1417.762, 337.448 1417.702, 340.633 1422.563 C 341.716 1424.216, 342.898 1424.847, 344.359 1424.555 C 345.537 1424.319, 348.300 1423.899, 350.500 1423.622 L 354.500 1423.117 360.760 1432.363 L 367.020 1441.609 364.061 1447.071 L 361.102 1452.534 363.234 1455.900 L 365.365 1459.267 367.095 1457.132 C 368.812 1455.011, 368.828 1455.023, 369.490 1458.939 C 370.511 1464.986, 376.324 1476.078, 380.633 1480.201 C 384.686 1484.080, 390.455 1487, 394.067 1487 C 397.667 1487, 403.138 1483.820, 405.114 1480.580 C 408.759 1474.604, 407.091 1467.890, 399.153 1456.584 C 394.525 1449.992, 393.731 1445.537, 397 1444.500 C 399.975 1443.556, 402.533 1444.704, 405.836 1448.466 C 408.854 1451.903, 413 1461.494, 413 1465.038 C 413 1466.664, 413.692 1467, 417.045 1467 L 421.091 1467 420.411 1463.250 C 420.038 1461.188, 418.819 1457.028, 417.703 1454.007 C 415.040 1446.797, 406.112 1437.619, 400.788 1436.620 C 393.856 1435.320, 387 1440.110, 387 1446.255 C 387 1450.173, 388.963 1454.465, 394.359 1462.347 C 399.863 1470.387, 400.518 1474.960, 396.538 1477.567 C 389.726 1482.030, 380.151 1472.127, 376.979 1457.339 C 375.957 1452.573, 375.784 1452.378, 372.956 1452.793 C 371.330 1453.032, 370 1452.930, 370 1452.566 C 370 1452.203, 374.496 1443.789, 379.991 1433.869 C 388.195 1419.057, 389.798 1415.491, 388.955 1413.917 C 387.654 1411.485, 386.212 1411.535, 359.500 1414.936 M 376.500 1420.504 C 375.950 1420.694, 372.482 1421.142, 368.793 1421.500 L 362.087 1422.150 366.278 1428.463 C 370.975 1435.538, 370.270 1435.737, 375.903 1425.750 C 378.939 1420.369, 379.023 1419.631, 376.500 1420.504 M 418.400 1475.400 C 412.833 1480.967, 413.877 1485.422, 423.772 1498.310 C 429.312 1505.525, 430.344 1509.513, 427.429 1512.429 C 421.627 1518.230, 410.392 1508.893, 406.208 1494.792 C 404.644 1489.522, 404.321 1489.126, 402.007 1489.625 C 396.896 1490.730, 396.979 1490.566, 398.650 1496.203 C 400.945 1503.944, 403.602 1508.657, 408.843 1514.285 C 414.261 1520.104, 418.130 1522, 424.586 1522 C 428.653 1522, 429.721 1521.514, 433.118 1518.118 C 439.567 1511.668, 438.417 1505.215, 428.569 1492.608 C 423.014 1485.496, 421.948 1482.243, 424.550 1480.340 C 429.528 1476.700, 438.765 1485.987, 441.957 1497.839 C 442.823 1501.055, 443.513 1502.017, 444.643 1501.584 C 445.479 1501.263, 447.027 1501, 448.082 1501 C 454.316 1501, 444.271 1480.665, 435.192 1474.907 C 428.539 1470.688, 422.948 1470.852, 418.400 1475.400 M 442.649 1517.272 L 426.799 1532.500 429.704 1535.250 L 432.609 1538 448.555 1522.617 L 464.500 1507.234 462.076 1504.617 C 460.742 1503.178, 459.392 1502.010, 459.076 1502.022 C 458.759 1502.034, 451.367 1508.896, 442.649 1517.272 M 460 1520.254 C 454.679 1522.031, 447.651 1529.603, 446.065 1535.268 C 441.473 1551.668, 456.623 1570.355, 474.500 1570.344 C 488.104 1570.335, 498.071 1559.445, 496.772 1546.007 C 495.146 1529.169, 475.177 1515.184, 460 1520.254 M 461.218 1528.663 C 453.937 1532.252, 450.929 1542.055, 454.802 1549.574 C 458.644 1557.032, 467.023 1563, 473.652 1563 C 477.401 1563, 484.115 1559.503, 486.386 1556.367 C 488.785 1553.056, 489.570 1546.256, 488.076 1541.730 C 487.439 1539.801, 485.336 1536.594, 483.403 1534.603 C 476.457 1527.451, 468.176 1525.234, 461.218 1528.663 M 494.475 1566.067 L 480.734 1583.088 483.042 1585.544 C 484.310 1586.895, 485.672 1588, 486.066 1588 C 486.461 1588, 490.770 1583.068, 495.642 1577.039 L 504.500 1566.078 505.136 1569.789 C 505.486 1571.830, 506.094 1580.559, 506.488 1589.188 C 507.551 1612.459, 507.201 1612.432, 524.863 1590.600 L 538.994 1573.132 536.093 1571.066 C 534.497 1569.930, 532.989 1569, 532.743 1569 C 532.496 1569, 528.291 1573.985, 523.397 1580.078 L 514.500 1591.156 513.833 1584.828 C 513.466 1581.348, 512.857 1572.303, 512.480 1564.730 C 511.487 1544.829, 511.628 1544.818, 494.475 1566.067 M 532.750 1597.245 C 521.337 1603.301, 512 1608.578, 512 1608.971 C 512 1609.364, 513.484 1610.484, 515.299 1611.461 C 518.550 1613.213, 518.672 1613.200, 523.829 1610.586 C 526.898 1609.032, 529.589 1608.259, 530.338 1608.718 C 531.039 1609.148, 535.116 1611.973, 539.397 1614.996 L 547.180 1620.493 546.508 1626.770 C 545.889 1632.546, 546.022 1633.202, 548.168 1634.990 C 549.451 1636.059, 550.987 1636.948, 551.583 1636.967 C 552.240 1636.987, 554.038 1627.350, 556.158 1612.441 C 559.450 1589.288, 559.549 1587.829, 557.890 1586.941 C 556.923 1586.424, 555.539 1586.052, 554.816 1586.116 C 554.092 1586.180, 544.163 1591.188, 532.750 1597.245 M 568.568 1598.206 C 567.706 1599.437, 567.001 1600.907, 567.003 1601.473 C 567.005 1602.038, 570.359 1604.552, 574.457 1607.061 L 581.907 1611.621 571.896 1627.466 C 564.298 1639.491, 562.200 1643.522, 563.192 1644.189 C 566.356 1646.313, 568.096 1647.059, 568.832 1646.604 C 569.266 1646.336, 573.816 1639.356, 578.942 1631.093 C 589.434 1614.183, 587.505 1615.149, 597.721 1621.685 L 603.007 1625.066 601.004 1628.993 C 599.902 1631.153, 595.885 1638.550, 592.077 1645.432 L 585.153 1657.944 596.826 1664.336 C 603.247 1667.852, 611.962 1672.617, 616.194 1674.924 L 623.887 1679.119 625.517 1675.966 C 626.414 1674.233, 626.977 1672.643, 626.768 1672.435 C 626.559 1672.226, 619.664 1668.385, 611.444 1663.898 C 603.225 1659.412, 596.343 1655.605, 596.151 1655.438 C 595.504 1654.876, 601.308 1645, 602.285 1645 C 602.817 1645, 607.393 1647.239, 612.453 1649.975 L 621.654 1654.949 623.229 1651.645 L 624.805 1648.342 615.052 1643.028 L 605.300 1637.715 607.747 1633.336 L 610.195 1628.957 613.347 1630.852 C 615.081 1631.894, 621.643 1635.566, 627.929 1639.011 L 639.358 1645.276 641.179 1643.027 C 642.181 1641.790, 642.989 1640.266, 642.977 1639.639 C 642.964 1639.013, 635.456 1634.450, 626.294 1629.500 C 617.131 1624.550, 601.279 1615.302, 591.067 1608.948 C 580.855 1602.594, 571.968 1597.074, 571.318 1596.681 C 570.637 1596.269, 569.473 1596.914, 568.568 1598.206 M 542.648 1600.615 L 535.795 1604.131 542.148 1608.607 L 548.500 1613.084 549.227 1607.792 C 549.627 1604.881, 550.178 1601.263, 550.452 1599.750 C 550.726 1598.237, 550.624 1597.022, 550.225 1597.049 C 549.826 1597.076, 546.416 1598.681, 542.648 1600.615" stroke="none" fill="#1b432c" fill-rule="evenodd"/>

   <path
      class=""
      d="M 1005.500 590.622 C 909.135 598.286, 827.031 635.139, 759.675 700.963 C 719.157 740.559, 690.197 784.394, 668.149 839.500 C 656.081 869.659, 646.579 909.978, 644.302 940.682 C 643.034 957.789, 643.363 1009.136, 644.818 1021 C 650.684 1068.837, 663.558 1112.221, 683.975 1152.950 C 687.183 1159.351, 691.157 1166.874, 692.805 1169.669 C 694.453 1172.465, 697.260 1177.395, 699.043 1180.626 C 712.318 1204.680, 740.101 1238.767, 764.962 1261.501 C 805.802 1298.846, 846.519 1324.186, 895 1342.427 C 958.860 1366.455, 1032.414 1373.123, 1099.591 1360.974 C 1178.529 1346.698, 1249.210 1309.566, 1307.001 1252.013 C 1383.660 1175.668, 1424.872 1067.525, 1419.044 958 C 1416.095 902.571, 1404.347 857.315, 1379.976 807.500 C 1344.017 734.001, 1283.484 671.821, 1210.500 633.413 C 1194.444 624.963, 1161.022 610.852, 1153.747 609.451 C 1152.756 609.260, 1148.245 607.976, 1143.722 606.597 C 1123.481 600.426, 1098.518 595.243, 1075.500 592.434 C 1063.089 590.919, 1016.826 589.722, 1005.500 590.622 M 887.459 875.395 C 875.110 878.395, 865.869 885.458, 860.787 895.782 C 857.806 901.837, 857.500 903.299, 857.500 911.500 C 857.500 919.701, 857.806 921.163, 860.787 927.218 C 862.823 931.354, 865.820 935.432, 868.663 937.934 C 887.849 954.823, 921.917 951.778, 936.064 931.910 L 938.045 929.127 933.562 926.043 L 929.079 922.959 924.931 927.459 C 922.650 929.934, 918.244 933.206, 915.142 934.730 C 910.112 937.200, 908.416 937.499, 899.500 937.488 C 891.079 937.479, 888.762 937.112, 884.828 935.165 C 874.586 930.097, 869.060 921.803, 869.022 911.446 C 868.981 900.168, 875.540 891.207, 887 886.885 C 891.475 885.197, 894.177 884.882, 901.500 885.192 C 911.678 885.625, 917.594 887.865, 923.658 893.585 L 927.221 896.944 931.706 893.858 L 936.192 890.772 931.984 886.484 C 929.669 884.125, 925.650 881.039, 923.051 879.624 C 913.588 874.474, 898.587 872.691, 887.459 875.395 M 982.108 875.082 C 969.854 877.488, 958.058 886.347, 953.186 896.804 C 949.609 904.479, 949.391 917.935, 952.724 925.251 C 955.550 931.454, 964.259 940.591, 970.229 943.616 C 983.686 950.435, 1003.140 950.561, 1016.174 943.911 C 1026.843 938.468, 1035.145 926.676, 1036.495 915.047 C 1037.793 903.857, 1032.324 890.660, 1023.495 883.678 C 1013.251 875.578, 996.888 872.179, 982.108 875.082 M 1055 911.500 L 1055 947 1060.500 947 L 1066 947 1066 931.500 L 1066 916 1081.250 916.030 L 1096.500 916.061 1106.409 931.530 L 1116.318 947 1122.266 947 C 1127.100 947, 1128.108 946.723, 1127.648 945.524 C 1127.336 944.712, 1123.238 937.967, 1118.541 930.535 C 1113.843 923.104, 1110 916.624, 1110 916.137 C 1110 915.649, 1111.287 914.993, 1112.860 914.678 C 1120.053 913.239, 1126 904.548, 1126 895.474 C 1126 889.150, 1125.098 886.914, 1120.657 882.223 C 1115.416 876.686, 1111.077 876, 1081.318 876 L 1055 876 1055 911.500 M 1146.237 911.250 L 1146.500 946.500 1180.750 946.763 L 1215 947.026 1215 941.513 L 1215 936 1186.500 936 L 1158 936 1158 925 L 1158 914 1176 914 L 1194 914 1194 909 L 1194 904 1176 904 L 1158 904 1158 895.500 L 1158 887 1185 887 L 1212 887 1212 881.500 L 1212 876 1178.987 876 L 1145.974 876 1146.237 911.250 M 980.205 886.894 C 973.093 889.351, 968.086 893.606, 964.654 900.108 C 962.121 904.907, 961.856 906.270, 962.243 912.500 C 962.737 920.453, 964.453 924.401, 969.579 929.380 C 976.073 935.686, 981.094 937.419, 993 937.462 C 1005.955 937.509, 1011.723 935.326, 1018.466 927.826 C 1031.171 913.695, 1023.641 891.186, 1004.500 886.078 C 998.264 884.414, 986.213 884.819, 980.205 886.894 M 1066 896 L 1066 905 1087.444 905 C 1108.623 905, 1108.923 904.970, 1111.672 902.606 C 1113.896 900.693, 1114.455 899.367, 1114.455 896 C 1114.455 892.633, 1113.896 891.307, 1111.672 889.394 C 1108.923 887.030, 1108.623 887, 1087.444 887 L 1066 887 1066 896 M 1222.196 1003.897 C 1216.581 1005.837, 1211.744 1009.735, 1209.411 1014.200 C 1207.328 1018.187, 1207.614 1026.855, 1209.956 1030.696 C 1213.874 1037.121, 1218.478 1038.740, 1236.500 1040.029 C 1252.565 1041.177, 1257.318 1042.401, 1260.527 1046.214 C 1268.023 1055.123, 1257.599 1066.069, 1241.701 1065.983 C 1235.518 1065.949, 1224.684 1063.017, 1217.347 1059.392 C 1213.271 1057.378, 1209.807 1055.903, 1209.649 1056.115 C 1208.500 1057.653, 1205 1064.266, 1205 1064.899 C 1205 1066.259, 1220.213 1072.863, 1227 1074.450 C 1235.440 1076.424, 1250.169 1076.436, 1256.774 1074.474 C 1274.685 1069.155, 1281.018 1049.646, 1268.561 1038.163 C 1262.777 1032.832, 1256.348 1031.030, 1239.708 1030.078 C 1225.038 1029.238, 1220.474 1027.737, 1219.384 1023.395 C 1218.940 1021.626, 1219.353 1019.996, 1220.710 1018.163 C 1227.378 1009.150, 1245.971 1010.230, 1265.130 1020.741 C 1265.798 1021.108, 1271.414 1012.056, 1270.838 1011.540 C 1269.088 1009.972, 1257.074 1004.815, 1252.276 1003.571 C 1243.858 1001.390, 1228.988 1001.551, 1222.196 1003.897 M 790 1003.506 C 790 1003.784, 797.876 1019.759, 807.503 1039.006 C 824.661 1073.310, 825.065 1074, 828 1074 C 830.935 1074, 831.339 1073.310, 848.497 1039.006 C 858.124 1019.759, 866 1003.784, 866 1003.506 C 866 1003.227, 863.265 1003, 859.921 1003 L 853.842 1003 841.214 1029 C 834.269 1043.300, 828.335 1055, 828.028 1055 C 827.721 1055, 821.633 1043.300, 814.500 1029 L 801.531 1003 795.765 1003 C 792.594 1003, 790 1003.227, 790 1003.506 M 884.745 1037.799 C 874.985 1056.988, 867 1072.984, 867 1073.344 C 867 1073.705, 869.607 1074, 872.794 1074 L 878.589 1074 883 1065 L 887.411 1056 905.638 1056 L 923.864 1056 928.609 1065 L 933.354 1074 939.177 1074 C 942.380 1074, 944.985 1073.662, 944.967 1073.250 C 944.948 1072.838, 936.950 1056.975, 927.193 1038 L 909.452 1003.500 905.971 1003.204 L 902.489 1002.908 884.745 1037.799 M 956 1038.500 L 956 1074 987.500 1074 L 1019 1074 1019 1069.017 L 1019 1064.034 993.250 1063.767 L 967.500 1063.500 967.235 1033.250 L 966.971 1003 961.485 1003 L 956 1003 956 1038.500 M 1126 1038.500 L 1126 1074 1160.500 1074 L 1195 1074 1195 1069.015 L 1195 1064.031 1166.250 1063.765 L 1137.500 1063.500 1137.216 1052.750 L 1136.932 1042 1154.966 1042 L 1173 1042 1173 1036.500 L 1173 1031 1155 1031 L 1137 1031 1137 1022.500 L 1137 1014 1164.500 1014 L 1192 1014 1192 1008.500 L 1192 1003 1159 1003 L 1126 1003 1126 1038.500 M 1032.006 1030.250 C 1032.009 1045.670, 1032.449 1058.076, 1033.072 1060.321 C 1034.635 1065.948, 1040.185 1071.553, 1046.313 1073.690 C 1050.482 1075.145, 1054.639 1075.500, 1067.500 1075.500 C 1083.278 1075.500, 1083.583 1075.458, 1089.500 1072.500 C 1095.876 1069.312, 1099.242 1065.390, 1100.984 1059.118 C 1101.537 1057.128, 1101.991 1043.914, 1101.994 1029.750 L 1102 1004 1096 1004 L 1090 1004 1090 1029.599 C 1090 1058.565, 1089.613 1060.493, 1083.173 1063.640 C 1078.132 1066.102, 1056.333 1066.191, 1050.816 1063.773 C 1043.970 1060.771, 1043.542 1058.867, 1043.175 1029.750 L 1042.851 1004 1037.425 1004 L 1032 1004 1032.006 1030.250 M 899.250 1033.370 C 895.813 1040.176, 893 1046.027, 893 1046.372 C 893 1046.718, 898.850 1047, 906 1047 C 913.150 1047, 919 1046.739, 919 1046.420 C 919 1045.550, 908.280 1024.763, 906.791 1022.745 C 905.651 1021.200, 904.770 1022.442, 899.250 1033.370 M 354.500 1654 C 361.083 1660.600, 366.694 1666, 366.969 1666 C 367.244 1666, 362.083 1660.600, 355.500 1654 C 348.917 1647.400, 343.306 1642, 343.031 1642 C 342.756 1642, 347.917 1647.400, 354.500 1654" stroke="none" fill="#3b4161" fill-rule="evenodd"/>
  

</svg>
