<!--version="1.0" encoding="utf-8"-->
<svg
  xmlns="http://www.w3.org/2000/svg"
  version="1.1"
  baseProfile="tiny"
  width="100%"
  height=""
  viewBox="0 0 1000 900">
  
  <g class="map_layout_1_roads">  
      <path d="m276.23 703.37l14.71-6.61 1.06-5.63-2.19-6.02-8.07.07-11.81 7.19-8.14-5.75-7.29-5.37-13.86-7.46-5.8-2.61-3.82-2.88-1.55-5.37-.55-8.23-.57-14.13-1.27-15.31.74-1.48 2.91-.78 6.57 1.77 8.07 2.87 18.89 4.19 5.94.78 5.94-.32 2.26 1.04 1.43 2.09 2.83 5.1 3.61 4.52 3.47 2.09 6.93 1.57 4.6 2.62 5.87.92 3.18 2.35 5.09-6.67-.42-2.23-4.88-2.81-5.09 1.83-4.53 2.49-4.88-.13-6.23-1.9-4.1-3.47-3.11-6.08-1.77-3.21 1.2-1.9 4.74-1.17"/>
      <path d="m286.34 629.34l9.06-3.23 6.01-2.43 3.61-13.28-4.03-1.63 2.12-2.68-.28-2.3-2.41-2.09-4.1.46-3.4 4.05-1.27 6.42-1.2 7.32-2.34 5.11-3.32 2.35-7.85 2.62-6.44 1.04-4.74-.45-15.63-3.6-7.36-1.9-7.29-2.68-4.38-1.5-2.69-.2-1.81-1.41-2.84-41.54-.07-5.24 4.39-5.04 5.66-2.16 6.58.27 5.38 1.83 3.25 3.14 3.11 2.03 5.59.78 5.87-.72 8.52-2.98 4.25-1.63 5.09-.33 4.95 1.44 2.41 3.86 2.12-.2.22-2.48 2.33-1.64"/>
      <path d="m293.41 568.72l5.72-1.78 5.52.26.78-3.14 1.84-2.16-1.2-8.37-6.8.58-.07 9.1-4.74 2.03-4.1.98-4.17.59-6.02-.59-4.31.26-9.62 3.4-3.97 1.44-6.22.2-4.46-1.77-4.67-3.73-3.53-1.74-4.67-.59-6.23 0-5.51 1.9-3.54-1.18-.49-1.44-1.77-50.68-3.96-48.54.71-2.2 4.25-1.77 5.79.2 8.71 2.68 13.01 3.41 17.76 3.92 4.67 1.44 9.76 3.54 11.43 2.87 13.15 2.94 7.92.98 6.02-.13 7.36-1.96 7.07-2.09 4.25.59 2.54-.4 3.04-3 5.1 2.54 5.66-5.88-11.25-9.56-7.08 7.27-3.74 4.84-4.96 3.14-3.11 1.37-5.3 1.18"/>
      <path d="m319.98 479.67l-5.07.39-6.79-.65"/>
      <path d="m308.12 479.41l-9.2-1.9-12.38-3.14-10.11-3.33-5.1-1.83-6.22-1.51-15.64-3.2-11.29-3.02-11.88-3.59-7.92-3.41-1.13-1.05-3.34-57.6-2.96-48.15-1.96-35.76-.29-19.24 2.55-8.24 6.37-6.02 24.34-8.11 27.73-8.9"/>
      <path d="m269.69 261.41l10.93-1.09 11.46 2.09 30.55 11.52 40.61 14.52 7.22 2.49.99 4.05-2.12 5.11-11.89 14.13-5.24 3.53-7.07 4.32-4.95 4.84 1.55 5.37 4.81 2.75 7.22 4.44 2.41-3-.71-2.49-4.95-2.88-1.42-2.23.29-5.49 3.53-4.06 5.52-3.53 4.1-4.45 3.26-4.05 5.24-6.42 3.96-5.1 4.1-1.83 12.73 4.19 34.07 12.93 17.69 5.5 16.98 6.67 14.15 8.51 14.57 7.58 10.04 2.88 20.52 4.06 11.6 2.49 11.93-.23 7.93-.91 10.61 1.7 21.36 9.03 30.14 12.95 39.75 17.21 36.5 15.83 40.87 17.79 38.84 17.47 14.5 6.67 17.97 10.27 20.22 12.76 22.35 14.26 37.5 25.9 12.17 7.98 1.41 3.73-.21 4.26-1.77 3.66-20.02 28.59-24.9 33.24-3.68 2.94-3.32.26-3.54-1.18-6.15-5.1-3.68-3.6-1.49-4.77-.49-9.36-.64-4.19-4.53-6.54-8.2-7.45-3.47-3.87-1.2-4.57.99-8.25 3.11-6.94 7.07-4.96-3.35-4.91 2.19-6.02-.71-3.86-8.55.2-.29 6.21 1.49 1.77-2.55 1.96-.92 1.7.14 5.56 4.67.13-2.26 3.8-1.63 5.04-.99 5.56.14 4.25.64 3.47 2.76 4.32 4.74 3.92 4.81 4.34 3.47 5.43 1.31 3.28.42 9.23.64 4.71 2.4 3.66 7.08 5.56 2.57 2.64 1.41 3.6-.42 3.86-7.22 9.42-26.39 32.84-22.2 26.71-18.82 28.65-3.39 2.23-14.43 3.01-6.93.65-3.68-.39-9.34-3.86-4.81-1.89-5.87-.4-4.6 1.64-5.02 1.37-4.46-.32-6.72-2.29-4.88-.66-9.31.56-12.24-.19-7.71.19-5.66-1.18-5.94-2.15-4.03-2.69-2.76 1.18.57 2.16-1.56 1.64-2.9.65-3.82-.2-1.2-3.6-3.75.86-1.06-2.75-2.62.72 1.41 5.82-3.18 1.18 1.84 6.61 9.97-1.58 2.55-.26 1.13-.98.64 2.49 4.88-.98-1.2-4.58 1.77-2.42 2.54-1.18 3.61.32 3.75 1.31 3.33.79 7.07.13 14.07 0 5.95 0 4.88-.33 4.03.59 4.46 1.64 3.68.91 4.74-.13 3.32-.85 5.31-1.64 3.69.16 5.59 1.64 7.5 3.34 4.31.98 7.5-.13 5.3-.46 2.06 1.05 1.48 2.02 0 2.95-2.96 3.76-9.84 10.93-8.63 10.86-24.66 31.37-16.9 21-6.3 9.03-4.46 5.42-3.96 2.29-6.15 2.1-8.28 1.11-6.29-.13-4.39-2.29-5.38-5.69-6.46-5.82-7.5-6.01-4.6-2.68-8.27-3.67-10.2-4.69-11.32-5.17-6.43-2.16-5.66-.79-10.05.13-12.28-1.55-6.65-.98-12.31-.91-8.84-1.7-7.43-2.95-10.89-4.84-9.27-2.94-12.59-2.49-11.44-1.97-12.66-2.75-21.15-4.25-22.14-3.54-7.97-1.73.07-2.36-6.16-1.44-.06-7.66 4.38-3.52 3.96-.6-.35-4.64-22.5.39 1.13 9.1 1.99 8.76.88 3.02-.42 2.42 0 2.1 1.27 2.35 1.42 1.13 3.68-1.44 5.94-3.67 6.94-1.04 5.8.52 21.85 3.67 21.37 4.25 11.98 2.79 12.59 1.96 10.12 1.97 7.84 2.35 4.91 1.7 8.63 4.06 7.78 3.14 7.43 1.7 10.33.52 8.56.85 2.9 1.83.14 2.16.21 2.29 3.68 2.95-.92 4.84-2.26.91-3.75 12.04 9.62 2.62 3.18-10.86 1.21-2.16-2.98-1.7 3.47-3.28.63-2.35 2.27-5.1 4.31-1.9 5.24-.13 5.73 1.5 6.86 2.69 8.28 3.73 8.2 3.99 3.76 1.83.21 1.5-1 3.47-.77 1.7-3.68.85-2.97 1.97-3.19 3.27-3.18 10.33 8.42 2.09 4.17-9.35 2.76-2.75 5.38-4.05 4.81-.85 3.82.71 3.28 2.78 7.78 7.73 5.44 6.21 4.88 5.43 5.73 4.51.72 2.09-1.63 3.86-4.53 5.56-6.65 7.14-7.28 8.37-3.27 3.52-.85 4.52 1.98 3.07 3.4 2.81.42 2.62-1.7 5.23 0 5.63 5.87 4.38 10.9-.59 4.67-2.75-1.63-6.41 1.56-5.1-1.98-4.18 1.27-6.29-13.23-4.9-.21-2.95 1.06-4.51 3.25-4.58 5.81-6.35 5.8-5.16 5.44-1.12 7.64-.58 9.06.06 1.68 1.25.85 4.12 5.45 3.08 7-1.9 2.62-.59 3.61 2.03.28 3 4.46 2.23 2.9-.98-1.7-2.1 3.61-5.23 2.62-1.11-.57-3.27-2.34-1.18-2.18 1.44-3.54-6.22-1.63-2.61-3.68.19-7.22 1.44-5.09 3.27-9.33 1.05-14.65.91-3.68-1.83.71-1.76 8.49-9.36 7.64-9.28 10.31-13.97 10.32-13.15 2.62-.13 3.68 2.42 9.2 8.38 2.97 2.29 1.69 4.05.78 4.58 2.62 2.49 3.54.07 2.61-2.62-.21-4.38-2.19-3.8-4.67-1.9-4.17-1.24-2.97-1.64-8.63-8.17-3.12-3.4.36-1.64 9.12-11.71 13.72-17.66 3.62-4.16 2.33 0 2.48 1.57 1.13 3.01.99 7.92 1.34 12.3 1.21 5.56 1.69 5.49 1.2 5.47 1.62 5.11 2.48 4.05 4.95 3.93 4.53 3.01 6.43 1.7 6.23 2.09 7.64 1.24 6.08-.85 6.51-3.4 6.02-2.48 3.6-5.24-.28-4.25-2.47-1.63 1.48-2.3-.85-2.94-2.26-2.42-3.75-.66-3.75.73-4.1 2.35-2.91.72-1.62-.39-5.66 2.55.78 4.06 0 4.71-1.28 2.42-3.11 2.09-4.95 1.57-3.11.07-4.96-1.84-6.43-4.77-2.26-2.56-2.76-5.75-1.92-8.5-1.91-8.05-.91-5.49-.97-9.15-1.27-7.85-.92-5.3.71-6.02 3.25-4.84 12.03-13.79 7.71-10.14 9.34-13.61 8.2-11.38 4.63-6.41 6.16-8.24 6.64-7.59 1.84-2.1 3.47.13 3.46 2.03 6.37 3.08 8.28 3.79 4.88 2.56 2.83 3.52 2.79 4.87 2.06 3.27-8.21 8.9 5.31 4.12 4.31-3.92 5.1.65 3.75-1.38-2.62-3.27 2.26-5.17-.64-2.67-2.82-1.84-4.39-2.42-4.74-2.55-3.11-3.01-3.75-2.29-4.53-2.03-5.52-2.48-5.37-2.49-2.97-2.03-1.14-2.94.75-2.88 2.2-3.41 6.15-7.39 5.02-6.8 6.53-8.53 9.7-12.23 4.03-4.71 2.13-.74 3.82.91 9.69 4.52 7.78 1.9 9.41 1.3 6.3.2 2.4.33.71.84-1.91 1.19 2.68 4.9 12.38-4.84 1.42-2.29-.57-3.67-3.04-1.17-1.84-2.56-2.69-2.42-5.09.4-2.33-3.01-4.96 2.42-.99 3.21-3.39 2.42-4.88.91-2.9.07-7.93-2.1-7.85-3.46-3.33-2.29-.13-3.01 2.54-3.86 4.95-6.48 8.28-11.32 12.08-16.11 20.23-27.93 3.6-3.98 3.46-1.37 4.6.39 3.11 2.62 7.36 6.21"/>
      <path d="m919.49 532.55l-6.37-5.63-5.51-4.71-1.34-3.27 2.54-5.1 13.09-16.56 10.74-12.4 4.53-7.39 5.51-6.87 8.92-10.2 9.69-11.91 10.61-14.26 7.5-10.47 2.93-1.94 3.9-1.24 4.24.19 2.34.98 6.01 4.91"/>
      <path d="m1000 425.03l-29.43-24.72"/>
      <path d="m968.95 402.33l7 6.15 2.27 3.99 1.41 3.99-.92 4.19-1.77 3.14-8.7 13.02-9.97 13.15-15.04 17.65-6.29 6.94-2.9 3.92-4.04 6.74-9.23 10.95-8.42 10.66-5.45 7-2.75 2.88-1.98.59-3.05-.92-9.62-6.34-22.45-15.35-12.73-8.11-11.6-7.85-14.15-9.29-14.15-8.9-12.03-7.72-2.08-2.24-1.06-7.33-.71-12.03-.4-5.92.36-7.26 1.97-8.24-.21-4.84-1.63-4.97-1.91-4.98-4.17-5.49-1.98-4.45.07-6.09 2.33-8.04 1.99-6.41-.29-6.54-2.12-6.87-2.05-3.86-3.68-5.24-2.05-3.27.21-4.45-4.6-.78.36-5.62-9.48-.91-1.06 6.27-2.13 1.44.78 2.56 2.9.19 4.88 1.05.78 1.64 4.88 1.76 3.18 1.76 2.84 4.06 2.97 5.17 1.69 5.76 0 5.23-.99 4.76-1.91 5.5-1.24 4.89-.28 4.06.56 3.6 2.34 4.18 3.04 4.58 1.56 3.4-.85 2.1-3.82 1.24-3.33.33-4.38-.92-4.1-1.64-2.97-3.07-1.49-4.97-1.63-4.25-2.41-2.56-4.31-1.5-3.89-1.63-5.02-3.93-4.6-5.04-3.82-3.79-5.1-2.62-3.75-.06-2.61-7.53-11.39 2.62 2.19 7.85 1.77 3.07 4.38 2.49 4.39.72 4.88-.78 3.33-.79 3.75.52 2.9 1.9 2.83 2.68 2.9 3.08 3.18 1.7 3.82 1.24 3.75 1.7 1.84 2.62 1.13 4.45 1.55 3.81 2.05 2.68 3.54 1.97 4.6 1.24 5.02.46 4.31-.4 2.2.53 1.62 2.35.29 2.56-.85 3.79-1.12 5.98-.71 5.76.43 6.47.42 5.89.14 4.38-.21 3.34-1.41 1.37-2.41.79-2.47-.65-8.7-4.46-8.21-3.85-11.32-4.91-18.39-8.18-42.66-18.78-29.47-12.87-41.03-17.66-27.02-11.65-18.82-8.11-18.95-8.25-11.75-3.27-11.03-.39-10.47.92-11.89-.66-22.21-4.45-9.48-4.05-16.69-9.16-8.77-5.49-9.63-3.8-12.02-4.85-28.44-9.42-37.92-14-49.23-16.87-9.06-3.93-16.21-6.12-13.71-4.58-11.47-.65-11.74 1.83-11.88 4.58-24.06 7.2-13.86 5.63-3.82 0-2.12-1.01-2.2-3.27-.92-10.47-.03-15.1-1.41-15.45-1.13-17.53-1.47-15.59-1.81-18.23-.49-25.13.47-12.37 1.14-5.49 4.1-4.58 9.48-2.36 16.01-.33 25.78-1.08"/>
      <path d="m256.03 125.21l-102.43 4.96-3.33 1.24-1.63 2.03-.49 2.42.08 31.62-.32 88.1-1.48 103.9-.14 28.92.31 34.04.43 39.78-.47 65.46-1.41 50.7-.5 34.37.42 11.12 5.63 38.39 3.49 23.76 4.95 25.32.35 6.67.15 5.43 3.74 24.94 2.41 10.27 2.05 8.23 1.39 2.57 2.97 1.77 4.03 1.64 5.03 2.42 7.64 5.23 7.57 3.27 6.72 1.57 14.22 1.64 7.35.71 3.25.99 2.63 2.22 1.02 2.78.57 7.65 1.34 8.83 1.63 8.77-.07 6.54-1.34 4.12-1.85 3.54"/>
      <path d="m234.12 833.33l1.63-3.14.92-2.88.35-2.62-.21-4.38-.78-5.23-1.49-7.66-.63-6.6-.43-6.94.16-8.33-.49-10.2-.71-9.95-.98-5.63-.28-5.69.28-2.61 2.34.78 3.68.66 1.27 6.08 4.74-.72-1.2-5.63 1.27-1.89 3.47-1.25 1.2 4.32 5.02-1.44-1.2-5.62-2.48.32-.28-4.64 3.18-1.24 5.94-1.58 2.41-.45 1.77 5.36-1.98.85 2.12 6.8 7.43-1.96-2.4-6.28-4.04.39-1.41-5.1 2.97-.72 10.61-1.96 1.41 5.17-2.61.98 2.12 6.8 6.01-1.44-2.12-6.8-2.12.19-1.49-5.1 4.27-.57 3.04 3.47-1.34.98 4.31 4.98 4.46-3.08-3.75-4.32-2.62.98-2.76-3.4 6.94-1.64 5.3 7.92 3.89-2.09-3.32-4.98-2.97.86-1.63-2.03 3.18-.26 5.74-1.44 4.24-5.11 1.2-3.27 4.81-1.24 4.67.85 3.04-1.05 2.34-7.06-7.43-2.36-1.13 2.09-1.35 6.68-5.16 1.31-.42-2.55-1.49-2.56-3.54-2.42-3.75-.98-5.87 2.42-14.43-13.01.67-.1"/>
      <path d="m228.7 786.41l2.41-1.31.84-1.96-1.84-21.2-1.06-10.8 0-15.57-.49-5.42-3.82-3.6-3.96-.52-8.92-.07-11.81-2.03-6.44-.46-7.73-1.85-8.7-2.88-6.79-2.29-3.96-1.57-3.54 1.57-.71 3.2.36 6.68 1.27 9.29 2.63 14.45 2.47 13.42 1.2 4.31 2.55 2.03 4.67.85 4.03 2.36 5.24 3.6 3.66 2.18 5.66 2.75 5.8 1.5 8 1.18 9.83 1.05 6.43.91 2.72.2z"/>
      <path d="m187.54 719.61l6.44 1.89 6.57.53 9.48 1.96 7.5.33 6.44-.53 4.18-2.68"/>
      <path d="m228.15 721.11l.77-2.62-.64-11.84-1.06-16.29-.07-9.61.36-7.92 0-2.09-.92-.99-2.19-.25-5.38.25-11.67 0-11.18-.06-10.33 0-18.25-.26-6.15.32-3.61.46-2.05 1.64-.57 2.88.92 6.15 2.4 12.95.71 6.61 1.06 5.62 2.2 5.37 3.82.85 3.18-1.77 3.82-4.71 1.49-4.25-.85-2.23.98-3.86 3.48-6.6 4.73-.26 2.55 2.03 2.97.52 4.46 1.96.64 1.05-1.28 3.47-.42 1.3.85 1.7-1.56 1.31-2.26-.06-1.78.85.15 1.7-.64 2.74-2.54 2.42-2.69 2.88-1.84 2.16.63 2.1 2.69 1.9 4.46.98"/>
      <path d="m232.37 739.4l2.97 1.57 4.46 1.5 3.04.07 3.82-1.18 4.81-1.31 9.41-2.55 5.66-.91 9.48-1.64 3.67-.72 11.75-2.22 3.96-3.86 4.59-1.9 1.21-4.32-2.76-3.2 1.28-1.97-3.76-.85-5.8 2.49-3.32-2.81-6.01-5.44-6.44-6.15-8.56-2.54-1.63 2.61-1.2 3.86.64 3.41.99 4.25 2.54 2.29 2.06 1.17 5.3-3 3.75-.4 3.89 2.42 3.47 2.23 4.45-1.77"/>
      <path d="m232.37 739.4l-.71-1.57.14-7.59.43-3.34 4.31-1.7.43-1.24-2.12-1.05-1.35-2.88-2.34-2.88-.42-9.54.21-3.08 6.09 2.03 5.02.85 5.8 1.57 3.25-9.1-6.5-2.09-1.98 1.77-5.24.39-5.51.2-2.13-2.62-.14-8.38.15-7.25.56-4.38 2.62-2.3 4.6.33 6.08 3.15 7.07 3.66 7.15 5.49 5.52 4.52 1.55 3.86-2.4 4.84-2.2 3.92-3.04.72-1.13 2.23 4.25 4.71 3.92 6.43-3.76 3.47 3.47 1.89 4.95 1.71 2.83 2.88 3.96 1.7 4.39.91.85 2.36"/>
      <path d="m152.82 653.18l6.93.91 6.65 1.18.28 6.81-7.92.39-.14 3.53 1.27 1.44 11.46.26 20.66.13 15.42.14 13.16 0 4.17-.33 1.56-2.1-.64-10.13-1.06-16.1-1.51-23.6-2.41-35.2-1.83-36.77-.57-31.8-1.84-12.82"/>
      <path d="m216.46 499.12l-3.24-46.24-2.48-42.57-1.97-40.17-2.69-45.14-1.27-31.53.84-10.47-.42-8.5-1.45-13.73 0-14.85-1.34-17.53-1.76-20.06-1.91-18.12-1.57-18.39-.28-17.14 0-11.91-.14-5.23-6.22-3.66-6.23-2.09-12.87.39-13.44.78-5.24 1.57-1.7 3.14-.28 13.09 0 26.95.27 23.89.29 46.59-.15 30.62-.56 25.11-.14 49.2-.43 19.11-1.08 15.18 0 28-.08 121.27-.85 31.4-.42 31.01-.34 15.46 2.13 17.79 3.38 20.84"/>
      <path d="m654.17 812.7l2.48 3.07 3.04 3.27 3.11 1.97 2.34-.72 4.74-3.6 4.6-3.79 1.9-2.88-3.89 1.17-6.58 1.31-6.72.52-5.02-.32z"/>
      <path d="m0 704.35l39.89-3.92 31.7 2.09 18.11 13.61 34.8 26.69 33.39 30.09 16.7 14.39 27.73 13.35 25.46 10.99 6.23 1.73"/>
      <path d="m1.94 725.77l35.37 1.57 17.83-1.05 20.65 2.09 18.4 8.12 24.34 17.27 15.84 14.39 12.73 19.1 16.7 14.65 14.43 6.29 30.84 9.68 22.07 7.06 3.68 1.35"/>
      <path d="m235.87 813.66l12.09 4.98 22.36 6.01 23.7 5.11 19.17-.66 17.26-5.63 5.23-7.85-4.95-5.75-12.17-7.07-9.33-14.39-5.09-14.92-.71-11.77 7.92-10.6 8.49-8.63 4.81-5.63 3.4-10.86 2.54-16.23 2.83-7.45-3.54-3.14 6.51-5.1 2.15-13.19-1.48-5.76 3.73-10.92-2.83-10.73 5.09-13.6 17.83-17.01 25.18-27.22 31.22-36.13 22.49-30.09 30.84-38.47 16.41-25.38 5.66-18.06 1.7-19.36 5.99-37.59 2.27-26.82.85-20.68"/>
      <path d="m236.78 826.85l6.37 1.38 17.82 5.43 17.05 5.04 31.92 9.83 20.37 3.67 11.04-1.57 8.77-7.07 2.55-13.6 0-10.73-8.77-5.5-6.8-8.11-6.79-9.68-5.66-15.96-7.35-13.87 1.41-10.21 10.47-8.37 3.68-5.49.28-5.11-.28-8.9.14-10.86 1.84-7.32 1.98-7.33 3.68-4.45 2.34-2.42 8.34-3.86 6.16-2.94 2.19-4.91-1.91-3.79 2.76-2.82 5.23-5.76 11.14-6.07 2.83-7.59-.56-20.93.28-8.37 15.84-20.94 29.71-33.75 24.69-34.56 24.05-28.78 18.11-28 11.89-20.94-.57-18.84 8.77-19.89 2.55-19.37 2.83-26.95 2.83-20.41-3.03-10.52"/>
      <path d="m341.89 689.28l2.26.78 7.07-1.17 3.97-2.88-.29-3.14-.99-3.66 3.4-2.36-.28-3.4 8.06-5.76 5.38-4.32 2.26-4.58.14-7.98-.99-12.56-1.41-3.66-1.7-1.05-7.22 4.19-6.51 7.85-5.79 7.33-1.14 6.15-3.25 4.71-.85 4.83 2.69 4.46-2.69 5.88-2.12 10.34z"/>
      <path d="m503.53 340.77l-.28-15.57 2.97-28.92 1.13-30.62.99-32.05-4.52-37.95.85-29.31 9.05-32.45 5.66-14.4"/>
      <path d="m517.6 343.52l4.31-9.68 3.05-13.08 5.49-25.49 0-36.11-1.7-20.42-6.79-16.74 1.7-30.36 6.22-31.4 7.36-25.13 5.3-17.11"/>
      <path d="m725.36 788.51l.92 1.7.63 2.88 1.14 3.92 1.69 1.11 2.2-.39 1.13-1.96-.5-3.27-2.47-2.49-4.74-1.5z"/>
      <path d="m756.1 709.88l5.02-5.56-3.26.85-3.81 1.11 2.05 3.6z"/>
      <path d="m979.54 410.87l1.62 4.25 0 3.08-.7 2.68 4.74-1.7 3.61-.26-9.27-8.05z"/>
      <path d="m233.77 743.77l-.5 2.16 0 3.14 1.7 1.5 2.41.65.35.98 1.63.21 1.55-2.17.5-2.75-.5-3.52-1.41-.53-1.77.85-3.96-.52z"/>
      <path d="m297.43 604.21l-1.34 1.18-.93 1.63 2.27.4 1.91-.79.49-1.5-.92-.92-1.48 0z"/>
      <path d="m188.18 130.7l3.26 1.77 3.75 1.63 2.76 2.03 1.49-2.16 2.89-2.88 2.13-1.11-7.43.2-8.85.52z"/>
      <path d="m749.83 372.42l-2.62-2.56-2.48-1.17-3.53-.07-.57 1.57.57 1.57 3.82.46 4.81.2z"/>
      <path d="m623.15 788.78l-1.13 1.7-.36 2.75.85 1.24 2.05 0 3.76-.65 2.75.19.29-.98-3.04-1.9-3.19-1.7-1.98-.65z"/>
      <path d="m567.55 774.06l-1.06 1.77.63 1.37 2.13 1.05 1.62-.79 1.35-2.35-1.42-.66-3.25-.39z"/>
      <path d="m770.91 796.37l2.83.99 3.26.98 4.31.58 3.32-.58 1.7-1.11-.57-2.04-3.25-2.22-3.25-.32-3.75 2.29-4.6 1.43z"/>
      <path d="m792.27 777.08l1.7 1.04 2.9 1.31 2.41 1.44 1.06-.46.42-1.96-1.48-1.9-1.99-.91-2.54.19-2.48 1.25z"/>
      <path d="m736.91 736.3l2.2.07 1.84 1.18-.22-6.15-3.82 4.9z"/>
  </g>


  
  <g >
      <path class="map_layout_1_villas" id="map_layout_1_villa_1" d="m238.32 754.21l.92 3.6 2.9-.52-.85-3.73-2.97.65z"/>
        <text class="map_layout_1_villa_text" id="map_layout_1_villa_text_1" x="150" y="900">villa_1</text>
    
      <path class="map_layout_1_villas" id="map_layout_1_villa_2" d="m248.01 748.26l.71 3.21 2.9-.33-.71-3.2-2.9.32z"/>
        <text class="map_layout_1_villa_text" id="map_layout_1_villa_text_2" x="150" y="900">villa_2</text>
    
      <path class="map_layout_1_villas" id="map_layout_1_villa_3" d="m262.72 746.11l1.56 4.38 3.54-.79-1.56-4.51-3.54.92z"/>
        <text class="map_layout_1_villa_text" id="map_layout_1_villa_text_3" x="150" y="900">villa_3</text>
    
      <path class="map_layout_1_villas" id="map_layout_1_villa_4" d="m277.01 743.62l1.7 4.64 3.32-.71-1.55-4.85-3.47.92z"/>
        <text class="map_layout_1_villa_text" id="map_layout_1_villa_text_4" x="150" y="900">villa_4</text>
    
      <path class="map_layout_1_villas" id="map_layout_1_villa_5" d="m287.3 738.75l-2.68 1.5 3.25 3.34 2.27-1.51-2.84-3.33z"/>
        <text class="map_layout_1_villa_text" id="map_layout_1_villa_text_5" x="150" y="900">villa_5</text>
    
      <path class="map_layout_1_villas" id="map_layout_1_villa_6" d="m292.11 736.46l2.69 4.06 2.55-1.38-2.33-3.53-2.91.85z"/>
        <text class="map_layout_1_villa_text" id="map_layout_1_villa_text_6" x="150" y="900">villa_6</text>
    
      <path class="map_layout_1_villas" id="map_layout_1_villa_7" d="m307.8 644.08l-3.47 3.86 7.01 4.19 3.11-3.47-6.65-4.58z"/>
        <text class="map_layout_1_villa_text" id="map_layout_1_villa_text_7" x="150" y="900">villa_7</text>
    
      <path class="map_layout_1_villas" id="map_layout_1_villa_8" d="m297.54 609.47l-2.33 9.03 5.73 1.31 2.62-8.76-6.02-1.58z"/>
        <text class="map_layout_1_villa_text" id="map_layout_1_villa_text_8" x="150" y="900">villa_8</text>
    
      <path class="map_layout_1_villas" id="map_layout_1_villa_9" d="m299.8 554.88l1.13 7.13 5.59-.72-1.06-7.06-5.66.65z"/>
        <text class="map_layout_1_villa_text" id="map_layout_1_villa_text_9" x="150" y="900">villa_9</text>
    
      <path class="map_layout_1_villas" id="map_layout_1_villa_10" d="m344.3 462.9l-5.31 5.1 10.19 8.38 5.09-4.84-9.97-8.64z"/>
        <text class="map_layout_1_villa_text" id="map_layout_1_villa_text_10" x="150" y="900">villa_10</text>
    
      <path class="map_layout_1_villas" id="map_layout_1_villa_11" d="m350.14 331.93l-2.9 3.08 5.8 3.53 2.62-3.2-5.52-3.41z"/>
        <text class="map_layout_1_villa_text" id="map_layout_1_villa_text_11" x="150" y="900">villa_11</text>
    
      <path class="map_layout_1_villas" id="map_layout_1_villa_12" d="m726.58 361.62l2.19 7.85 11.81-2.94-2.61-7.53-11.39 2.62z"/>
        <text class="map_layout_1_villa_text" id="map_layout_1_villa_text_12" x="150" y="900">villa_12</text>
    
      <path class="map_layout_1_villas" id="map_layout_1_villa_13" d="m771.26 326.98l-1.06 6.27 10.04 1.12.5-6.48-9.48-.91z"/>
        <text class="map_layout_1_villa_text" id="map_layout_1_villa_text_13" x="150" y="900">villa_13</text>
    
      <path class="map_layout_1_villas" id="map_layout_1_villa_14" d="m808.95 508.75l-.29 6.21 8.15-.03-.15-6.35-7.71.17z"/>
        <text class="map_layout_1_villa_text" id="map_layout_1_villa_text_14" x="150" y="900">villa_14</text>
    
      <path class="map_layout_1_villas" id="map_layout_1_villa_15" d="m882.52 612.6l2.68 4.9 10.77-4.28-2.55-5.23-10.9 4.61z"/>
        <text class="map_layout_1_villa_text" id="map_layout_1_villa_text_15" x="150" y="900">villa_15</text>
    
      <path class="map_layout_1_villas" id="map_layout_1_villa_16" d="m828.68 683.82l5.31 4.12 7.62-7.57-5.66-4.38-7.27 7.83z"/>
        <text class="map_layout_1_villa_text" id="map_layout_1_villa_text_16" x="150" y="900">villa_16</text>
    
      <path class="map_layout_1_villas" id="map_layout_1_villa_17" d="m624.06 701.66l1.84 6.61 10.31-2.24-1.75-6.6-10.4 2.23z"/>
        <text class="map_layout_1_villa_text" id="map_layout_1_villa_text_17" x="150" y="900">villa_17</text>
    
      <path class="map_layout_1_villas" id="map_layout_1_villa_18" d="m780.91 786.53l2.69 4.45 4.17-2.55 4.32-.07 6.01 2.95 2.98-3.99-9.2-5.11-.07-2.29-3.47.07 0 2.22-7.43 4.32z"/>
        <text class="map_layout_1_villa_text" id="map_layout_1_villa_text_18" x="150" y="900">villa_18</text>
    
      <path class="map_layout_1_villas" id="map_layout_1_villa_19" d="m706.83 822.05l-5.23 5.89 10.33 7.26 5.02-5.96-10.12-7.19z"/>
        <text class="map_layout_1_villa_text" id="map_layout_1_villa_text_19" x="150" y="900">villa_19</text>
    
      <path class="map_layout_1_villas" id="map_layout_1_villa_20" d="m610.58 800.85l-1.14 3.92-1.55 5.96 4.95.98 1.55-4.77 2.13.32 1.27-4.25-7.21-2.16z"/>
        <text class="map_layout_1_villa_text" id="map_layout_1_villa_text_20" x="150" y="900">villa_20</text>
    
      <path class="map_layout_1_villas" id="map_layout_1_villa_21" d="m565.17 787.42l-3.04 10.8 5.87 1.83 3.25-10.86-6.08-1.77z"/>
        <text class="map_layout_1_villa_text" id="map_layout_1_villa_text_21" x="150" y="900">villa_21</text>
    
      <path class="map_layout_1_villas" id="map_layout_1_villa_22" d="m402 720.78l-.28 5.24 10.97.19 0-2.55 8.06-.39-.14-3.47-18.61.2 0 .78z"/>
        <text class="map_layout_1_villa_text" id="map_layout_1_villa_text_22" x="150" y="900">villa_22</text>
    
      <path class="map_layout_1_villas" id="map_layout_1_villa_23" d="m645.88 869.17l.49 5.95 3.26-.39.28 2.75 6.93-.46-.99-8.7-9.97.85z"/>
        <text class="map_layout_1_villa_text" id="map_layout_1_villa_text_23" x="150" y="900">villa_23</text>
    
      <path class="map_layout_1_villas" id="map_layout_1_villa_24" d="m244.89 698.51l-2.48 6.15 4.67 1.57 2.33-6.21-4.52-1.51z"/>
        <text class="map_layout_1_villa_text" id="map_layout_1_villa_text_24" x="150" y="900">villa_24</text>
    
      <path class="map_layout_1_villas" id="map_layout_1_villa_25" d="m299.72 716.76l-3.76-.85-4.89 2.19-1.91 2.55-2.62-.39-.7 2.02-4.11.07.71 5.89 4.53-.27-.14-2.48 1.62-.13 2.27 3.47 1.63-1.64 3.05.96 4.59-1.9 1.21-4.32-2.76-3.2 1.28-1.97z"/>
        <text class="map_layout_1_villa_text" id="map_layout_1_villa_text_25" x="150" y="900">villa_25</text>
  </g>
  
</svg>
